<?xml version="1.0" standalone="no"?>
<!DOCTYPE svg PUBLIC "-//W3C//DTD SVG 1.1//EN" "http://www.w3.org/Graphics/SVG/1.1/DTD/svg11.dtd" >
<svg xmlns="http://www.w3.org/2000/svg" xmlns:xlink="http://www.w3.org/1999/xlink" version="1.1">
<metadata>
Created by FontForge 20170731 at Sun Sep  9 11:24:29 2018
 By Aleksey,,,
(c) 1999-2018 Typodermic Fonts Inc.
</metadata>
<defs>
<font id="CoolveticaRg-Regular" horiz-adv-x="503" >
  <font-face 
    font-family="Coolvetica Rg"
    font-weight="400"
    font-stretch="normal"
    units-per-em="1000"
    panose-1="2 11 6 3 3 6 2 2 0 4"
    ascent="767"
    descent="-233"
    x-height="492"
    cap-height="664"
    bbox="-444 -233 1103 921"
    underline-thickness="20"
    underline-position="-163"
    unicode-range="U+0017-FB02"
  />
<missing-glyph horiz-adv-x="452" 
d="M129 0q-97 0 -97 84v488q0 85 97 85h193q98 0 98 -85v-488q0 -84 -98 -84h-193zM368 572q0 39 -46 39h-193q-46 0 -46 -39v-488q0 -39 46 -39h193q46 0 46 39v488z" />
    <glyph glyph-name=".notdef" horiz-adv-x="452" 
d="M129 0q-97 0 -97 84v488q0 85 97 85h193q98 0 98 -85v-488q0 -84 -98 -84h-193zM368 572q0 39 -46 39h-193q-46 0 -46 -39v-488q0 -39 46 -39h193q46 0 46 39v488z" />
    <glyph glyph-name=".null" horiz-adv-x="0" 
 />
    <glyph glyph-name="nonmarkingreturn" horiz-adv-x="0" 
 />
    <glyph glyph-name="uni0017" horiz-adv-x="241" 
 />
    <glyph glyph-name="space" unicode=" " horiz-adv-x="241" 
 />
    <glyph glyph-name="exclam" unicode="!" horiz-adv-x="245" 
d="M52 0v131h135v-131h-135zM86 184q-20 120 -29.5 222t-9.5 187q0 20 0.5 38t4.5 33h138q2 -17 3 -35.5t1 -38.5q0 -83 -9.5 -184.5t-29.5 -221.5h-69z" />
    <glyph glyph-name="quotedbl" unicode="&#x22;" horiz-adv-x="289" 
d="M23 414zM168 414v250h89v-250h-89zM23 414v250h89v-250h-89z" />
    <glyph glyph-name="numbersign" unicode="#" horiz-adv-x="501" 
d="M295 390h-88l-16 -116h89zM242 0l27 189h-88l-24 -189h-85l24 189h-87l9 85h89l15 116h-87l10 85h88l26 189h83l-25 -189h89l24 189h86l-25 -189h88l-12 -85h-87l-15 -116h88l-10 -85h-89l-25 -189h-87z" />
    <glyph glyph-name="dollar" unicode="$" horiz-adv-x="484" 
d="M265 83q38 2 60.5 27t22.5 57q0 35 -22.5 59t-60.5 34v-177zM224 559q-37 -2 -58 -24t-21 -51q0 -30 20.5 -54.5t58.5 -29.5v159zM224 -55v39q-56 5 -95.5 19t-65 40t-37.5 64.5t-12 91.5h120q4 -32 10.5 -53t17 -34t25.5 -19.5t37 -9.5v193q-50 13 -87 29.5t-61.5 39
t-37 52t-12.5 70.5q0 39 15 73.5t41.5 60.5t62.5 41t79 16v44h41v-44q185 -6 194 -194h-118q-5 54 -23.5 73.5t-52.5 21.5v-172q67 -22 107.5 -43t62 -44.5t28.5 -51.5t7 -65q0 -44 -14.5 -79.5t-41.5 -61.5t-65 -41t-84 -17v-39h-41z" />
    <glyph glyph-name="percent" unicode="%" horiz-adv-x="669" 
d="M19 0zM70 -20l461 704h68l-462 -704h-67zM539 31q24 0 35.5 28t11.5 96q0 69 -11.5 97.5t-35.5 28.5q-23 0 -35 -28t-12 -97t12 -97t35 -28zM537 -22q-54 0 -83.5 42.5t-29.5 136.5t29.5 135t83.5 41t84.5 -41t30.5 -134t-30.5 -136.5t-84.5 -43.5zM134 384q24 0 35.5 28
t11.5 96q0 69 -11.5 97.5t-35.5 28.5q-23 0 -35 -28t-12 -97t12 -97t35 -28zM132 331q-54 0 -83.5 42.5t-29.5 136.5t29.5 135t83.5 41t84.5 -41t30.5 -134t-30.5 -136.5t-84.5 -43.5z" />
    <glyph glyph-name="ampersand" unicode="&#x26;" horiz-adv-x="505" 
d="M355 381h125v-179q0 -51 -16.5 -92.5t-46 -71t-70.5 -45.5t-91 -16q-57 0 -101 16t-74.5 44t-46.5 66t-16 82q0 23 6 47.5t16.5 45.5t25.5 37t32 24q-77 40 -77 139q0 42 18 76t51 58.5t79 38t102 13.5v-109q-68 0 -95 -21.5t-27 -70.5q0 -42 28 -62t94 -20v-94
q-60 0 -93 -24.5t-33 -75.5q0 -21 6.5 -39.5t20 -32.5t34 -22.5t49.5 -8.5q100 0 100 118v179z" />
    <glyph glyph-name="quotesingle" unicode="'" horiz-adv-x="145" 
d="M23 414v250h89v-250h-89z" />
    <glyph glyph-name="parenleft" unicode="(" horiz-adv-x="326" 
d="M227 -143q-78 94 -119 209t-41 235q0 115 39 224.5t121 202.5h95q-61 -102 -91.5 -209.5t-30.5 -219.5t30.5 -223.5t91.5 -218.5h-95z" />
    <glyph glyph-name="parenright" unicode=")" horiz-adv-x="326" 
d="M8 -143q61 107 91.5 218.5t30.5 223.5t-30.5 219.5t-91.5 209.5h95q82 -93 121 -202.5t39 -224.5q0 -120 -41 -235t-119 -209h-95z" />
    <glyph glyph-name="asterisk" unicode="*" horiz-adv-x="539" 
d="M365 197l-98 129l-95 -129l-90 63l96 136l-146 46l33 101l143 -46v167h118v-167l143 46l36 -101l-148 -46l96 -136z" />
    <glyph glyph-name="plus" unicode="+" horiz-adv-x="523" 
d="M211 107v189h-188v94h188v188h94v-188h189v-94h-189v-189h-94z" />
    <glyph glyph-name="comma" unicode="," horiz-adv-x="187" 
d="M23 -106q38 10 57 34t20 72h-77v135h138v-102q0 -42 -7 -74t-23 -54.5t-42.5 -37.5t-65.5 -23v50z" />
    <glyph glyph-name="hyphen" unicode="-" horiz-adv-x="280" 
d="M13 257v101h248v-101h-248z" />
    <glyph glyph-name="hyphen" unicode="&#xad;" horiz-adv-x="280" 
d="M13 257v101h248v-101h-248z" />
    <glyph glyph-name="period" unicode="." horiz-adv-x="187" 
d="M23 0v135h139v-135h-139z" />
    <glyph glyph-name="slash" unicode="/" horiz-adv-x="300" 
d="M-5 0l190 664h109l-192 -664h-107z" />
    <glyph glyph-name="zero" unicode="0" horiz-adv-x="490" 
d="M247 82q24 0 41.5 13.5t29 43t17.5 77t6 115.5q0 69 -6 117t-17.5 77.5t-29 43t-41.5 13.5t-41.5 -13t-29.5 -42.5t-18 -77t-6 -116.5t6 -117t18 -78t29.5 -43t41.5 -13zM243 -23q-54 0 -96 21t-71 64.5t-44 111t-15 161.5q0 93 15 159.5t44 109t71 62.5t96 20t96.5 -20
t72 -62t45.5 -108t16 -159q0 -185 -61.5 -272.5t-168.5 -87.5z" />
    <glyph glyph-name="one" unicode="1" horiz-adv-x="296" 
d="M140 0v459h-136v90q43 0 72 7t47.5 21.5t28 36t12.5 50.5h106v-664h-130z" />
    <glyph glyph-name="two" unicode="2" horiz-adv-x="465" 
d="M4 0q0 46 7.5 86t29 79t60.5 79t103 86q36 25 59.5 45t37.5 38t20 36t6 39q0 25 -7 42t-19.5 27t-29.5 14t-36 4q-45 0 -71 -25.5t-26 -92.5h-125q0 108 56.5 168.5t159.5 60.5q50 0 91.5 -12t71 -36t46 -60.5t16.5 -85.5q0 -38 -10 -69t-32.5 -61t-59.5 -61t-90 -69
q-38 -28 -64 -60.5t-28 -58.5h286v-113h-452z" />
    <glyph glyph-name="three" unicode="3" horiz-adv-x="479" 
d="M184 389q42 0 68.5 7.5t41 20t20 29t5.5 34.5q0 50 -20.5 76t-65.5 26q-38 0 -63 -28.5t-25 -80.5h-121q0 48 15.5 87t44 67t68 43.5t86.5 15.5q43 0 80.5 -13t65.5 -37t44 -57.5t16 -73.5q0 -45 -19.5 -85.5t-58.5 -63.5q48 -20 73.5 -60.5t25.5 -103.5q0 -50 -17 -90
t-48 -67.5t-74 -42.5t-95 -15q-104 0 -161 58t-57 160h125q0 -58 25 -84.5t74 -26.5q41 0 68 28.5t27 81.5q0 58 -33.5 81t-114.5 23v91z" />
    <glyph glyph-name="four" unicode="4" horiz-adv-x="476" 
d="M265 480l-136 -234h136v234zM262 0v145h-258v113l242 406h146v-418h75v-101h-75v-145h-130z" />
    <glyph glyph-name="five" unicode="5" horiz-adv-x="490" 
d="M28 261l14 403h409v-110h-293l-6 -178q26 28 60.5 37.5t71.5 9.5q40 0 75.5 -14t61 -40.5t40.5 -65.5t15 -89q0 -54 -17 -97.5t-47 -74.5t-72 -48t-93 -17q-45 0 -84.5 14.5t-69.5 40t-47.5 61t-19.5 78.5h130q4 -42 28 -65t63 -23q54 0 76.5 34t22.5 91q0 52 -22.5 81
t-68.5 29q-35 0 -57 -14.5t-36 -42.5h-134z" />
    <glyph glyph-name="six" unicode="6" horiz-adv-x="487" 
d="M246 82q22 0 39.5 9.5t29.5 26.5t18 40t6 50q0 57 -26 90.5t-69 33.5q-44 0 -71.5 -33.5t-27.5 -88.5q0 -57 26.5 -92.5t74.5 -35.5zM326 520q-5 62 -70 62q-54 0 -80.5 -51.5t-32.5 -158.5q23 27 54.5 44.5t81.5 17.5q39 0 73.5 -15t60 -43.5t40 -69t14.5 -92.5
q0 -51 -16 -94.5t-44.5 -75t-69 -49.5t-89.5 -18q-118 0 -175.5 84t-57.5 249q0 100 15.5 171t46 116.5t77 67t108.5 21.5q81 0 131.5 -42.5t61.5 -123.5h-129z" />
    <glyph glyph-name="seven" unicode="7" horiz-adv-x="478" 
d="M95 0q6 72 23 144t46.5 142t70 136.5t93.5 126.5h-324v115h465v-100q-112 -125 -172 -269.5t-68 -294.5h-134z" />
    <glyph glyph-name="eight" unicode="8" horiz-adv-x="495" 
d="M245 84q51 0 73.5 29t22.5 81q0 46 -23 75t-73 29t-72 -28t-22 -76q0 -52 21.5 -81t72.5 -29zM245 401q41 0 61 25t20 64q0 41 -20 65.5t-61 24.5t-61 -24.5t-20 -65.5q0 -39 20 -64t61 -25zM376 363q22 -10 40.5 -27.5t31.5 -39.5t20 -48t7 -54q0 -47 -14 -87t-42.5 -69
t-71.5 -45t-101 -16q-57 0 -100.5 16.5t-72.5 45t-43.5 67t-14.5 82.5q0 58 26 101t78 68q-41 21 -58 62.5t-17 83.5q0 39 15 72.5t42 58t64 38.5t81 14q49 0 86.5 -14t62.5 -38t37.5 -56.5t12.5 -70.5q0 -44 -15.5 -84t-53.5 -60z" />
    <glyph glyph-name="nine" unicode="9" horiz-adv-x="487" 
d="M238 331q44 0 71.5 33.5t27.5 88.5q0 57 -26.5 92.5t-74.5 35.5q-23 0 -40 -9.5t-29 -26.5t-18 -40t-6 -50q0 -57 26 -90.5t69 -33.5zM156 143q5 -62 70 -62q54 0 80.5 51.5t32.5 158.5q-23 -27 -54.5 -44.5t-81.5 -17.5q-39 0 -73.5 15t-60 43.5t-40 69t-14.5 92.5
q0 51 16 94.5t44.5 75t69 49.5t89.5 18q118 0 175.5 -84t57.5 -249q0 -100 -15.5 -171t-46 -116.5t-77 -67t-108.5 -21.5q-81 0 -131.5 42.5t-61.5 123.5h129z" />
    <glyph glyph-name="colon" unicode=":" horiz-adv-x="171" 
d="M14 0v135h138v-135h-138zM14 339v134h138v-134h-138z" />
    <glyph glyph-name="semicolon" unicode=";" horiz-adv-x="175" 
d="M10 -106q38 10 57 34t20 72h-77v135h138v-102q0 -42 -7 -74t-23 -54.5t-42.5 -37.5t-65.5 -23v50zM10 339v134h138v-134h-138z" />
    <glyph glyph-name="less" unicode="&#x3c;" horiz-adv-x="523" 
d="M23 296v94l471 200v-104l-365 -143l365 -143v-104z" />
    <glyph glyph-name="equal" unicode="=" horiz-adv-x="523" 
d="M23 396v94h471v-94h-471zM23 196v94h471v-94h-471z" />
    <glyph glyph-name="greater" unicode="&#x3e;" horiz-adv-x="523" 
d="M23 96v104l365 143l-365 143v104l471 -200v-94z" />
    <glyph glyph-name="question" unicode="?" horiz-adv-x="491" 
d="M179 0v131h135v-131h-135zM183 193q0 59 9 95t35 66q15 18 34 31t35 27.5t27 32.5t11 47q0 49 -27 68.5t-64 19.5q-53 0 -73 -29.5t-25 -79.5h-129q0 49 16 89t45.5 68t71 43t91.5 15q108 0 170.5 -44t62.5 -143q0 -32 -6.5 -56t-19.5 -43.5t-32 -36.5t-43 -35
q-22 -17 -35.5 -31.5t-20.5 -30.5t-9 -33.5t-2 -39.5h-122z" />
    <glyph glyph-name="at" unicode="@" horiz-adv-x="708" 
d="M336 154q45 0 72 43t27 110q0 41 -17.5 63t-51.5 22q-44 0 -74.5 -36t-30.5 -116q0 -42 16.5 -64t58.5 -22zM646 -15q-29 -25 -98 -46.5t-184 -21.5q-86 0 -151 25.5t-109 71t-66.5 109t-22.5 138.5q0 79 24 146t69.5 115.5t111 76t148.5 27.5q66 0 125 -16t103.5 -51
t70.5 -90t26 -132q0 -65 -16 -114.5t-41 -83t-56 -50.5t-62 -17q-42 0 -64 15.5t-27 37.5q-16 -27 -43.5 -38.5t-62.5 -11.5q-39 0 -66.5 14t-45 37t-25.5 52.5t-8 61.5q0 48 13 89.5t37.5 71.5t59 47.5t77.5 17.5q35 0 61 -15.5t37 -47.5l13 53h78l-52 -247q-6 -27 -6 -36
q0 -10 7.5 -14.5t15.5 -4.5q17 0 35 11t33 32.5t24.5 54t9.5 75.5q0 62 -17.5 106t-50.5 71.5t-79.5 40.5t-104.5 13q-67 0 -118.5 -25.5t-86 -66.5t-52.5 -93.5t-18 -106.5q0 -134 73 -204t205 -70q88 0 151 14t94 37z" />
    <glyph glyph-name="A" unicode="A" horiz-adv-x="643" 
d="M319 515h-1l-85 -264h169zM484 0l-42 137h-245l-47 -137h-147l237 664h161l234 -664h-151z" />
    <glyph glyph-name="A" unicode="&#x410;" horiz-adv-x="643" 
d="M319 515h-1l-85 -264h169zM484 0l-42 137h-245l-47 -137h-147l237 664h161l234 -664h-151z" />
    <glyph glyph-name="A" unicode="&#x391;" horiz-adv-x="643" 
d="M319 515h-1l-85 -264h169zM484 0l-42 137h-245l-47 -137h-147l237 664h161l234 -664h-151z" />
    <glyph glyph-name="B" unicode="B" horiz-adv-x="574" 
d="M333 113q48 0 75 27t27 68q0 44 -26.5 64t-73.5 20h-178v-179h176zM157 549v-144h175q84 0 84 72q0 38 -21.5 55t-70.5 17h-167zM23 0v664h327q98 0 149 -48.5t51 -132.5q0 -43 -23 -76.5t-58 -47.5q21 -8 39.5 -20.5t32 -32t21.5 -46t8 -62.5q0 -91 -61 -144.5
t-187 -53.5h-299z" />
    <glyph glyph-name="B" unicode="&#x412;" horiz-adv-x="574" 
d="M333 113q48 0 75 27t27 68q0 44 -26.5 64t-73.5 20h-178v-179h176zM157 549v-144h175q84 0 84 72q0 38 -21.5 55t-70.5 17h-167zM23 0v664h327q98 0 149 -48.5t51 -132.5q0 -43 -23 -76.5t-58 -47.5q21 -8 39.5 -20.5t32 -32t21.5 -46t8 -62.5q0 -91 -61 -144.5
t-187 -53.5h-299z" />
    <glyph glyph-name="B" unicode="&#x392;" horiz-adv-x="574" 
d="M333 113q48 0 75 27t27 68q0 44 -26.5 64t-73.5 20h-178v-179h176zM157 549v-144h175q84 0 84 72q0 38 -21.5 55t-70.5 17h-167zM23 0v664h327q98 0 149 -48.5t51 -132.5q0 -43 -23 -76.5t-58 -47.5q21 -8 39.5 -20.5t32 -32t21.5 -46t8 -62.5q0 -91 -61 -144.5
t-187 -53.5h-299z" />
    <glyph glyph-name="C" unicode="C" horiz-adv-x="613" 
d="M608 228q-11 -57 -35 -103t-60.5 -79t-84.5 -51t-106 -18q-65 0 -121.5 22t-97.5 66t-64.5 108.5t-23.5 150.5q0 84 21.5 151.5t61.5 114t97.5 71.5t128.5 25q62 0 112.5 -18.5t87 -51t58 -76.5t26.5 -94h-139q-14 57 -54 88.5t-90 31.5q-87 0 -128 -62.5t-41 -171.5
q0 -111 40.5 -172.5t121.5 -61.5q62 0 99.5 33.5t51.5 96.5h139z" />
    <glyph glyph-name="C" unicode="&#x421;" horiz-adv-x="613" 
d="M608 228q-11 -57 -35 -103t-60.5 -79t-84.5 -51t-106 -18q-65 0 -121.5 22t-97.5 66t-64.5 108.5t-23.5 150.5q0 84 21.5 151.5t61.5 114t97.5 71.5t128.5 25q62 0 112.5 -18.5t87 -51t58 -76.5t26.5 -94h-139q-14 57 -54 88.5t-90 31.5q-87 0 -128 -62.5t-41 -171.5
q0 -111 40.5 -172.5t121.5 -61.5q62 0 99.5 33.5t51.5 96.5h139z" />
    <glyph glyph-name="D" unicode="D" horiz-adv-x="607" 
d="M273 113q91 0 132 56.5t41 169.5q0 56 -10 96t-32.5 65.5t-57.5 37t-85 11.5h-103v-436h115zM23 0v664h257q67 0 124 -22.5t97.5 -64.5t63.5 -102t23 -136t-20.5 -138.5t-58.5 -107t-91 -69t-117 -24.5h-278z" />
    <glyph glyph-name="E" unicode="E" horiz-adv-x="532" 
d="M23 0v664h488v-116h-353v-142h325v-117h-325v-171h369v-118h-504z" />
    <glyph glyph-name="E" unicode="&#x415;" horiz-adv-x="532" 
d="M23 0v664h488v-116h-353v-142h325v-117h-325v-171h369v-118h-504z" />
    <glyph glyph-name="E" unicode="&#x395;" horiz-adv-x="532" 
d="M23 0v664h488v-116h-353v-142h325v-117h-325v-171h369v-118h-504z" />
    <glyph glyph-name="F" unicode="F" horiz-adv-x="505" 
d="M162 280v-280h-139v664h473v-116h-334v-151h292v-117h-292z" />
    <glyph glyph-name="G" unicode="G" horiz-adv-x="658" 
d="M518 0l-3 66q-24 -42 -77 -65.5t-122 -23.5t-124.5 29.5t-95 79t-60.5 114t-21 133.5q0 73 21 137.5t62 112.5t102 75.5t142 27.5q59 0 110.5 -17t90 -47t62 -71.5t27.5 -91.5h-140q-3 23 -16 43.5t-33 35.5t-46.5 24t-54.5 9q-84 0 -134.5 -62.5t-50.5 -181.5
q0 -41 10.5 -82.5t33 -75t57.5 -54.5t83 -21q34 0 63.5 12t51.5 33t34.5 48.5t12.5 58.5h-147v111h277v-357h-115z" />
    <glyph glyph-name="H" unicode="H" horiz-adv-x="587" 
d="M421 0v298h-259v-298h-139v664h139v-250h259v250h140v-664h-140z" />
    <glyph glyph-name="H" unicode="&#x41d;" horiz-adv-x="587" 
d="M421 0v298h-259v-298h-139v664h139v-250h259v250h140v-664h-140z" />
    <glyph glyph-name="H" unicode="&#x397;" horiz-adv-x="587" 
d="M421 0v298h-259v-298h-139v664h139v-250h259v250h140v-664h-140z" />
    <glyph glyph-name="I" unicode="I" horiz-adv-x="187" 
d="M23 0v664h139v-664h-139z" />
    <glyph glyph-name="I" unicode="&#x4cf;" horiz-adv-x="187" 
d="M23 0v664h139v-664h-139z" />
    <glyph glyph-name="I" unicode="&#x4c0;" horiz-adv-x="187" 
d="M23 0v664h139v-664h-139z" />
    <glyph glyph-name="I" unicode="&#x406;" horiz-adv-x="187" 
d="M23 0v664h139v-664h-139z" />
    <glyph glyph-name="I" unicode="&#x399;" horiz-adv-x="187" 
d="M23 0v664h139v-664h-139z" />
    <glyph glyph-name="J" unicode="J" horiz-adv-x="454" 
d="M288 664h139v-485q0 -91 -55 -146.5t-163 -55.5q-97 0 -151 51.5t-54 154.5v68h126v-61q0 -51 18 -75.5t61 -24.5q48 0 63.5 23.5t15.5 78.5v472z" />
    <glyph glyph-name="J" unicode="&#x408;" horiz-adv-x="454" 
d="M288 664h139v-485q0 -91 -55 -146.5t-163 -55.5q-97 0 -151 51.5t-54 154.5v68h126v-61q0 -51 18 -75.5t61 -24.5q48 0 63.5 23.5t15.5 78.5v472z" />
    <glyph glyph-name="K" unicode="K" horiz-adv-x="604" 
d="M431 0l-197 299l-74 -73v-226h-137v664h137v-270l254 270h180l-262 -262l268 -402h-169z" />
    <glyph glyph-name="K" unicode="&#x41a;" horiz-adv-x="604" 
d="M431 0l-197 299l-74 -73v-226h-137v664h137v-270l254 270h180l-262 -262l268 -402h-169z" />
    <glyph glyph-name="K" unicode="&#x39a;" horiz-adv-x="604" 
d="M431 0l-197 299l-74 -73v-226h-137v664h137v-270l254 270h180l-262 -262l268 -402h-169z" />
    <glyph glyph-name="L" unicode="L" horiz-adv-x="501" 
d="M23 0v664h139v-543h329v-121h-468z" />
    <glyph glyph-name="M" unicode="M" horiz-adv-x="695" 
d="M537 0v455l-124 -455h-138l-123 453v-453h-129v664h204l120 -487l120 487h200v-664h-130z" />
    <glyph glyph-name="M" unicode="&#x41c;" horiz-adv-x="695" 
d="M537 0v455l-124 -455h-138l-123 453v-453h-129v664h204l120 -487l120 487h200v-664h-130z" />
    <glyph glyph-name="M" unicode="&#x39c;" horiz-adv-x="695" 
d="M537 0v455l-124 -455h-138l-123 453v-453h-129v664h204l120 -487l120 487h200v-664h-130z" />
    <glyph glyph-name="N" unicode="N" horiz-adv-x="591" 
d="M436 0l-284 446v-446h-129v664h147l264 -427v427h130v-664h-128z" />
    <glyph glyph-name="N" unicode="&#x39d;" horiz-adv-x="591" 
d="M436 0l-284 446v-446h-129v664h147l264 -427v427h130v-664h-128z" />
    <glyph glyph-name="O" unicode="O" horiz-adv-x="670" 
d="M334 96q37 0 70 13.5t57.5 41t38.5 70.5t14 102q0 118 -46 179t-134 61t-135 -61t-47 -179t47.5 -172.5t134.5 -54.5zM334 -23q-154 0 -236.5 90t-82.5 259q0 84 21 151t62 113.5t100 71t136 24.5q76 0 135.5 -24.5t99.5 -71.5t61 -114.5t21 -152.5q0 -172 -81.5 -259
t-235.5 -87z" />
    <glyph glyph-name="O" unicode="&#x41e;" horiz-adv-x="670" 
d="M334 96q37 0 70 13.5t57.5 41t38.5 70.5t14 102q0 118 -46 179t-134 61t-135 -61t-47 -179t47.5 -172.5t134.5 -54.5zM334 -23q-154 0 -236.5 90t-82.5 259q0 84 21 151t62 113.5t100 71t136 24.5q76 0 135.5 -24.5t99.5 -71.5t61 -114.5t21 -152.5q0 -172 -81.5 -259
t-235.5 -87z" />
    <glyph glyph-name="O" unicode="&#x39f;" horiz-adv-x="670" 
d="M334 96q37 0 70 13.5t57.5 41t38.5 70.5t14 102q0 118 -46 179t-134 61t-135 -61t-47 -179t47.5 -172.5t134.5 -54.5zM334 -23q-154 0 -236.5 90t-82.5 259q0 84 21 151t62 113.5t100 71t136 24.5q76 0 135.5 -24.5t99.5 -71.5t61 -114.5t21 -152.5q0 -172 -81.5 -259
t-235.5 -87z" />
    <glyph glyph-name="P" unicode="P" horiz-adv-x="534" 
d="M294 354q60 0 86.5 27.5t26.5 71.5q0 42 -26.5 69t-86.5 27h-132v-195h132zM23 0v664h293q49 0 88 -16.5t67 -46t43 -68.5t15 -84t-15 -83.5t-43 -66t-67 -43t-88 -15.5h-154v-241h-139z" />
    <glyph glyph-name="P" unicode="&#x420;" horiz-adv-x="534" 
d="M294 354q60 0 86.5 27.5t26.5 71.5q0 42 -26.5 69t-86.5 27h-132v-195h132zM23 0v664h293q49 0 88 -16.5t67 -46t43 -68.5t15 -84t-15 -83.5t-43 -66t-67 -43t-88 -15.5h-154v-241h-139z" />
    <glyph glyph-name="P" unicode="&#x3a1;" horiz-adv-x="534" 
d="M294 354q60 0 86.5 27.5t26.5 71.5q0 42 -26.5 69t-86.5 27h-132v-195h132zM23 0v664h293q49 0 88 -16.5t67 -46t43 -68.5t15 -84t-15 -83.5t-43 -66t-67 -43t-88 -15.5h-154v-241h-139z" />
    <glyph glyph-name="Q" unicode="Q" horiz-adv-x="671" 
d="M664 -14q0 -48 -15 -88t-42 -69t-64 -45.5t-81 -16.5q-41 0 -76 14.5t-60 41t-39 63.5t-14 81v21q-125 17 -191.5 101.5t-66.5 236.5q0 84 21 151t62 113.5t100 71t136 24.5q76 0 135.5 -24.5t99.5 -71.5t61 -114.5t21 -152.5q0 -60 -16.5 -115t-48 -99t-78 -74
t-106.5 -39q0 -57 20 -82.5t52 -25.5q29 0 48.5 24.5t19.5 73.5h122zM334 96q37 0 70 13.5t57.5 41t38.5 70.5t14 102q0 118 -46 179t-134 61t-135 -61t-47 -179t47.5 -172.5t134.5 -54.5z" />
    <glyph glyph-name="R" unicode="R" horiz-adv-x="578" 
d="M158 549v-177h174q56 0 79 25t23 63q0 39 -22.5 64t-74.5 25h-179zM410 0v171q0 48 -22 68.5t-82 20.5h-148v-260h-135v664h337q46 0 83.5 -14.5t64.5 -40t41.5 -61t14.5 -76.5q0 -54 -25.5 -95.5t-73.5 -58.5q44 -14 62.5 -43t18.5 -87v-188h-136z" />
    <glyph glyph-name="S" unicode="S" horiz-adv-x="563" 
d="M399 468q-5 51 -37 76t-95 25q-59 0 -89 -20t-30 -58q0 -32 23.5 -51t79.5 -33q57 -14 108.5 -27.5t88.5 -30.5q22 -10 41 -23t33 -32t22 -45t8 -61q0 -55 -19.5 -94.5t-55 -65.5t-84 -38.5t-106.5 -12.5q-62 0 -113 13.5t-88 41.5t-58 69.5t-22 97.5h134
q2 -51 41.5 -80.5t106.5 -29.5q62 0 95.5 24.5t33.5 69.5q0 15 -4.5 27t-16 22.5t-31.5 19t-51 15.5q-62 14 -104.5 24.5t-77.5 26.5q-54 24 -82.5 62.5t-28.5 101.5q0 45 15 82.5t45.5 64.5t76 42t106.5 15q63 0 112 -16t82.5 -45t52 -69t20.5 -88h-132z" />
    <glyph glyph-name="S" unicode="&#x405;" horiz-adv-x="563" 
d="M399 468q-5 51 -37 76t-95 25q-59 0 -89 -20t-30 -58q0 -32 23.5 -51t79.5 -33q57 -14 108.5 -27.5t88.5 -30.5q22 -10 41 -23t33 -32t22 -45t8 -61q0 -55 -19.5 -94.5t-55 -65.5t-84 -38.5t-106.5 -12.5q-62 0 -113 13.5t-88 41.5t-58 69.5t-22 97.5h134
q2 -51 41.5 -80.5t106.5 -29.5q62 0 95.5 24.5t33.5 69.5q0 15 -4.5 27t-16 22.5t-31.5 19t-51 15.5q-62 14 -104.5 24.5t-77.5 26.5q-54 24 -82.5 62.5t-28.5 101.5q0 45 15 82.5t45.5 64.5t76 42t106.5 15q63 0 112 -16t82.5 -45t52 -69t20.5 -88h-132z" />
    <glyph glyph-name="T" unicode="T" horiz-adv-x="554" 
d="M204 0v548h-200v116h540v-116h-201v-548h-139z" />
    <glyph glyph-name="T" unicode="&#x422;" horiz-adv-x="554" 
d="M204 0v548h-200v116h540v-116h-201v-548h-139z" />
    <glyph glyph-name="T" unicode="&#x3a4;" horiz-adv-x="554" 
d="M204 0v548h-200v116h540v-116h-201v-548h-139z" />
    <glyph glyph-name="U" unicode="U" horiz-adv-x="586" 
d="M416 664h142v-443q0 -121 -71 -182.5t-202 -61.5q-121 0 -191.5 58t-70.5 178v451h141v-438q0 -62 31 -98t88 -36q133 0 133 129v443z" />
    <glyph glyph-name="V" unicode="V" horiz-adv-x="593" 
d="M228 0l-225 664h148l145 -466l144 466h144l-225 -664h-131z" />
    <glyph glyph-name="W" unicode="W" horiz-adv-x="856" 
d="M529 0l-103 432l-105 -432h-130l-188 664h148l109 -430l92 430h146l101 -430l108 430h142l-186 -664h-134z" />
    <glyph glyph-name="X" unicode="X" horiz-adv-x="605" 
d="M427 0l-127 228l-134 -228h-162l215 339l-203 325h164l120 -215l121 215h161l-202 -319l216 -345h-169z" />
    <glyph glyph-name="X" unicode="&#x425;" horiz-adv-x="605" 
d="M427 0l-127 228l-134 -228h-162l215 339l-203 325h164l120 -215l121 215h161l-202 -319l216 -345h-169z" />
    <glyph glyph-name="X" unicode="&#x3a7;" horiz-adv-x="605" 
d="M427 0l-127 228l-134 -228h-162l215 339l-203 325h164l120 -215l121 215h161l-202 -319l216 -345h-169z" />
    <glyph glyph-name="Y" unicode="Y" horiz-adv-x="602" 
d="M233 0v251l-230 413h162l140 -270l129 270h160l-222 -415v-249h-139z" />
    <glyph glyph-name="Y" unicode="&#x4ae;" horiz-adv-x="602" 
d="M233 0v251l-230 413h162l140 -270l129 270h160l-222 -415v-249h-139z" />
    <glyph glyph-name="Y" unicode="&#x3a5;" horiz-adv-x="602" 
d="M233 0v251l-230 413h162l140 -270l129 270h160l-222 -415v-249h-139z" />
    <glyph glyph-name="Z" unicode="Z" horiz-adv-x="532" 
d="M4 0v118l345 430h-335v116h509v-109l-347 -437h347v-118h-519z" />
    <glyph glyph-name="Z" unicode="&#x396;" horiz-adv-x="532" 
d="M4 0v118l345 430h-335v116h509v-109l-347 -437h347v-118h-519z" />
    <glyph glyph-name="bracketleft" unicode="[" horiz-adv-x="319" 
d="M72 -130v849h228v-89h-113v-673h113v-87h-228z" />
    <glyph glyph-name="backslash" unicode="\" horiz-adv-x="294" 
d="M187 0l-192 664h109l190 -664h-107z" />
    <glyph glyph-name="bracketright" unicode="]" horiz-adv-x="316" 
d="M10 -130v87h115v673h-115v89h230v-849h-230z" />
    <glyph glyph-name="asciicircum" unicode="^" horiz-adv-x="459" 
d="M301 473l-73 87l-75 -87h-138l165 191h93l167 -191h-139z" />
    <glyph glyph-name="underscore" unicode="_" horiz-adv-x="478" 
d="M0 -126v58h485v-58h-485z" />
    <glyph glyph-name="grave" unicode="`" horiz-adv-x="352" 
d="M50 648l47 82l207 -121l-31 -55z" />
    <glyph glyph-name="a" unicode="a" horiz-adv-x="486" 
d="M325 241q-10 -10 -29 -16t-55 -13q-56 -11 -77 -28t-21 -49q0 -55 63 -55q25 0 46.5 8.5t37 23t25 34t9.5 41.5zM334 0q-6 19 -8 44q-23 -26 -61 -41.5t-88 -15.5q-85 0 -124.5 37.5t-39.5 97.5q0 53 17 84.5t47 49.5t71.5 26.5t90.5 15.5t66 18.5t17 37.5
q0 24 -22.5 37.5t-60.5 13.5q-45 0 -64.5 -20t-24.5 -53h-121q1 38 12.5 70t37 55t66.5 35.5t100 12.5q58 0 98.5 -13t65 -37.5t35.5 -61t11 -82.5v-311h-121z" />
    <glyph glyph-name="a" unicode="&#x430;" horiz-adv-x="486" 
d="M325 241q-10 -10 -29 -16t-55 -13q-56 -11 -77 -28t-21 -49q0 -55 63 -55q25 0 46.5 8.5t37 23t25 34t9.5 41.5zM334 0q-6 19 -8 44q-23 -26 -61 -41.5t-88 -15.5q-85 0 -124.5 37.5t-39.5 97.5q0 53 17 84.5t47 49.5t71.5 26.5t90.5 15.5t66 18.5t17 37.5
q0 24 -22.5 37.5t-60.5 13.5q-45 0 -64.5 -20t-24.5 -53h-121q1 38 12.5 70t37 55t66.5 35.5t100 12.5q58 0 98.5 -13t65 -37.5t35.5 -61t11 -82.5v-311h-121z" />
    <glyph glyph-name="b" unicode="b" horiz-adv-x="524" 
d="M259 93q49 0 80 41.5t31 107.5q0 152 -112 152q-109 0 -109 -160q0 -63 31.5 -102t78.5 -39zM26 0v672h128v-244q55 77 146 77q48 0 85.5 -18.5t63.5 -52.5t39.5 -80.5t13.5 -102.5q0 -62 -16 -111t-44 -83t-67.5 -52t-85.5 -18q-92 0 -137 73l-1 -60h-125z" />
    <glyph glyph-name="c" unicode="c" horiz-adv-x="481" 
d="M469 178q-5 -43 -24.5 -78t-49.5 -60t-68.5 -39t-83.5 -14q-50 0 -91.5 16.5t-71.5 50t-46.5 83t-16.5 115.5t16.5 114t46.5 78.5t72.5 45.5t94.5 15q48 0 87.5 -13t69 -38t46.5 -60t20 -78h-131q-5 38 -30.5 59.5t-62.5 21.5q-21 0 -39 -7t-31.5 -23.5t-21.5 -44
t-8 -67.5q0 -81 29 -120t67 -39t65 21t31 61h131z" />
    <glyph glyph-name="c" unicode="&#x441;" horiz-adv-x="481" 
d="M469 178q-5 -43 -24.5 -78t-49.5 -60t-68.5 -39t-83.5 -14q-50 0 -91.5 16.5t-71.5 50t-46.5 83t-16.5 115.5t16.5 114t46.5 78.5t72.5 45.5t94.5 15q48 0 87.5 -13t69 -38t46.5 -60t20 -78h-131q-5 38 -30.5 59.5t-62.5 21.5q-21 0 -39 -7t-31.5 -23.5t-21.5 -44
t-8 -67.5q0 -81 29 -120t67 -39t65 21t31 61h131z" />
    <glyph glyph-name="d" unicode="d" horiz-adv-x="523" 
d="M259 93q47 0 78.5 39t31.5 102q0 160 -109 160q-112 0 -112 -152q0 -66 31 -107.5t80 -41.5zM367 0l-1 60q-45 -73 -137 -73q-47 0 -86 18t-67 52t-44 83t-16 111q0 56 13.5 102.5t39.5 80.5t63.5 52.5t85.5 18.5q91 0 146 -77v244h128v-672h-125z" />
    <glyph glyph-name="e" unicode="e" 
d="M350 294q-1 27 -9.5 47.5t-22.5 34t-32 20t-37 6.5q-39 0 -67.5 -28.5t-32.5 -79.5h201zM145 212q3 -56 32.5 -89t77.5 -33q32 0 56.5 14.5t31.5 40.5h134q-23 -76 -80 -117t-136 -41q-246 0 -246 268q0 57 16 103t46.5 79t74.5 50.5t101 17.5q114 0 172.5 -73t58.5 -220
h-339z" />
    <glyph glyph-name="e" unicode="&#x435;" 
d="M350 294q-1 27 -9.5 47.5t-22.5 34t-32 20t-37 6.5q-39 0 -67.5 -28.5t-32.5 -79.5h201zM145 212q3 -56 32.5 -89t77.5 -33q32 0 56.5 14.5t31.5 40.5h134q-23 -76 -80 -117t-136 -41q-246 0 -246 268q0 57 16 103t46.5 79t74.5 50.5t101 17.5q114 0 172.5 -73t58.5 -220
h-339z" />
    <glyph glyph-name="f" unicode="f" horiz-adv-x="295" 
d="M77 0v400h-73v92h73q0 180 209 180v-105q-25 0 -40.5 -3.5t-24.5 -12.5t-12.5 -23.5t-3.5 -35.5h84v-92h-84v-400h-128z" />
    <glyph glyph-name="g" unicode="g" horiz-adv-x="530" 
d="M262 98q48 0 79.5 36.5t31.5 99.5q0 158 -111 158t-111 -150q0 -66 31.5 -105t79.5 -39zM369 66q-14 -33 -50.5 -51.5t-84.5 -18.5q-61 0 -102.5 21.5t-67 56.5t-37 81t-11.5 94q0 57 17 104.5t46 81t68 52t84 18.5q92 0 138 -74v61h130v-497q0 -56 -19 -98.5t-52 -71
t-78 -43.5t-96 -15t-95 14.5t-75.5 41t-49.5 64.5t-18 86h121q0 -45 29.5 -69.5t78.5 -24.5q52 0 88 28.5t36 77.5v81z" />
    <glyph glyph-name="h" unicode="h" 
d="M341 0v305q0 56 -19.5 76.5t-64.5 20.5q-24 0 -43 -9.5t-32 -26t-19.5 -38t-6.5 -46.5v-282h-130v672h130v-244q7 16 21.5 30.5t33.5 24.5t42 16t48 6q76 0 123.5 -41.5t47.5 -115.5v-348h-131z" />
    <glyph glyph-name="h" unicode="&#x4bb;" 
d="M341 0v305q0 56 -19.5 76.5t-64.5 20.5q-24 0 -43 -9.5t-32 -26t-19.5 -38t-6.5 -46.5v-282h-130v672h130v-244q7 16 21.5 30.5t33.5 24.5t42 16t48 6q76 0 123.5 -41.5t47.5 -115.5v-348h-131z" />
    <glyph glyph-name="i" unicode="i" horiz-adv-x="192" 
d="M29 0v492h130v-492h-130zM29 551v121h130v-121h-130z" />
    <glyph glyph-name="i" unicode="&#x456;" horiz-adv-x="192" 
d="M29 0v492h130v-492h-130zM29 551v121h130v-121h-130z" />
    <glyph glyph-name="j" unicode="j" horiz-adv-x="195" 
d="M26 492h131v-525q0 -45 -15 -81.5t-41 -63t-61.5 -41t-76.5 -14.5q-101 0 -149.5 55.5t-48.5 150.5h122q0 -42 15.5 -66.5t53.5 -24.5q39 0 54.5 24t15.5 66v520zM26 551v121h131v-121h-131z" />
    <glyph glyph-name="j" unicode="&#x458;" horiz-adv-x="195" 
d="M26 492h131v-525q0 -45 -15 -81.5t-41 -63t-61.5 -41t-76.5 -14.5q-101 0 -149.5 55.5t-48.5 150.5h122q0 -42 15.5 -66.5t53.5 -24.5q39 0 54.5 24t15.5 66v520zM26 551v121h131v-121h-131z" />
    <glyph glyph-name="k" unicode="k" horiz-adv-x="483" 
d="M328 0l-108 221l-63 -65v-156h-131v672h131v-367l162 187h159l-165 -181l161 -311h-146z" />
    <glyph glyph-name="l" unicode="l" horiz-adv-x="185" 
d="M26 0v672h130v-672h-130z" />
    <glyph glyph-name="m" unicode="m" horiz-adv-x="754" 
d="M603 0v298q0 45 -21 73t-56 28q-36 0 -59.5 -30t-23.5 -75v-294h-130v296q0 30 -4 49t-13.5 30t-24.5 15.5t-36 4.5q-79 0 -79 -96v-299h-130v492h122v-72q25 49 60 67t84 18q25 0 44.5 -4t35 -13.5t29.5 -24.5t28 -36q20 41 53 59.5t80 18.5q37 0 68 -12.5t53 -35
t34.5 -52.5t12.5 -64v-341h-127z" />
    <glyph glyph-name="n" unicode="n" 
d="M341 0v298q0 57 -19 77t-65 20q-101 0 -101 -113v-282h-130v492h124v-72q23 42 61 63.5t98 21.5q35 0 65 -10.5t51.5 -31.5t34 -51.5t12.5 -70.5v-341h-131z" />
    <glyph glyph-name="o" unicode="o" horiz-adv-x="539" 
d="M268 96q119 0 119 150q0 149 -119 149t-119 -149q0 -150 119 -150zM268 -13q-60 0 -107 19t-79.5 53t-49.5 82t-17 105q0 58 17.5 106t50.5 82t79.5 52.5t105.5 18.5q58 0 104 -18.5t78.5 -52t50 -81.5t17.5 -107t-17.5 -106.5t-50 -81.5t-79 -52.5t-103.5 -18.5z" />
    <glyph glyph-name="o" unicode="&#x43e;" horiz-adv-x="539" 
d="M268 96q119 0 119 150q0 149 -119 149t-119 -149q0 -150 119 -150zM268 -13q-60 0 -107 19t-79.5 53t-49.5 82t-17 105q0 58 17.5 106t50.5 82t79.5 52.5t105.5 18.5q58 0 104 -18.5t78.5 -52t50 -81.5t17.5 -107t-17.5 -106.5t-50 -81.5t-79 -52.5t-103.5 -18.5z" />
    <glyph glyph-name="o" unicode="&#x3bf;" horiz-adv-x="539" 
d="M268 96q119 0 119 150q0 149 -119 149t-119 -149q0 -150 119 -150zM268 -13q-60 0 -107 19t-79.5 53t-49.5 82t-17 105q0 58 17.5 106t50.5 82t79.5 52.5t105.5 18.5q58 0 104 -18.5t78.5 -52t50 -81.5t17.5 -107t-17.5 -106.5t-50 -81.5t-79 -52.5t-103.5 -18.5z" />
    <glyph glyph-name="p" unicode="p" horiz-adv-x="523" 
d="M258 98q112 0 112 152q0 66 -31 107.5t-80 41.5q-47 0 -78.5 -39t-31.5 -102q0 -160 109 -160zM26 -233v725h125l1 -60q45 73 137 73q46 0 85.5 -18t67.5 -52t44 -83t16 -111q0 -56 -13.5 -102.5t-39.5 -80.5t-63.5 -52.5t-85.5 -18.5q-91 0 -146 77v-297h-128z" />
    <glyph glyph-name="p" unicode="&#x440;" horiz-adv-x="523" 
d="M258 98q112 0 112 152q0 66 -31 107.5t-80 41.5q-47 0 -78.5 -39t-31.5 -102q0 -160 109 -160zM26 -233v725h125l1 -60q45 73 137 73q46 0 85.5 -18t67.5 -52t44 -83t16 -111q0 -56 -13.5 -102.5t-39.5 -80.5t-63.5 -52.5t-85.5 -18.5q-91 0 -146 77v-297h-128z" />
    <glyph glyph-name="q" unicode="q" horiz-adv-x="513" 
d="M735 -27q0 -48 -14.5 -86t-39.5 -64.5t-59 -41t-74 -14.5t-74 15t-59 42t-39 65t-14 83v89q-55 -74 -144 -74q-48 0 -85.5 18.5t-63.5 52.5t-39.5 80.5t-13.5 102.5q0 62 16 111t44 83t67 52t86 18q92 0 137 -73l1 60h125v-521q0 -51 16.5 -70t47.5 -19q29 0 43 21t14 70
h122zM260 98q109 0 109 160q0 63 -31.5 102t-78.5 39q-49 0 -80 -41.5t-31 -107.5q0 -152 112 -152z" />
    <glyph glyph-name="r" unicode="r" horiz-adv-x="321" 
d="M26 0v492h122v-59q16 25 33.5 39t36 21.5t37.5 9.5t39 2h17v-133q-18 3 -36 3q-119 0 -119 -119v-256h-130z" />
    <glyph glyph-name="s" unicode="s" horiz-adv-x="472" 
d="M322 343q-5 36 -26 50.5t-66 14.5q-37 0 -57 -9.5t-20 -31.5t20 -33.5t60 -22.5q42 -12 80 -21.5t67 -20.5q39 -16 60 -43.5t21 -75.5q0 -77 -54.5 -120t-160.5 -43q-114 0 -174.5 48t-62.5 123h134q0 -35 27 -54t75 -19q35 0 61 11.5t26 39.5q0 26 -23.5 37t-55.5 19
q-62 15 -100 27t-64 29q-35 22 -48.5 50t-13.5 61q0 31 11 58t36 46.5t64.5 30.5t95.5 11q107 0 157.5 -41t55.5 -121h-125z" />
    <glyph glyph-name="s" unicode="&#x455;" horiz-adv-x="472" 
d="M322 343q-5 36 -26 50.5t-66 14.5q-37 0 -57 -9.5t-20 -31.5t20 -33.5t60 -22.5q42 -12 80 -21.5t67 -20.5q39 -16 60 -43.5t21 -75.5q0 -77 -54.5 -120t-160.5 -43q-114 0 -174.5 48t-62.5 123h134q0 -35 27 -54t75 -19q35 0 61 11.5t26 39.5q0 26 -23.5 37t-55.5 19
q-62 15 -100 27t-64 29q-35 22 -48.5 50t-13.5 61q0 31 11 58t36 46.5t64.5 30.5t95.5 11q107 0 157.5 -41t55.5 -121h-125z" />
    <glyph glyph-name="t" unicode="t" horiz-adv-x="453" 
d="M305 324h121v-140q0 -39 -11.5 -74.5t-36 -63t-62 -43.5t-89.5 -16q-54 0 -92 16t-62.5 43t-35.5 63t-11 76v440h128v-133h272v-92h-272v-202q0 -47 17.5 -72.5t57.5 -25.5q39 0 57.5 25t18.5 71v128z" />
    <glyph glyph-name="u" unicode="u" horiz-adv-x="500" 
d="M346 0v69q-50 -82 -153 -82q-37 0 -67.5 13t-52.5 37t-34.5 57t-12.5 74v324h130v-304q0 -92 83 -92q50 0 75.5 31.5t25.5 80.5v284h129v-492h-123z" />
    <glyph glyph-name="v" unicode="v" horiz-adv-x="501" 
d="M179 0l-176 492h145l103 -325l104 325h137l-177 -492h-136z" />
    <glyph glyph-name="v" unicode="&#x3bd;" horiz-adv-x="501" 
d="M179 0l-176 492h145l103 -325l104 325h137l-177 -492h-136z" />
    <glyph glyph-name="w" unicode="w" horiz-adv-x="714" 
d="M432 0l-78 286l-78 -286h-133l-140 492h137l80 -316l68 316h132l77 -316l75 316h134l-141 -492h-133z" />
    <glyph glyph-name="x" unicode="x" horiz-adv-x="496" 
d="M329 0l-86 148l-84 -148h-156l165 251l-160 241h157l83 -143l84 143h151l-163 -241l168 -251h-159z" />
    <glyph glyph-name="x" unicode="&#x445;" horiz-adv-x="496" 
d="M329 0l-86 148l-84 -148h-156l165 251l-160 241h157l83 -143l84 143h151l-163 -241l168 -251h-159z" />
    <glyph glyph-name="y" unicode="y" horiz-adv-x="502" 
d="M339 65q-14 -33 -50.5 -51.5t-82.5 -18.5q-39 0 -72 12.5t-57 36t-37.5 56t-13.5 73.5v319h130v-300q0 -92 83 -92q45 0 72.5 26t27.5 66v300h130v-505q0 -52 -17.5 -93t-48 -69t-72 -43t-88.5 -15q-109 0 -163 55t-54 151h121q0 -44 25.5 -69t76.5 -25q18 0 34 7.5
t28.5 21t20 33.5t7.5 44v80z" />
    <glyph glyph-name="y" unicode="&#x443;" horiz-adv-x="502" 
d="M339 65q-14 -33 -50.5 -51.5t-82.5 -18.5q-39 0 -72 12.5t-57 36t-37.5 56t-13.5 73.5v319h130v-300q0 -92 83 -92q45 0 72.5 26t27.5 66v300h130v-505q0 -52 -17.5 -93t-48 -69t-72 -43t-88.5 -15q-109 0 -163 55t-54 151h121q0 -44 25.5 -69t76.5 -25q18 0 34 7.5
t28.5 21t20 33.5t7.5 44v80z" />
    <glyph glyph-name="z" unicode="z" horiz-adv-x="445" 
d="M9 0v100l251 289h-234v103h400v-105l-251 -281h258v-106h-424z" />
    <glyph glyph-name="braceleft" unicode="{" horiz-adv-x="334" 
d="M277 -131q-54 0 -87.5 9.5t-52 29t-24.5 49.5t-6 70q0 9 1 26t1.5 36t1.5 35.5t1 23.5q0 58 -17.5 81t-64.5 23v86q47 0 64.5 23.5t17.5 81.5q0 7 -1 23.5t-1.5 34.5t-1.5 35t-1 26q0 40 6 70t24.5 49.5t52 29t87.5 9.5h37v-82h-22q-44 0 -59.5 -14t-15.5 -49
q0 -45 3 -89t3 -89q0 -21 -9 -38.5t-23.5 -31t-34 -21.5t-40.5 -11q21 -3 40.5 -11t34 -21.5t23.5 -31t9 -38.5q0 -45 -3 -89.5t-3 -89.5q0 -35 15.5 -49t59.5 -14h22v-82h-37z" />
    <glyph glyph-name="bar" unicode="|" horiz-adv-x="338" 
d="M116 -125v861h102v-861h-102z" />
    <glyph glyph-name="braceright" unicode="}" horiz-adv-x="330" 
d="M10 -131v82h22q44 0 59.5 14t15.5 49q0 45 -3 89.5t-3 89.5q0 21 9 38.5t23.5 31t34 21.5t40.5 11q-21 3 -40.5 11t-34 21.5t-23.5 31t-9 38.5q0 45 3 89t3 89q0 35 -15.5 49t-59.5 14h-22v82h37q54 0 87.5 -9.5t52 -29t24.5 -49.5t6 -70q0 -9 -1 -26t-1.5 -35
t-1.5 -34.5t-1 -23.5q0 -58 17.5 -81.5t64.5 -23.5v-86q-47 0 -64.5 -23t-17.5 -81q0 -7 1 -23.5t1.5 -35.5t1.5 -36t1 -26q0 -40 -6 -70t-24.5 -49.5t-52 -29t-87.5 -9.5h-37z" />
    <glyph glyph-name="asciitilde" unicode="~" horiz-adv-x="555" 
d="M525 305q-32 -35 -67 -51t-81 -16q-30 0 -57.5 9t-54 20t-52.5 20t-52 9q-42 0 -74 -19t-62 -57v101q22 26 54 46.5t78 20.5q36 0 66.5 -9t57.5 -19.5t52 -19.5t50 -9q42 0 76.5 16.5t65.5 58.5v-101z" />
    <glyph glyph-name="nonbreakingspace" unicode="&#xa0;" horiz-adv-x="241" 
 />
    <glyph glyph-name="exclamdown" unicode="&#xa1;" horiz-adv-x="245" 
d="M51 0zM193.003 664v-130.992h-134.991v130.992h134.991zM159.005 480.012q19.999 -119.993 29.499 -221.987q9.49902 -101.993 9.49902 -186.988q0 -19.999 -0.5 -37.998q-0.5 -17.998 -4.5 -32.9971h-137.991q-2 16.998 -3 35.4971t-1 38.498q0 82.9951 9.5 184.488
q9.49902 101.494 29.498 221.487h68.9951z" />
    <glyph glyph-name="cent" unicode="&#xa2;" horiz-adv-x="481" 
d="M222 0v70q-46 3 -84 21.5t-65 51.5t-41.5 81t-14.5 111q0 124 56 185t149 68v76h47v-76q87 -6 141 -56t60 -132h-131q-5 32 -23.5 52t-46.5 25v-296q28 7 47 27.5t22 52.5h131q-5 -39 -22 -72.5t-43 -58t-60.5 -40t-74.5 -19.5v-71h-47zM222 478q-33 -7 -54.5 -39
t-21.5 -101q0 -71 22 -109.5t54 -47.5v297z" />
    <glyph glyph-name="sterling" unicode="&#xa3;" horiz-adv-x="482" 
d="M26 0v484q0 91 55 146.5t163 55.5q48 0 87 -9.5t66 -33t42 -62.5t15 -99v-77h-131v76q0 46 -15 68.5t-64 22.5q-25 0 -40.5 -5.5t-24 -16.5t-11.5 -28t-3 -40v-133h290v-82h-290v-146h290v-121h-429z" />
    <glyph glyph-name="currency" unicode="&#xa4;" horiz-adv-x="534" 
d="M380 164q-25 -15 -53 -23.5t-59 -8.5t-59.5 8.5t-52.5 23.5l-63 -68l-72 72l68 63q-15 24 -23.5 52.5t-8.5 59.5t8.5 59t23.5 53l-67 62l71 71l61 -66q25 16 53.5 24.5t60.5 8.5q31 0 59.5 -8.5t53.5 -24.5l61 66l71 -71l-66 -61q16 -25 24.5 -53.5t8.5 -59.5
q0 -63 -33 -113l67 -62l-71 -72zM416 343q0 31 -11.5 58t-31.5 47t-47 31.5t-58 11.5t-57.5 -11.5t-46.5 -31.5t-31.5 -47t-11.5 -58t11.5 -57.5t31.5 -46.5t46.5 -31.5t57.5 -11.5t58 11.5t47 31.5t31.5 46.5t11.5 57.5z" />
    <glyph glyph-name="yen" unicode="&#xa5;" horiz-adv-x="534" 
d="M319 80v-80h-108v80h-145v76h145v61h-145v75h145v66l-194 306h117l130 -219l131 219h116l-192 -306v-66h145v-75h-145v-61h145v-76h-145z" />
    <glyph glyph-name="brokenbar" unicode="&#xa6;" horiz-adv-x="338" 
d="M116 -125v411h102v-411h-102zM218 339h-102v397h102v-397z" />
    <glyph glyph-name="section" unicode="&#xa7;" horiz-adv-x="535" 
d="M364 492q-5 44 -31.5 64.5t-80.5 20.5q-100 0 -100 -68q0 -24 20.5 -40.5t66.5 -27.5q54 -13 93.5 -24t72.5 -25q19 -8 35 -19.5t28 -28t18.5 -40.5t6.5 -57q0 -34 -12 -61.5t-33 -48.5q17 -17 27 -43.5t10 -68.5q0 -40 -17 -71.5t-45.5 -53t-67 -32.5t-81.5 -11
q-243 0 -249 187h113q1 -43 35 -68t85 -25q56 0 84.5 20.5t28.5 54.5q0 28 -16.5 46t-69.5 29q-65 14 -112 28t-77 34.5t-44 50t-14 74.5q0 33 11.5 62t34.5 51q-20 20 -29.5 45.5t-9.5 63.5q0 35 13 65t38.5 52.5t64.5 35.5t91 13q102 0 161 -50t62 -134h-111zM344 190
q35 19 35 58q0 28 -16.5 46t-70.5 29q-27 5 -52.5 12t-47.5 14q-47 -15 -47 -62q0 -24 20.5 -40.5t65.5 -27.5q34 -8 61.5 -14.5t51.5 -14.5z" />
    <glyph glyph-name="dieresis" unicode="&#xa8;" horiz-adv-x="421" 
d="M50 579v124h130v-124h-130zM250 579v124h130v-124h-130z" />
    <glyph glyph-name="copyright" unicode="&#xa9;" horiz-adv-x="673" 
d="M333 -9q-66 0 -123.5 27t-101 73.5t-68.5 108.5t-25 133q0 70 25 132.5t68.5 108.5t101 73t123.5 27t124 -27t101 -73t68 -108.5t25 -132.5q0 -71 -25 -133t-68 -108.5t-101 -73.5t-124 -27zM335 44q55 0 104 22.5t85.5 61.5t58 91.5t21.5 112.5q0 59 -21.5 111.5t-58 92
t-85.5 62.5t-104 23q-56 0 -105 -23t-85 -62.5t-57 -92t-21 -111.5q0 -60 21 -112.5t57 -91.5t85 -61.5t105 -22.5zM390 369q-4 19 -17.5 29.5t-30.5 10.5q-25 0 -40 -20.5t-15 -52.5q0 -82 53 -82q18 0 32 11.5t16 32.5h72q-5 -45 -39.5 -73t-83.5 -28q-60 0 -91.5 35.5
t-31.5 95.5q0 66 32 102.5t94 36.5q52 0 85 -26.5t36 -71.5h-71z" />
    <glyph glyph-name="ordfeminine" unicode="&#xaa;" horiz-adv-x="328" 
d="M209 433q-9 -10 -25.5 -13.5t-33 -7.5t-29 -12t-12.5 -26q0 -30 34 -30q29 0 46.5 17.5t18.5 41.5zM214 300q-4 12 -5 24q-13 -14 -33.5 -22.5t-48.5 -8.5q-46 0 -68 20.5t-22 53.5q0 29 9 46.5t25.5 27.5t39.5 14.5t50 8.5t36.5 10.5t9.5 20.5q0 13 -12.5 20.5
t-33.5 7.5q-24 0 -35 -11t-14 -29h-66q1 42 27.5 68.5t91.5 26.5t90 -28t25 -79v-171h-66z" />
    <glyph glyph-name="guillemotleft" unicode="&#xab;" horiz-adv-x="465" 
d="M13 145zM245 317l143 174l63 -68l-94 -106l94 -105l-63 -67zM13 317l143 174l63 -68l-94 -106l94 -105l-63 -67z" />
    <glyph glyph-name="logicalnot" unicode="&#xac;" horiz-adv-x="589" 
d="M440 0v374h-415v118h533v-492h-118z" />
    <glyph glyph-name="registered" unicode="&#xae;" horiz-adv-x="454" 
d="M425 494q0 -40 -15 -74.5t-41 -60.5t-61 -41t-75 -15t-74.5 15t-60.5 41t-41 60.5t-15 74.5t15 75t41 61t60.5 41t74.5 15t75 -15t61 -41t41 -61t15 -75zM394 494q0 33 -12.5 62.5t-34.5 51.5t-51.5 34.5t-62.5 12.5t-62.5 -12.5t-51.5 -34.5t-34.5 -51.5t-12.5 -62.5
t12.5 -62.5t34.5 -51.5t51.5 -34.5t62.5 -12.5t62.5 12.5t51.5 34.5t34.5 51.5t12.5 62.5zM204 560v-47h46q14 0 20.5 6.5t6.5 16.5q0 11 -6 17.5t-20 6.5h-47zM270 415v45q0 13 -5.5 18.5t-21.5 5.5h-39v-69h-36v175h89q25 0 39.5 -14.5t14.5 -36.5q0 -14 -6.5 -24.5
t-19.5 -15.5q12 -4 16.5 -11.5t4.5 -22.5v-50h-36z" />
    <glyph glyph-name="macron" unicode="&#xaf;" horiz-adv-x="478" 
d="M50 602v91h381v-91h-381z" />
    <glyph glyph-name="degree" unicode="&#xb0;" horiz-adv-x="375" 
d="M183 355q-41 0 -69.5 12.5t-46.5 34t-26.5 50.5t-8.5 62t8.5 62t26.5 50.5t46.5 33.5t69.5 12q40 0 69 -12t47.5 -33.5t27 -50.5t8.5 -62t-8.5 -62t-27 -50.5t-47.5 -34t-69 -12.5zM183 418q45 0 64 28.5t19 68.5t-19 68t-64 28t-64 -28t-19 -68t19 -68.5t64 -28.5z" />
    <glyph glyph-name="plusminus" unicode="&#xb1;" horiz-adv-x="523" 
d="M23 0zM211 107v189h-188v94h188v188h94v-188h189v-94h-189v-189h-94zM23 -26v94h471v-94h-471z" />
    <glyph glyph-name="twosuperior" unicode="&#xb2;" horiz-adv-x="262" 
d="M17 343zM17 343q0 23 3.5 43t14.5 39.5t30.5 39.5t51.5 43q35 26 48 42t13 37q0 25 -13 34t-33 9q-22 0 -35 -12.5t-13 -46.5h-63q0 54 28.5 84.5t79.5 30.5t82 -24t31 -73q0 -19 -5 -34.5t-16.5 -30.5t-29.5 -30.5t-45 -34.5q-20 -14 -32.5 -30.5t-13.5 -29.5h143v-56
h-226z" />
    <glyph glyph-name="threesuperior" unicode="&#xb3;" horiz-adv-x="269" 
d="M21 331zM107 537q42 0 54.5 13.5t12.5 32.5q0 51 -43 51q-19 0 -31.5 -14.5t-12.5 -40.5h-60q0 48 29.5 77.5t77.5 29.5q43 0 73 -25t30 -66q0 -23 -9.5 -43t-29.5 -31q23 -10 36 -30t13 -52q0 -51 -32 -79.5t-85 -28.5q-52 0 -80.5 29t-28.5 80h63q0 -55 49 -55
q20 0 34 14.5t14 40.5q0 29 -16.5 40.5t-57.5 11.5v45z" />
    <glyph glyph-name="acute" unicode="&#xb4;" horiz-adv-x="352" 
d="M81 554l-31 55l207 121l47 -82z" />
    <glyph glyph-name="paragraph" unicode="&#xb6;" horiz-adv-x="579" 
d="M408 -100v696h-162v-696h-109v564q-62 9 -86 40t-24 68q0 24 9.5 44.5t30 36t51.5 24.5t74 9h372l-48 -91v-695h-108z" />
    <glyph glyph-name="periodcentered" unicode="&#xb7;" horiz-adv-x="187" 
d="M23 265v135h139v-135h-139z" />
    <glyph glyph-name="cedilla" unicode="&#xb8;" horiz-adv-x="207" 
d="M50 -190q62 5 64 65h-64v82h115v-54q0 -27 -5.5 -50.5t-18.5 -41.5t-35.5 -29.5t-55.5 -14.5v43z" />
    <glyph glyph-name="onesuperior" unicode="&#xb9;" horiz-adv-x="178" 
d="M17 343zM85 343v229h-68v45q43 0 60 14.5t20 43.5h53v-332h-65z" />
    <glyph glyph-name="ordmasculine" unicode="&#xba;" horiz-adv-x="356" 
d="M177 353q66 0 66 82t-66 82q-65 0 -65 -82t65 -82zM177 293q-66 0 -102.5 39.5t-36.5 102.5q0 65 37.5 104t101.5 39t101 -38.5t37 -104.5q0 -64 -37 -103t-101 -39z" />
    <glyph glyph-name="guillemotright" unicode="&#xbb;" horiz-adv-x="465" 
d="M13 145zM245 212l94 105l-94 106l63 68l143 -174l-143 -172zM13 212l94 105l-94 106l63 68l143 -174l-143 -172z" />
    <glyph glyph-name="onequarter" unicode="&#xbc;" horiz-adv-x="615" 
d="M19 0zM30 -20l461 704h68l-462 -704h-67zM87 343v229h-68v45q43 0 60 14.5t20 43.5h53v-332h-65zM498 230l-68 -117h68v117zM497 -10v72h-129v57l121 203h73v-209h37v-51h-37v-72h-65z" />
    <glyph glyph-name="onehalf" unicode="&#xbd;" horiz-adv-x="623" 
d="M19 0zM26 -20l461 704h68l-462 -704h-67zM87 343v229h-68v45q43 0 60 14.5t20 43.5h53v-332h-65zM381 -10q0 23 3.5 43t14.5 39.5t30.5 39.5t51.5 43q35 26 48 42t13 37q0 25 -13 34t-33 9q-22 0 -35 -12.5t-13 -46.5h-63q0 54 28.5 84.5t79.5 30.5t82 -24t31 -73
q0 -19 -5 -34.5t-16.5 -30.5t-29.5 -30.5t-45 -34.5q-20 -14 -32.5 -30.5t-13.5 -29.5h143v-56h-226z" />
    <glyph glyph-name="threequarters" unicode="&#xbe;" horiz-adv-x="633" 
d="M19 0zM62 -20l461 704h68l-462 -704h-67zM515 230l-68 -117h68v117zM514 -10v72h-129v57l121 203h73v-209h37v-51h-37v-72h-65zM105 537q42 0 54.5 13.5t12.5 32.5q0 51 -43 51q-19 0 -31.5 -14.5t-12.5 -40.5h-60q0 48 29.5 77.5t77.5 29.5q43 0 73 -25t30 -66
q0 -23 -9.5 -43t-29.5 -31q23 -10 36 -30t13 -52q0 -51 -32 -79.5t-85 -28.5q-52 0 -80.5 29t-28.5 80h63q0 -55 49 -55q20 0 34 14.5t14 40.5q0 29 -16.5 40.5t-57.5 11.5v45z" />
    <glyph glyph-name="questiondown" unicode="&#xbf;" horiz-adv-x="491" 
d="M18 0zM312.011 664v-130.992h-134.991v130.992h134.991zM308.011 471.012q0 -58.9961 -8.99902 -94.9941t-34.998 -65.9961q-14.999 -17.999 -33.998 -30.998q-18.998 -12.999 -34.998 -27.498q-15.998 -14.499 -26.998 -32.498q-10.999 -17.999 -10.999 -46.9971
q0 -48.9971 26.998 -68.4961q26.999 -19.499 63.9961 -19.499q52.9971 0 72.9961 29.498q19.998 29.499 24.998 79.4951h128.992q0 -48.9971 -15.999 -88.9941t-45.4971 -67.9961q-29.498 -27.998 -70.9961 -42.9971q-41.4971 -14.999 -91.4941 -14.999
q-107.993 0 -170.489 43.9971t-62.4961 142.991q0 31.998 6.49902 55.9971q6.5 23.998 19.499 43.4971t31.998 36.498t42.9971 34.9971q21.999 16.999 35.498 31.499q13.499 14.499 20.499 30.498q6.99902 15.999 8.99902 33.498q2 17.498 2 39.4971h121.992z" />
    <glyph glyph-name="Agrave" unicode="&#xc0;" horiz-adv-x="643" 
d="M3 0zM319 515h-1l-85 -264h169zM484 0l-42 137h-245l-47 -137h-147l237 664h161l234 -664h-151zM166 820l47 82l207 -121l-31 -55z" />
    <glyph glyph-name="Aacute" unicode="&#xc1;" horiz-adv-x="643" 
d="M3 0zM319 515h-1l-85 -264h169zM484 0l-42 137h-245l-47 -137h-147l237 664h161l234 -664h-151zM257 726l-31 55l207 121l47 -82z" />
    <glyph glyph-name="Acircumflex" unicode="&#xc2;" horiz-adv-x="643" 
d="M3 0zM319 515h-1l-85 -264h169zM484 0l-42 137h-245l-47 -137h-147l237 664h161l234 -664h-151zM322 851l-135 -118l-46 51l128 134h106l128 -134l-46 -51z" />
    <glyph glyph-name="Atilde" unicode="&#xc3;" horiz-adv-x="643" 
d="M3 0zM319 515h-1l-85 -264h169zM484 0l-42 137h-245l-47 -137h-147l237 664h161l234 -664h-151zM495 846q-17 -54 -47 -76t-62 -22q-19 0 -35.5 7t-31.5 15.5t-30 15.5t-31 7q-6 0 -18 -8t-21 -36l-69 37q16 49 41 68.5t56 19.5q23 0 41 -7.5t34 -16.5t30 -16.5t28 -7.5
q9 0 22 10.5t18 36.5z" />
    <glyph glyph-name="Adieresis" unicode="&#xc4;" horiz-adv-x="643" 
d="M3 0zM319 515h-1l-85 -264h169zM484 0l-42 137h-245l-47 -137h-147l237 664h161l234 -664h-151zM161 751v124h130v-124h-130zM361 751v124h130v-124h-130z" />
    <glyph glyph-name="Aring" unicode="&#xc5;" horiz-adv-x="643" 
d="M3 0zM319 515h-1l-85 -264h169zM484 0l-42 137h-245l-47 -137h-147l237 664h161l234 -664h-151zM426 822q0 -47 -24 -71.5t-80 -24.5q-104 0 -104 96q0 46 25.5 71t78.5 25q56 0 80 -25t24 -71zM374 822q0 51 -52 51q-50 0 -50 -51q0 -49 50 -49q52 0 52 49z" />
    <glyph glyph-name="AE" unicode="&#xc6;" horiz-adv-x="885" 
d="M374 0v137h-177l-47 -137h-147l237 664h625v-116h-353v-142h325v-117h-325v-171h369v-118h-507zM374 548h-44l-97 -297h141v297z" />
    <glyph glyph-name="Ccedilla" unicode="&#xc7;" horiz-adv-x="613" 
d="M15 0zM608 228q-11 -57 -35 -103t-60.5 -79t-84.5 -51t-106 -18q-65 0 -121.5 22t-97.5 66t-64.5 108.5t-23.5 150.5q0 84 21.5 151.5t61.5 114t97.5 71.5t128.5 25q62 0 112.5 -18.5t87 -51t58 -76.5t26.5 -94h-139q-14 57 -54 88.5t-90 31.5q-87 0 -128 -62.5
t-41 -171.5q0 -111 40.5 -172.5t121.5 -61.5q62 0 99.5 33.5t51.5 96.5h139zM268 -190q62 5 64 65h-64v82h115v-54q0 -27 -5.5 -50.5t-18.5 -41.5t-35.5 -29.5t-55.5 -14.5v43z" />
    <glyph glyph-name="Egrave" unicode="&#xc8;" horiz-adv-x="532" 
d="M23 0zM23 0v664h488v-116h-353v-142h325v-117h-325v-171h369v-118h-504zM110 820l47 82l207 -121l-31 -55z" />
    <glyph glyph-name="Egrave" unicode="&#x400;" horiz-adv-x="532" 
d="M23 0zM23 0v664h488v-116h-353v-142h325v-117h-325v-171h369v-118h-504zM110 820l47 82l207 -121l-31 -55z" />
    <glyph glyph-name="Eacute" unicode="&#xc9;" horiz-adv-x="532" 
d="M23 0zM23 0v664h488v-116h-353v-142h325v-117h-325v-171h369v-118h-504zM201 726l-31 55l207 121l47 -82z" />
    <glyph glyph-name="Ecircumflex" unicode="&#xca;" horiz-adv-x="532" 
d="M23 0zM23 0v664h488v-116h-353v-142h325v-117h-325v-171h369v-118h-504zM277 851l-135 -118l-46 51l128 134h106l128 -134l-46 -51z" />
    <glyph glyph-name="Edieresis" unicode="&#xcb;" horiz-adv-x="532" 
d="M23 0zM23 0v664h488v-116h-353v-142h325v-117h-325v-171h369v-118h-504zM114 751v124h130v-124h-130zM314 751v124h130v-124h-130z" />
    <glyph glyph-name="Edieresis" unicode="&#x401;" horiz-adv-x="532" 
d="M23 0zM23 0v664h488v-116h-353v-142h325v-117h-325v-171h369v-118h-504zM114 751v124h130v-124h-130zM314 751v124h130v-124h-130z" />
    <glyph glyph-name="Igrave" unicode="&#xcc;" horiz-adv-x="187" 
d="M0 0zM23 0v664h139v-664h-139zM-62 820l47 82l207 -121l-31 -55z" />
    <glyph glyph-name="Iacute" unicode="&#xcd;" horiz-adv-x="187" 
d="M0 0zM23 0v664h139v-664h-139zM29 726l-31 55l207 121l47 -82z" />
    <glyph glyph-name="Icircumflex" unicode="&#xce;" horiz-adv-x="187" 
d="M0 0zM23 0v664h139v-664h-139zM95 851l-135 -118l-46 51l128 134h106l128 -134l-46 -51z" />
    <glyph glyph-name="Idieresis" unicode="&#xcf;" horiz-adv-x="187" 
d="M0 0zM23 0v664h139v-664h-139zM-66 751v124h130v-124h-130zM134 751v124h130v-124h-130z" />
    <glyph glyph-name="Idieresis" unicode="&#x407;" horiz-adv-x="187" 
d="M0 0zM23 0v664h139v-664h-139zM-66 751v124h130v-124h-130zM134 751v124h130v-124h-130z" />
    <glyph glyph-name="Idieresis" unicode="&#x3aa;" horiz-adv-x="187" 
d="M0 0zM23 0v664h139v-664h-139zM-66 751v124h130v-124h-130zM134 751v124h130v-124h-130z" />
    <glyph glyph-name="Eth" unicode="&#xd0;" horiz-adv-x="607" 
d="M23 0v282h-23v99h23v283h257q67 0 124 -22.5t97.5 -64.5t63.5 -102t23 -136t-20.5 -138.5t-58.5 -107t-91 -69t-117 -24.5h-278zM273 113q91 0 132 56.5t41 169.5q0 56 -10 96t-32.5 65.5t-57.5 37t-85 11.5h-103v-168h107v-99h-107v-169h115z" />
    <glyph glyph-name="Eth" unicode="&#x110;" horiz-adv-x="607" 
d="M23 0v282h-23v99h23v283h257q67 0 124 -22.5t97.5 -64.5t63.5 -102t23 -136t-20.5 -138.5t-58.5 -107t-91 -69t-117 -24.5h-278zM273 113q91 0 132 56.5t41 169.5q0 56 -10 96t-32.5 65.5t-57.5 37t-85 11.5h-103v-168h107v-99h-107v-169h115z" />
    <glyph glyph-name="Ntilde" unicode="&#xd1;" horiz-adv-x="591" 
d="M23 0zM436 0l-284 446v-446h-129v664h147l264 -427v427h130v-664h-128zM469 846q-17 -54 -47 -76t-62 -22q-19 0 -35.5 7t-31.5 15.5t-30 15.5t-31 7q-6 0 -18 -8t-21 -36l-69 37q16 49 41 68.5t56 19.5q23 0 41 -7.5t34 -16.5t30 -16.5t28 -7.5q9 0 22 10.5t18 36.5z
" />
    <glyph glyph-name="Ograve" unicode="&#xd2;" horiz-adv-x="670" 
d="M15 0zM334 96q37 0 70 13.5t57.5 41t38.5 70.5t14 102q0 118 -46 179t-134 61t-135 -61t-47 -179t47.5 -172.5t134.5 -54.5zM334 -23q-154 0 -236.5 90t-82.5 259q0 84 21 151t62 113.5t100 71t136 24.5q76 0 135.5 -24.5t99.5 -71.5t61 -114.5t21 -152.5
q0 -172 -81.5 -259t-235.5 -87zM179 820l47 82l207 -121l-31 -55z" />
    <glyph glyph-name="Oacute" unicode="&#xd3;" horiz-adv-x="670" 
d="M15 0zM334 96q37 0 70 13.5t57.5 41t38.5 70.5t14 102q0 118 -46 179t-134 61t-135 -61t-47 -179t47.5 -172.5t134.5 -54.5zM334 -23q-154 0 -236.5 90t-82.5 259q0 84 21 151t62 113.5t100 71t136 24.5q76 0 135.5 -24.5t99.5 -71.5t61 -114.5t21 -152.5
q0 -172 -81.5 -259t-235.5 -87zM270 726l-31 55l207 121l47 -82z" />
    <glyph glyph-name="Ocircumflex" unicode="&#xd4;" horiz-adv-x="670" 
d="M15 0zM334 96q37 0 70 13.5t57.5 41t38.5 70.5t14 102q0 118 -46 179t-134 61t-135 -61t-47 -179t47.5 -172.5t134.5 -54.5zM334 -23q-154 0 -236.5 90t-82.5 259q0 84 21 151t62 113.5t100 71t136 24.5q76 0 135.5 -24.5t99.5 -71.5t61 -114.5t21 -152.5
q0 -172 -81.5 -259t-235.5 -87zM336 851l-135 -118l-46 51l128 134h106l128 -134l-46 -51z" />
    <glyph glyph-name="Otilde" unicode="&#xd5;" horiz-adv-x="670" 
d="M15 0zM334 96q37 0 70 13.5t57.5 41t38.5 70.5t14 102q0 118 -46 179t-134 61t-135 -61t-47 -179t47.5 -172.5t134.5 -54.5zM334 -23q-154 0 -236.5 90t-82.5 259q0 84 21 151t62 113.5t100 71t136 24.5q76 0 135.5 -24.5t99.5 -71.5t61 -114.5t21 -152.5
q0 -172 -81.5 -259t-235.5 -87zM506 844q-17 -54 -47 -76t-62 -22q-19 0 -35.5 7t-31.5 15.5t-30 15.5t-31 7q-6 0 -18 -8t-21 -36l-69 37q16 49 41 68.5t56 19.5q23 0 41 -7.5t34 -16.5t30 -16.5t28 -7.5q9 0 22 10.5t18 36.5z" />
    <glyph glyph-name="Odieresis" unicode="&#xd6;" horiz-adv-x="670" 
d="M15 0zM334 96q37 0 70 13.5t57.5 41t38.5 70.5t14 102q0 118 -46 179t-134 61t-135 -61t-47 -179t47.5 -172.5t134.5 -54.5zM334 -23q-154 0 -236.5 90t-82.5 259q0 84 21 151t62 113.5t100 71t136 24.5q76 0 135.5 -24.5t99.5 -71.5t61 -114.5t21 -152.5
q0 -172 -81.5 -259t-235.5 -87zM175 751v124h130v-124h-130zM375 751v124h130v-124h-130z" />
    <glyph glyph-name="multiply" unicode="&#xd7;" horiz-adv-x="523" 
d="M391 143l-134 133l-133 -133l-66 67l133 133l-133 133l66 66l133 -133l134 134l66 -67l-133 -133l133 -134z" />
    <glyph glyph-name="Oslash" unicode="&#xd8;" horiz-adv-x="670" 
d="M111 -14l24 48q-59 44 -89.5 117t-30.5 175q0 84 21 151t62 113.5t100 71t136 24.5q33 0 62.5 -5t56.5 -14l24 48l74 -27l-28 -56q63 -45 95.5 -123t32.5 -186q0 -172 -81.5 -259t-235.5 -87q-38 0 -71 5.5t-62 16.5l-20 -40zM257 109q32 -13 77 -13q37 0 70 13.5
t57.5 41t38.5 70.5t14 102q0 126 -53 187zM396 553q-14 5 -29.5 7.5t-32.5 2.5q-88 0 -135 -61t-47 -179q0 -111 44 -167z" />
    <glyph glyph-name="Ugrave" unicode="&#xd9;" horiz-adv-x="586" 
d="M23 0zM416 664h142v-443q0 -121 -71 -182.5t-202 -61.5q-121 0 -191.5 58t-70.5 178v451h141v-438q0 -62 31 -98t88 -36q133 0 133 129v443zM137 820l47 82l207 -121l-31 -55z" />
    <glyph glyph-name="Uacute" unicode="&#xda;" horiz-adv-x="586" 
d="M23 0zM416 664h142v-443q0 -121 -71 -182.5t-202 -61.5q-121 0 -191.5 58t-70.5 178v451h141v-438q0 -62 31 -98t88 -36q133 0 133 129v443zM228 726l-31 55l207 121l47 -82z" />
    <glyph glyph-name="Ucircumflex" unicode="&#xdb;" horiz-adv-x="586" 
d="M23 0zM416 664h142v-443q0 -121 -71 -182.5t-202 -61.5q-121 0 -191.5 58t-70.5 178v451h141v-438q0 -62 31 -98t88 -36q133 0 133 129v443zM294 851l-135 -118l-46 51l128 134h106l128 -134l-46 -51z" />
    <glyph glyph-name="Udieresis" unicode="&#xdc;" horiz-adv-x="586" 
d="M23 0zM416 664h142v-443q0 -121 -71 -182.5t-202 -61.5q-121 0 -191.5 58t-70.5 178v451h141v-438q0 -62 31 -98t88 -36q133 0 133 129v443zM132 751v124h130v-124h-130zM332 751v124h130v-124h-130z" />
    <glyph glyph-name="Yacute" unicode="&#xdd;" horiz-adv-x="602" 
d="M3 0zM233 0v251l-230 413h162l140 -270l129 270h160l-222 -415v-249h-139zM243 726l-31 55l207 121l47 -82z" />
    <glyph glyph-name="Thorn" unicode="&#xde;" horiz-adv-x="534" 
d="M294 251q49 0 81 27.5t32 70.5q0 42 -30.5 69t-82.5 27h-132v-194h132zM162 137v-137h-139v664h139v-103h167q44 0 80.5 -17t63 -46t41.5 -68t15 -84t-15 -83.5t-42 -66.5t-64.5 -43.5t-83.5 -15.5h-162z" />
    <glyph glyph-name="germandbls" unicode="&#xdf;" horiz-adv-x="510" 
d="M218 96q7 -1 14 -1.5t14 -0.5q57 0 90 31.5t33 80.5q0 33 -10.5 55.5t-29 36t-45 20t-58.5 7.5v82q31 1 50.5 7.5t31 17.5t16 26t4.5 33q0 47 -26 65.5t-61 18.5q-36 0 -61.5 -20t-25.5 -64v-491h-128v498q0 40 13.5 73.5t41 57.5t68.5 37t97 13q55 0 95 -13t66.5 -36
t39 -55t12.5 -70q0 -28 -5.5 -48t-15 -34t-21.5 -24t-25 -18q32 -14 52.5 -32.5t32 -39.5t16 -45.5t4.5 -50.5q0 -53 -15.5 -94.5t-44.5 -71t-70 -45t-92 -15.5q-38 0 -57 4v105z" />
    <glyph glyph-name="agrave" unicode="&#xe0;" horiz-adv-x="486" 
d="M13 0zM325 241q-10 -10 -29 -16t-55 -13q-56 -11 -77 -28t-21 -49q0 -55 63 -55q25 0 46.5 8.5t37 23t25 34t9.5 41.5zM334 0q-6 19 -8 44q-23 -26 -61 -41.5t-88 -15.5q-85 0 -124.5 37.5t-39.5 97.5q0 53 17 84.5t47 49.5t71.5 26.5t90.5 15.5t66 18.5t17 37.5
q0 24 -22.5 37.5t-60.5 13.5q-45 0 -64.5 -20t-24.5 -53h-121q1 38 12.5 70t37 55t66.5 35.5t100 12.5q58 0 98.5 -13t65 -37.5t35.5 -61t11 -82.5v-311h-121zM87 648l47 82l207 -121l-31 -55z" />
    <glyph glyph-name="aacute" unicode="&#xe1;" horiz-adv-x="486" 
d="M13 0zM325 241q-10 -10 -29 -16t-55 -13q-56 -11 -77 -28t-21 -49q0 -55 63 -55q25 0 46.5 8.5t37 23t25 34t9.5 41.5zM334 0q-6 19 -8 44q-23 -26 -61 -41.5t-88 -15.5q-85 0 -124.5 37.5t-39.5 97.5q0 53 17 84.5t47 49.5t71.5 26.5t90.5 15.5t66 18.5t17 37.5
q0 24 -22.5 37.5t-60.5 13.5q-45 0 -64.5 -20t-24.5 -53h-121q1 38 12.5 70t37 55t66.5 35.5t100 12.5q58 0 98.5 -13t65 -37.5t35.5 -61t11 -82.5v-311h-121zM178 554l-31 55l207 121l47 -82z" />
    <glyph glyph-name="acircumflex" unicode="&#xe2;" horiz-adv-x="486" 
d="M13 0zM325 241q-10 -10 -29 -16t-55 -13q-56 -11 -77 -28t-21 -49q0 -55 63 -55q25 0 46.5 8.5t37 23t25 34t9.5 41.5zM334 0q-6 19 -8 44q-23 -26 -61 -41.5t-88 -15.5q-85 0 -124.5 37.5t-39.5 97.5q0 53 17 84.5t47 49.5t71.5 26.5t90.5 15.5t66 18.5t17 37.5
q0 24 -22.5 37.5t-60.5 13.5q-45 0 -64.5 -20t-24.5 -53h-121q1 38 12.5 70t37 55t66.5 35.5t100 12.5q58 0 98.5 -13t65 -37.5t35.5 -61t11 -82.5v-311h-121zM244 679l-135 -118l-46 51l128 134h106l128 -134l-46 -51z" />
    <glyph glyph-name="atilde" unicode="&#xe3;" horiz-adv-x="486" 
d="M13 0zM325 241q-10 -10 -29 -16t-55 -13q-56 -11 -77 -28t-21 -49q0 -55 63 -55q25 0 46.5 8.5t37 23t25 34t9.5 41.5zM334 0q-6 19 -8 44q-23 -26 -61 -41.5t-88 -15.5q-85 0 -124.5 37.5t-39.5 97.5q0 53 17 84.5t47 49.5t71.5 26.5t90.5 15.5t66 18.5t17 37.5
q0 24 -22.5 37.5t-60.5 13.5q-45 0 -64.5 -20t-24.5 -53h-121q1 38 12.5 70t37 55t66.5 35.5t100 12.5q58 0 98.5 -13t65 -37.5t35.5 -61t11 -82.5v-311h-121zM417 674q-17 -54 -47 -76t-62 -22q-19 0 -35.5 7t-31.5 15.5t-30 15.5t-31 7q-6 0 -18 -8t-21 -36l-69 37
q16 49 41 68.5t56 19.5q23 0 41 -7.5t34 -16.5t30 -16.5t28 -7.5q9 0 22 10.5t18 36.5z" />
    <glyph glyph-name="adieresis" unicode="&#xe4;" horiz-adv-x="486" 
d="M13 0zM325 241q-10 -10 -29 -16t-55 -13q-56 -11 -77 -28t-21 -49q0 -55 63 -55q25 0 46.5 8.5t37 23t25 34t9.5 41.5zM334 0q-6 19 -8 44q-23 -26 -61 -41.5t-88 -15.5q-85 0 -124.5 37.5t-39.5 97.5q0 53 17 84.5t47 49.5t71.5 26.5t90.5 15.5t66 18.5t17 37.5
q0 24 -22.5 37.5t-60.5 13.5q-45 0 -64.5 -20t-24.5 -53h-121q1 38 12.5 70t37 55t66.5 35.5t100 12.5q58 0 98.5 -13t65 -37.5t35.5 -61t11 -82.5v-311h-121zM90 579v124h130v-124h-130zM290 579v124h130v-124h-130z" />
    <glyph glyph-name="aring" unicode="&#xe5;" horiz-adv-x="486" 
d="M13 0zM325 241q-10 -10 -29 -16t-55 -13q-56 -11 -77 -28t-21 -49q0 -55 63 -55q25 0 46.5 8.5t37 23t25 34t9.5 41.5zM334 0q-6 19 -8 44q-23 -26 -61 -41.5t-88 -15.5q-85 0 -124.5 37.5t-39.5 97.5q0 53 17 84.5t47 49.5t71.5 26.5t90.5 15.5t66 18.5t17 37.5
q0 24 -22.5 37.5t-60.5 13.5q-45 0 -64.5 -20t-24.5 -53h-121q1 38 12.5 70t37 55t66.5 35.5t100 12.5q58 0 98.5 -13t65 -37.5t35.5 -61t11 -82.5v-311h-121zM348 650q0 -47 -24 -71.5t-80 -24.5q-104 0 -104 96q0 46 25.5 71t78.5 25q56 0 80 -25t24 -71zM296 650
q0 51 -52 51q-50 0 -50 -51q0 -49 50 -49q52 0 52 49z" />
    <glyph glyph-name="ae" unicode="&#xe6;" horiz-adv-x="813" 
d="M455 212q3 -56 32.5 -89t77.5 -33q32 0 56.5 14.5t31.5 40.5h134q-23 -76 -80 -117t-136 -41q-56 0 -108.5 18t-89.5 65q-36 -42 -82.5 -62.5t-113.5 -20.5q-85 0 -124.5 37.5t-39.5 97.5q0 53 17 84.5t47 49.5t71.5 26.5t90.5 15.5t66 18.5t17 37.5q0 24 -22.5 37.5
t-60.5 13.5q-45 0 -64.5 -20t-24.5 -53h-121q1 38 12.5 70t37 55t66.5 35.5t100 12.5q58 0 97.5 -12.5t64.5 -37.5q62 50 156 50q114 0 172.5 -73t58.5 -220h-339zM325 241q-10 -10 -29 -16t-55 -13q-56 -11 -77 -28t-21 -49q0 -55 63 -55q25 0 46.5 8.5t37 23t25 34
t9.5 41.5zM660 294q-1 27 -9.5 47.5t-22.5 34t-32 20t-37 6.5q-39 0 -67.5 -28.5t-32.5 -79.5h201z" />
    <glyph glyph-name="ccedilla" unicode="&#xe7;" horiz-adv-x="481" 
d="M17 0zM469 178q-5 -43 -24.5 -78t-49.5 -60t-68.5 -39t-83.5 -14q-50 0 -91.5 16.5t-71.5 50t-46.5 83t-16.5 115.5t16.5 114t46.5 78.5t72.5 45.5t94.5 15q48 0 87.5 -13t69 -38t46.5 -60t20 -78h-131q-5 38 -30.5 59.5t-62.5 21.5q-21 0 -39 -7t-31.5 -23.5t-21.5 -44
t-8 -67.5q0 -81 29 -120t67 -39t65 21t31 61h131zM197 -190q62 5 64 65h-64v82h115v-54q0 -27 -5.5 -50.5t-18.5 -41.5t-35.5 -29.5t-55.5 -14.5v43z" />
    <glyph glyph-name="egrave" unicode="&#xe8;" 
d="M15 0zM350 294q-1 27 -9.5 47.5t-22.5 34t-32 20t-37 6.5q-39 0 -67.5 -28.5t-32.5 -79.5h201zM145 212q3 -56 32.5 -89t77.5 -33q32 0 56.5 14.5t31.5 40.5h134q-23 -76 -80 -117t-136 -41q-246 0 -246 268q0 57 16 103t46.5 79t74.5 50.5t101 17.5q114 0 172.5 -73
t58.5 -220h-339zM95 648l47 82l207 -121l-31 -55z" />
    <glyph glyph-name="egrave" unicode="&#x450;" 
d="M15 0zM350 294q-1 27 -9.5 47.5t-22.5 34t-32 20t-37 6.5q-39 0 -67.5 -28.5t-32.5 -79.5h201zM145 212q3 -56 32.5 -89t77.5 -33q32 0 56.5 14.5t31.5 40.5h134q-23 -76 -80 -117t-136 -41q-246 0 -246 268q0 57 16 103t46.5 79t74.5 50.5t101 17.5q114 0 172.5 -73
t58.5 -220h-339zM95 648l47 82l207 -121l-31 -55z" />
    <glyph glyph-name="eacute" unicode="&#xe9;" 
d="M15 0zM350 294q-1 27 -9.5 47.5t-22.5 34t-32 20t-37 6.5q-39 0 -67.5 -28.5t-32.5 -79.5h201zM145 212q3 -56 32.5 -89t77.5 -33q32 0 56.5 14.5t31.5 40.5h134q-23 -76 -80 -117t-136 -41q-246 0 -246 268q0 57 16 103t46.5 79t74.5 50.5t101 17.5q114 0 172.5 -73
t58.5 -220h-339zM186 554l-31 55l207 121l47 -82z" />
    <glyph glyph-name="ecircumflex" unicode="&#xea;" 
d="M15 0zM350 294q-1 27 -9.5 47.5t-22.5 34t-32 20t-37 6.5q-39 0 -67.5 -28.5t-32.5 -79.5h201zM145 212q3 -56 32.5 -89t77.5 -33q32 0 56.5 14.5t31.5 40.5h134q-23 -76 -80 -117t-136 -41q-246 0 -246 268q0 57 16 103t46.5 79t74.5 50.5t101 17.5q114 0 172.5 -73
t58.5 -220h-339zM253 679l-135 -118l-46 51l128 134h106l128 -134l-46 -51z" />
    <glyph glyph-name="edieresis" unicode="&#xeb;" 
d="M15 0zM350 294q-1 27 -9.5 47.5t-22.5 34t-32 20t-37 6.5q-39 0 -67.5 -28.5t-32.5 -79.5h201zM145 212q3 -56 32.5 -89t77.5 -33q32 0 56.5 14.5t31.5 40.5h134q-23 -76 -80 -117t-136 -41q-246 0 -246 268q0 57 16 103t46.5 79t74.5 50.5t101 17.5q114 0 172.5 -73
t58.5 -220h-339zM91 579v124h130v-124h-130zM291 579v124h130v-124h-130z" />
    <glyph glyph-name="edieresis" unicode="&#x451;" 
d="M15 0zM350 294q-1 27 -9.5 47.5t-22.5 34t-32 20t-37 6.5q-39 0 -67.5 -28.5t-32.5 -79.5h201zM145 212q3 -56 32.5 -89t77.5 -33q32 0 56.5 14.5t31.5 40.5h134q-23 -76 -80 -117t-136 -41q-246 0 -246 268q0 57 16 103t46.5 79t74.5 50.5t101 17.5q114 0 172.5 -73
t58.5 -220h-339zM91 579v124h130v-124h-130zM291 579v124h130v-124h-130z" />
    <glyph glyph-name="igrave" unicode="&#xec;" horiz-adv-x="272" 
d="M0 0zM-20 648l47 82l207 -121l-31 -55zM69 0v492h130v-492h-130z" />
    <glyph glyph-name="iacute" unicode="&#xed;" horiz-adv-x="272" 
d="M40 0zM71 554l-31 55l207 121l47 -82zM69 0v492h130v-492h-130z" />
    <glyph glyph-name="icircumflex" unicode="&#xee;" horiz-adv-x="272" 
d="M0 0zM69 0v492h130v-492h-130zM137 679l-135 -118l-46 51l128 134h106l128 -134l-46 -51z" />
    <glyph glyph-name="idieresis" unicode="&#xef;" horiz-adv-x="272" 
d="M0 0zM-24 579v124h130v-124h-130zM176 579v124h130v-124h-130zM69 0v492h130v-492h-130z" />
    <glyph glyph-name="idieresis" unicode="&#x457;" horiz-adv-x="272" 
d="M0 0zM-24 579v124h130v-124h-130zM176 579v124h130v-124h-130zM69 0v492h130v-492h-130z" />
    <glyph glyph-name="eth" unicode="&#xf0;" horiz-adv-x="519" 
d="M402 615q45 -55 67.5 -138.5t22.5 -192.5q0 -86 -20.5 -143t-53 -91t-73.5 -48.5t-81 -14.5q-67 0 -114 19.5t-77 54t-44 80.5t-14 100q0 53 14.5 97.5t42 76.5t67.5 50t92 18q18 0 36 -1.5t35 -6.5t32 -16.5t29 -30.5q-4 36 -17.5 70.5t-33.5 64.5l-83 -48l-18 28l81 47
q-22 26 -46.5 47t-48.5 35h139q21 -13 42 -32l68 39l18 -28zM258 95q49 0 80 34t31 95q0 71 -27.5 109.5t-82.5 38.5q-56 0 -83.5 -37.5t-27.5 -102.5q0 -66 30 -101.5t80 -35.5z" />
    <glyph glyph-name="ntilde" unicode="&#xf1;" 
d="M26 0zM341 0v298q0 57 -19 77t-65 20q-101 0 -101 -113v-282h-130v492h124v-72q23 42 61 63.5t98 21.5q35 0 65 -10.5t51.5 -31.5t34 -51.5t12.5 -70.5v-341h-131zM435 674q-17 -54 -47 -76t-62 -22q-19 0 -35.5 7t-31.5 15.5t-30 15.5t-31 7q-6 0 -18 -8t-21 -36l-69 37
q16 49 41 68.5t56 19.5q23 0 41 -7.5t34 -16.5t30 -16.5t28 -7.5q9 0 22 10.5t18 36.5z" />
    <glyph glyph-name="ograve" unicode="&#xf2;" horiz-adv-x="539" 
d="M15 0zM268 96q119 0 119 150q0 149 -119 149t-119 -149q0 -150 119 -150zM268 -13q-60 0 -107 19t-79.5 53t-49.5 82t-17 105q0 58 17.5 106t50.5 82t79.5 52.5t105.5 18.5q58 0 104 -18.5t78.5 -52t50 -81.5t17.5 -107t-17.5 -106.5t-50 -81.5t-79 -52.5t-103.5 -18.5z
M114 648l47 82l207 -121l-31 -55z" />
    <glyph glyph-name="oacute" unicode="&#xf3;" horiz-adv-x="539" 
d="M15 0zM268 96q119 0 119 150q0 149 -119 149t-119 -149q0 -150 119 -150zM268 -13q-60 0 -107 19t-79.5 53t-49.5 82t-17 105q0 58 17.5 106t50.5 82t79.5 52.5t105.5 18.5q58 0 104 -18.5t78.5 -52t50 -81.5t17.5 -107t-17.5 -106.5t-50 -81.5t-79 -52.5t-103.5 -18.5z
M205 554l-31 55l207 121l47 -82z" />
    <glyph glyph-name="ocircumflex" unicode="&#xf4;" horiz-adv-x="539" 
d="M15 0zM268 96q119 0 119 150q0 149 -119 149t-119 -149q0 -150 119 -150zM268 -13q-60 0 -107 19t-79.5 53t-49.5 82t-17 105q0 58 17.5 106t50.5 82t79.5 52.5t105.5 18.5q58 0 104 -18.5t78.5 -52t50 -81.5t17.5 -107t-17.5 -106.5t-50 -81.5t-79 -52.5t-103.5 -18.5z
M270 679l-135 -118l-46 51l128 134h106l128 -134l-46 -51z" />
    <glyph glyph-name="otilde" unicode="&#xf5;" horiz-adv-x="539" 
d="M15 0zM268 96q119 0 119 150q0 149 -119 149t-119 -149q0 -150 119 -150zM268 -13q-60 0 -107 19t-79.5 53t-49.5 82t-17 105q0 58 17.5 106t50.5 82t79.5 52.5t105.5 18.5q58 0 104 -18.5t78.5 -52t50 -81.5t17.5 -107t-17.5 -106.5t-50 -81.5t-79 -52.5t-103.5 -18.5z
M443 674q-17 -54 -47 -76t-62 -22q-19 0 -35.5 7t-31.5 15.5t-30 15.5t-31 7q-6 0 -18 -8t-21 -36l-69 37q16 49 41 68.5t56 19.5q23 0 41 -7.5t34 -16.5t30 -16.5t28 -7.5q9 0 22 10.5t18 36.5z" />
    <glyph glyph-name="odieresis" unicode="&#xf6;" horiz-adv-x="539" 
d="M15 0zM268 96q119 0 119 150q0 149 -119 149t-119 -149q0 -150 119 -150zM268 -13q-60 0 -107 19t-79.5 53t-49.5 82t-17 105q0 58 17.5 106t50.5 82t79.5 52.5t105.5 18.5q58 0 104 -18.5t78.5 -52t50 -81.5t17.5 -107t-17.5 -106.5t-50 -81.5t-79 -52.5t-103.5 -18.5z
M109 579v124h130v-124h-130zM309 579v124h130v-124h-130z" />
    <glyph glyph-name="divide" unicode="&#xf7;" horiz-adv-x="523" 
d="M23 296v94h471v-94h-471zM189 490v135h139v-135h-139zM189 63v135h139v-135h-139z" />
    <glyph glyph-name="oslash" unicode="&#xf8;" horiz-adv-x="539" 
d="M106 -31l23 52q-55 32 -84.5 90.5t-29.5 134.5q0 58 17.5 106t50.5 82t79.5 52.5t105.5 18.5q20 0 39.5 -2.5t36.5 -7.5l23 50l63 -26l-23 -50q53 -32 82 -89t29 -134q0 -59 -17.5 -106.5t-50 -81.5t-79 -52.5t-103.5 -18.5q-21 0 -41 2.5t-38 7.5l-24 -54zM236 99
q15 -3 32 -3q119 0 119 150q0 74 -31 113zM297 392l-14 2t-15 1q-119 0 -119 -149q0 -77 31 -114z" />
    <glyph glyph-name="ugrave" unicode="&#xf9;" horiz-adv-x="500" 
d="M26 0zM346 0v69q-50 -82 -153 -82q-37 0 -67.5 13t-52.5 37t-34.5 57t-12.5 74v324h130v-304q0 -92 83 -92q50 0 75.5 31.5t25.5 80.5v284h129v-492h-123zM94 648l47 82l207 -121l-31 -55z" />
    <glyph glyph-name="uacute" unicode="&#xfa;" horiz-adv-x="500" 
d="M26 0zM346 0v69q-50 -82 -153 -82q-37 0 -67.5 13t-52.5 37t-34.5 57t-12.5 74v324h130v-304q0 -92 83 -92q50 0 75.5 31.5t25.5 80.5v284h129v-492h-123zM185 554l-31 55l207 121l47 -82z" />
    <glyph glyph-name="ucircumflex" unicode="&#xfb;" horiz-adv-x="500" 
d="M26 0zM346 0v69q-50 -82 -153 -82q-37 0 -67.5 13t-52.5 37t-34.5 57t-12.5 74v324h130v-304q0 -92 83 -92q50 0 75.5 31.5t25.5 80.5v284h129v-492h-123zM251 679l-135 -118l-46 51l128 134h106l128 -134l-46 -51z" />
    <glyph glyph-name="udieresis" unicode="&#xfc;" horiz-adv-x="500" 
d="M26 0zM346 0v69q-50 -82 -153 -82q-37 0 -67.5 13t-52.5 37t-34.5 57t-12.5 74v324h130v-304q0 -92 83 -92q50 0 75.5 31.5t25.5 80.5v284h129v-492h-123zM97 579v124h130v-124h-130zM297 579v124h130v-124h-130z" />
    <glyph glyph-name="yacute" unicode="&#xfd;" horiz-adv-x="502" 
d="M26 0zM339 65q-14 -33 -50.5 -51.5t-82.5 -18.5q-39 0 -72 12.5t-57 36t-37.5 56t-13.5 73.5v319h130v-300q0 -92 83 -92q45 0 72.5 26t27.5 66v300h130v-505q0 -52 -17.5 -93t-48 -69t-72 -43t-88.5 -15q-109 0 -163 55t-54 151h121q0 -44 25.5 -69t76.5 -25
q18 0 34 7.5t28.5 21t20 33.5t7.5 44v80zM186 554l-31 55l207 121l47 -82z" />
    <glyph glyph-name="thorn" unicode="&#xfe;" horiz-adv-x="523" 
d="M258 93q49 0 80 41.5t31 107.5q0 152 -112 152q-109 0 -109 -160q0 -31 8 -57t23 -44.5t35 -29t44 -10.5zM26 -233v905h128v-241q20 39 51.5 56.5t83.5 17.5q54 0 94 -21.5t67 -58t40 -84t13 -99.5q0 -56 -13.5 -103t-39.5 -80.5t-64 -52.5t-86 -19q-45 0 -84.5 17.5
t-61.5 57.5v-295h-128z" />
    <glyph glyph-name="ydieresis" unicode="&#xff;" horiz-adv-x="502" 
d="M26 0zM339 65q-14 -33 -50.5 -51.5t-82.5 -18.5q-39 0 -72 12.5t-57 36t-37.5 56t-13.5 73.5v319h130v-300q0 -92 83 -92q45 0 72.5 26t27.5 66v300h130v-505q0 -52 -17.5 -93t-48 -69t-72 -43t-88.5 -15q-109 0 -163 55t-54 151h121q0 -44 25.5 -69t76.5 -25
q18 0 34 7.5t28.5 21t20 33.5t7.5 44v80zM90 579v124h130v-124h-130zM290 579v124h130v-124h-130z" />
    <glyph glyph-name="Amacron" unicode="&#x100;" horiz-adv-x="643" 
d="M3 0zM319 515h-1l-85 -264h169zM484 0l-42 137h-245l-47 -137h-147l237 664h161l234 -664h-151zM132 774v91h381v-91h-381z" />
    <glyph glyph-name="amacron" unicode="&#x101;" horiz-adv-x="486" 
d="M13 0zM325 241q-10 -10 -29 -16t-55 -13q-56 -11 -77 -28t-21 -49q0 -55 63 -55q25 0 46.5 8.5t37 23t25 34t9.5 41.5zM334 0q-6 19 -8 44q-23 -26 -61 -41.5t-88 -15.5q-85 0 -124.5 37.5t-39.5 97.5q0 53 17 84.5t47 49.5t71.5 26.5t90.5 15.5t66 18.5t17 37.5
q0 24 -22.5 37.5t-60.5 13.5q-45 0 -64.5 -20t-24.5 -53h-121q1 38 12.5 70t37 55t66.5 35.5t100 12.5q58 0 98.5 -13t65 -37.5t35.5 -61t11 -82.5v-311h-121zM54 602v91h381v-91h-381z" />
    <glyph glyph-name="Abreve" unicode="&#x102;" horiz-adv-x="643" 
d="M3 0zM319 515h-1l-85 -264h169zM484 0l-42 137h-245l-47 -137h-147l237 664h161l234 -664h-151zM485 918q0 -42 -13.5 -73t-36 -51.5t-52 -31t-60.5 -10.5t-60.5 10.5t-52 31t-36 51.5t-13.5 73h82q2 -42 22.5 -64.5t57.5 -22.5t57.5 22.5t22.5 64.5h82z" />
    <glyph glyph-name="abreve" unicode="&#x103;" horiz-adv-x="486" 
d="M13 0zM325 241q-10 -10 -29 -16t-55 -13q-56 -11 -77 -28t-21 -49q0 -55 63 -55q25 0 46.5 8.5t37 23t25 34t9.5 41.5zM334 0q-6 19 -8 44q-23 -26 -61 -41.5t-88 -15.5q-85 0 -124.5 37.5t-39.5 97.5q0 53 17 84.5t47 49.5t71.5 26.5t90.5 15.5t66 18.5t17 37.5
q0 24 -22.5 37.5t-60.5 13.5q-45 0 -64.5 -20t-24.5 -53h-121q1 38 12.5 70t37 55t66.5 35.5t100 12.5q58 0 98.5 -13t65 -37.5t35.5 -61t11 -82.5v-311h-121zM406 746q0 -42 -13.5 -73t-36 -51.5t-52 -31t-60.5 -10.5t-60.5 10.5t-52 31t-36 51.5t-13.5 73h82
q2 -42 22.5 -64.5t57.5 -22.5t57.5 22.5t22.5 64.5h82z" />
    <glyph glyph-name="Aogonek" unicode="&#x104;" horiz-adv-x="643" 
d="M635 -207q-14 -11 -39 -18.5t-66 -7.5q-54 0 -82 23t-28 62q0 49 47 86.5t125 61.5h-108l-42 137h-245l-47 -137h-147l237 664h161l234 -664q-38 -17 -60.5 -29.5t-34 -23t-15 -20t-3.5 -19.5q0 -17 17.5 -25t46.5 -8q14 0 27 2.5t22 5.5v-90zM319 515h-1l-85 -264h169z
" />
    <glyph glyph-name="aogonek" unicode="&#x105;" horiz-adv-x="486" 
d="M455 -207q-14 -11 -39 -18.5t-66 -7.5q-54 0 -82 23t-28 62q0 49 47 86.5t125 61.5h-78q-6 19 -8 44q-23 -26 -61 -41.5t-88 -15.5q-85 0 -124.5 37.5t-39.5 97.5q0 53 17 84.5t47 49.5t71.5 26.5t90.5 15.5t66 18.5t17 37.5q0 24 -22.5 37.5t-60.5 13.5q-45 0 -64.5 -20
t-24.5 -53h-121q1 38 12.5 70t37 55t66.5 35.5t100 12.5q58 0 98.5 -13t65 -37.5t35.5 -61t11 -82.5v-311q-38 -17 -60.5 -29.5t-34 -23t-15 -20t-3.5 -19.5q0 -17 17.5 -25t46.5 -8q14 0 27 2.5t22 5.5v-90zM325 241q-10 -10 -29 -16t-55 -13q-56 -11 -77 -28t-21 -49
q0 -55 63 -55q25 0 46.5 8.5t37 23t25 34t9.5 41.5z" />
    <glyph glyph-name="Cacute" unicode="&#x106;" horiz-adv-x="613" 
d="M15 0zM608 228q-11 -57 -35 -103t-60.5 -79t-84.5 -51t-106 -18q-65 0 -121.5 22t-97.5 66t-64.5 108.5t-23.5 150.5q0 84 21.5 151.5t61.5 114t97.5 71.5t128.5 25q62 0 112.5 -18.5t87 -51t58 -76.5t26.5 -94h-139q-14 57 -54 88.5t-90 31.5q-87 0 -128 -62.5
t-41 -171.5q0 -111 40.5 -172.5t121.5 -61.5q62 0 99.5 33.5t51.5 96.5h139zM241 726l-31 55l207 121l47 -82z" />
    <glyph glyph-name="cacute" unicode="&#x107;" horiz-adv-x="481" 
d="M17 0zM469 178q-5 -43 -24.5 -78t-49.5 -60t-68.5 -39t-83.5 -14q-50 0 -91.5 16.5t-71.5 50t-46.5 83t-16.5 115.5t16.5 114t46.5 78.5t72.5 45.5t94.5 15q48 0 87.5 -13t69 -38t46.5 -60t20 -78h-131q-5 38 -30.5 59.5t-62.5 21.5q-21 0 -39 -7t-31.5 -23.5t-21.5 -44
t-8 -67.5q0 -81 29 -120t67 -39t65 21t31 61h131zM175 554l-31 55l207 121l47 -82z" />
    <glyph glyph-name="Cdotaccent" unicode="&#x10a;" horiz-adv-x="613" 
d="M15 0zM608 228q-11 -57 -35 -103t-60.5 -79t-84.5 -51t-106 -18q-65 0 -121.5 22t-97.5 66t-64.5 108.5t-23.5 150.5q0 84 21.5 151.5t61.5 114t97.5 71.5t128.5 25q62 0 112.5 -18.5t87 -51t58 -76.5t26.5 -94h-139q-14 57 -54 88.5t-90 31.5q-87 0 -128 -62.5
t-41 -171.5q0 -111 40.5 -172.5t121.5 -61.5q62 0 99.5 33.5t51.5 96.5h139zM261 751v124h130v-124h-130z" />
    <glyph glyph-name="cdotaccent" unicode="&#x10b;" horiz-adv-x="481" 
d="M17 0zM469 178q-5 -43 -24.5 -78t-49.5 -60t-68.5 -39t-83.5 -14q-50 0 -91.5 16.5t-71.5 50t-46.5 83t-16.5 115.5t16.5 114t46.5 78.5t72.5 45.5t94.5 15q48 0 87.5 -13t69 -38t46.5 -60t20 -78h-131q-5 38 -30.5 59.5t-62.5 21.5q-21 0 -39 -7t-31.5 -23.5t-21.5 -44
t-8 -67.5q0 -81 29 -120t67 -39t65 21t31 61h131zM187 579v124h130v-124h-130z" />
    <glyph glyph-name="Ccaron" unicode="&#x10c;" horiz-adv-x="613" 
d="M15 0zM608 228q-11 -57 -35 -103t-60.5 -79t-84.5 -51t-106 -18q-65 0 -121.5 22t-97.5 66t-64.5 108.5t-23.5 150.5q0 84 21.5 151.5t61.5 114t97.5 71.5t128.5 25q62 0 112.5 -18.5t87 -51t58 -76.5t26.5 -94h-139q-14 57 -54 88.5t-90 31.5q-87 0 -128 -62.5
t-41 -171.5q0 -111 40.5 -172.5t121.5 -61.5q62 0 99.5 33.5t51.5 96.5h139zM265 733l-128 134l46 51l135 -118l135 118l46 -51l-128 -134h-106z" />
    <glyph glyph-name="ccaron" unicode="&#x10d;" horiz-adv-x="481" 
d="M17 0zM469 178q-5 -43 -24.5 -78t-49.5 -60t-68.5 -39t-83.5 -14q-50 0 -91.5 16.5t-71.5 50t-46.5 83t-16.5 115.5t16.5 114t46.5 78.5t72.5 45.5t94.5 15q48 0 87.5 -13t69 -38t46.5 -60t20 -78h-131q-5 38 -30.5 59.5t-62.5 21.5q-21 0 -39 -7t-31.5 -23.5t-21.5 -44
t-8 -67.5q0 -81 29 -120t67 -39t65 21t31 61h131zM191 561l-128 134l46 51l135 -118l135 118l46 -51l-128 -134h-106z" />
    <glyph glyph-name="Dcaron" unicode="&#x10e;" horiz-adv-x="607" 
d="M23 0zM273 113q91 0 132 56.5t41 169.5q0 56 -10 96t-32.5 65.5t-57.5 37t-85 11.5h-103v-436h115zM23 0v664h257q67 0 124 -22.5t97.5 -64.5t63.5 -102t23 -136t-20.5 -138.5t-58.5 -107t-91 -69t-117 -24.5h-278zM214 733l-128 134l46 51l135 -118l135 118l46 -51
l-128 -134h-106z" />
    <glyph glyph-name="dcaron" unicode="&#x10f;" horiz-adv-x="654" 
d="M16 0zM259 93q47 0 78.5 39t31.5 102q0 160 -109 160q-112 0 -112 -152q0 -66 31 -107.5t80 -41.5zM367 0l-1 60q-45 -73 -137 -73q-47 0 -86 18t-67 52t-44 83t-16 111q0 56 13.5 102.5t39.5 80.5t63.5 52.5t85.5 18.5q91 0 146 -77v244h128v-672h-125zM519 450
q38 10 57 34t20 72h-77v135h138v-102q0 -42 -7 -74t-23 -54.5t-42.5 -37.5t-65.5 -23v50z" />
    <glyph glyph-name="dcroat" unicode="&#x111;" horiz-adv-x="523" 
d="M372 0l-2 81q-10 -26 -25.5 -44t-34.5 -29t-39 -16t-39 -5q-47 0 -86 18t-67 52t-44 83t-16 111q0 56 13.5 102.5t39.5 80.5t63.5 52.5t85.5 18.5q21 0 43 -4t42 -15t36.5 -29.5t25.5 -46.5v125h-162v84h162v53h125v-53h29v-84h-29v-535h-121zM258 90q51 0 83 37t32 117
q0 73 -30 112.5t-85 39.5q-51 0 -81 -35.5t-30 -116.5t30 -117.5t81 -36.5z" />
    <glyph glyph-name="Emacron" unicode="&#x112;" horiz-adv-x="532" 
d="M23 0zM23 0v664h488v-116h-353v-142h325v-117h-325v-171h369v-118h-504zM76 774v91h381v-91h-381z" />
    <glyph glyph-name="emacron" unicode="&#x113;" 
d="M15 0zM350 294q-1 27 -9.5 47.5t-22.5 34t-32 20t-37 6.5q-39 0 -67.5 -28.5t-32.5 -79.5h201zM145 212q3 -56 32.5 -89t77.5 -33q32 0 56.5 14.5t31.5 40.5h134q-23 -76 -80 -117t-136 -41q-246 0 -246 268q0 57 16 103t46.5 79t74.5 50.5t101 17.5q114 0 172.5 -73
t58.5 -220h-339zM62 602v91h381v-91h-381z" />
    <glyph glyph-name="Ebreve" unicode="&#x114;" horiz-adv-x="532" 
d="M23 0zM23 0v664h488v-116h-353v-142h325v-117h-325v-171h369v-118h-504zM438 918q0 -42 -13.5 -73t-36 -51.5t-52 -31t-60.5 -10.5t-60.5 10.5t-52 31t-36 51.5t-13.5 73h82q2 -42 22.5 -64.5t57.5 -22.5t57.5 22.5t22.5 64.5h82z" />
    <glyph glyph-name="ebreve" unicode="&#x115;" 
d="M15 0zM350 294q-1 27 -9.5 47.5t-22.5 34t-32 20t-37 6.5q-39 0 -67.5 -28.5t-32.5 -79.5h201zM145 212q3 -56 32.5 -89t77.5 -33q32 0 56.5 14.5t31.5 40.5h134q-23 -76 -80 -117t-136 -41q-246 0 -246 268q0 57 16 103t46.5 79t74.5 50.5t101 17.5q114 0 172.5 -73
t58.5 -220h-339zM414 746q0 -42 -13.5 -73t-36 -51.5t-52 -31t-60.5 -10.5t-60.5 10.5t-52 31t-36 51.5t-13.5 73h82q2 -42 22.5 -64.5t57.5 -22.5t57.5 22.5t22.5 64.5h82z" />
    <glyph glyph-name="Edotaccent" unicode="&#x116;" horiz-adv-x="532" 
d="M23 0zM23 0v664h488v-116h-353v-142h325v-117h-325v-171h369v-118h-504zM213 751v124h130v-124h-130z" />
    <glyph glyph-name="edotaccent" unicode="&#x117;" 
d="M15 0zM350 294q-1 27 -9.5 47.5t-22.5 34t-32 20t-37 6.5q-39 0 -67.5 -28.5t-32.5 -79.5h201zM145 212q3 -56 32.5 -89t77.5 -33q32 0 56.5 14.5t31.5 40.5h134q-23 -76 -80 -117t-136 -41q-246 0 -246 268q0 57 16 103t46.5 79t74.5 50.5t101 17.5q114 0 172.5 -73
t58.5 -220h-339zM191 579v124h130v-124h-130z" />
    <glyph glyph-name="Eogonek" unicode="&#x118;" horiz-adv-x="532" 
d="M527 -207q-14 -11 -39 -18.5t-66 -7.5q-54 0 -82 23t-28 62q0 49 47 86.5t125 61.5h-461v664h488v-116h-353v-142h325v-117h-325v-171h369v-118q-38 -17 -60.5 -29.5t-34 -23t-15 -20t-3.5 -19.5q0 -17 17.5 -25t46.5 -8q14 0 27 2.5t22 5.5v-90z" />
    <glyph glyph-name="eogonek" unicode="&#x119;" 
d="M343 -207q-14 -11 -39 -18.5t-66 -7.5q-54 0 -82 23t-28 62q0 43 35.5 77t98.5 58h-1q-246 0 -246 268q0 57 16 103t46.5 79t74.5 50.5t101 17.5q114 0 172.5 -73t58.5 -220h-339q3 -56 32.5 -89t77.5 -33q32 0 56.5 14.5t31.5 40.5h134q-17 -55 -51.5 -91.5t-82.5 -53.5
q-38 -17 -60.5 -29.5t-34 -23t-15 -20t-3.5 -19.5q0 -17 17.5 -25t46.5 -8q14 0 27 2.5t22 5.5v-90zM350 294q-1 27 -9.5 47.5t-22.5 34t-32 20t-37 6.5q-39 0 -67.5 -28.5t-32.5 -79.5h201z" />
    <glyph glyph-name="Ecaron" unicode="&#x11a;" horiz-adv-x="532" 
d="M23 0zM23 0v664h488v-116h-353v-142h325v-117h-325v-171h369v-118h-504zM214 733l-128 134l46 51l135 -118l135 118l46 -51l-128 -134h-106z" />
    <glyph glyph-name="ecaron" unicode="&#x11b;" 
d="M15 0zM350 294q-1 27 -9.5 47.5t-22.5 34t-32 20t-37 6.5q-39 0 -67.5 -28.5t-32.5 -79.5h201zM145 212q3 -56 32.5 -89t77.5 -33q32 0 56.5 14.5t31.5 40.5h134q-23 -76 -80 -117t-136 -41q-246 0 -246 268q0 57 16 103t46.5 79t74.5 50.5t101 17.5q114 0 172.5 -73
t58.5 -220h-339zM200 561l-128 134l46 51l135 -118l135 118l46 -51l-128 -134h-106z" />
    <glyph glyph-name="Gbreve" unicode="&#x11e;" horiz-adv-x="658" 
d="M15 0zM518 0l-3 66q-24 -42 -77 -65.5t-122 -23.5t-124.5 29.5t-95 79t-60.5 114t-21 133.5q0 73 21 137.5t62 112.5t102 75.5t142 27.5q59 0 110.5 -17t90 -47t62 -71.5t27.5 -91.5h-140q-3 23 -16 43.5t-33 35.5t-46.5 24t-54.5 9q-84 0 -134.5 -62.5t-50.5 -181.5
q0 -41 10.5 -82.5t33 -75t57.5 -54.5t83 -21q34 0 63.5 12t51.5 33t34.5 48.5t12.5 58.5h-147v111h277v-357h-115zM500 918q0 -42 -13.5 -73t-36 -51.5t-52 -31t-60.5 -10.5t-60.5 10.5t-52 31t-36 51.5t-13.5 73h82q2 -42 22.5 -64.5t57.5 -22.5t57.5 22.5t22.5 64.5h82z
" />
    <glyph glyph-name="gbreve" unicode="&#x11f;" horiz-adv-x="530" 
d="M16 0zM262 98q48 0 79.5 36.5t31.5 99.5q0 158 -111 158t-111 -150q0 -66 31.5 -105t79.5 -39zM369 66q-14 -33 -50.5 -51.5t-84.5 -18.5q-61 0 -102.5 21.5t-67 56.5t-37 81t-11.5 94q0 57 17 104.5t46 81t68 52t84 18.5q92 0 138 -74v61h130v-497q0 -56 -19 -98.5
t-52 -71t-78 -43.5t-96 -15t-95 14.5t-75.5 41t-49.5 64.5t-18 86h121q0 -45 29.5 -69.5t78.5 -24.5q52 0 88 28.5t36 77.5v81zM426 746q0 -42 -13.5 -73t-36 -51.5t-52 -31t-60.5 -10.5t-60.5 10.5t-52 31t-36 51.5t-13.5 73h82q2 -42 22.5 -64.5t57.5 -22.5t57.5 22.5
t22.5 64.5h82z" />
    <glyph glyph-name="Gdotaccent" unicode="&#x120;" horiz-adv-x="658" 
d="M15 0zM518 0l-3 66q-24 -42 -77 -65.5t-122 -23.5t-124.5 29.5t-95 79t-60.5 114t-21 133.5q0 73 21 137.5t62 112.5t102 75.5t142 27.5q59 0 110.5 -17t90 -47t62 -71.5t27.5 -91.5h-140q-3 23 -16 43.5t-33 35.5t-46.5 24t-54.5 9q-84 0 -134.5 -62.5t-50.5 -181.5
q0 -41 10.5 -82.5t33 -75t57.5 -54.5t83 -21q34 0 63.5 12t51.5 33t34.5 48.5t12.5 58.5h-147v111h277v-357h-115zM282 751v124h130v-124h-130z" />
    <glyph glyph-name="gdotaccent" unicode="&#x121;" horiz-adv-x="530" 
d="M16 0zM262 98q48 0 79.5 36.5t31.5 99.5q0 158 -111 158t-111 -150q0 -66 31.5 -105t79.5 -39zM369 66q-14 -33 -50.5 -51.5t-84.5 -18.5q-61 0 -102.5 21.5t-67 56.5t-37 81t-11.5 94q0 57 17 104.5t46 81t68 52t84 18.5q92 0 138 -74v61h130v-497q0 -56 -19 -98.5
t-52 -71t-78 -43.5t-96 -15t-95 14.5t-75.5 41t-49.5 64.5t-18 86h121q0 -45 29.5 -69.5t78.5 -24.5q52 0 88 28.5t36 77.5v81zM195 579v124h130v-124h-130z" />
    <glyph glyph-name="Gcommaaccent" unicode="&#x122;" horiz-adv-x="658" 
d="M15 0zM518 0l-3 66q-24 -42 -77 -65.5t-122 -23.5t-124.5 29.5t-95 79t-60.5 114t-21 133.5q0 73 21 137.5t62 112.5t102 75.5t142 27.5q59 0 110.5 -17t90 -47t62 -71.5t27.5 -91.5h-140q-3 23 -16 43.5t-33 35.5t-46.5 24t-54.5 9q-84 0 -134.5 -62.5t-50.5 -181.5
q0 -41 10.5 -82.5t33 -75t57.5 -54.5t83 -21q34 0 63.5 12t51.5 33t34.5 48.5t12.5 58.5h-147v111h277v-357h-115zM275 -190q62 5 64 65h-64v82h115v-54q0 -27 -5.5 -50.5t-18.5 -41.5t-35.5 -29.5t-55.5 -14.5v43z" />
    <glyph glyph-name="gcommaaccent" unicode="&#x123;" horiz-adv-x="530" 
d="M16 0zM262 98q48 0 79.5 36.5t31.5 99.5q0 158 -111 158t-111 -150q0 -66 31.5 -105t79.5 -39zM369 66q-14 -33 -50.5 -51.5t-84.5 -18.5q-61 0 -102.5 21.5t-67 56.5t-37 81t-11.5 94q0 57 17 104.5t46 81t68 52t84 18.5q92 0 138 -74v61h130v-497q0 -56 -19 -98.5
t-52 -71t-78 -43.5t-96 -15t-95 14.5t-75.5 41t-49.5 64.5t-18 86h121q0 -45 29.5 -69.5t78.5 -24.5q52 0 88 28.5t36 77.5v81zM318.003 698.988q-61.9961 -5 -63.9961 -64.9961h63.9961v-81.9951h-114.993v53.9971q0 26.998 5.5 50.4971q5.5 23.498 18.499 41.4971
t35.498 29.498q22.498 11.5 55.4961 14.499v-42.9971z" />
    <glyph glyph-name="Hbar" unicode="&#x126;" horiz-adv-x="587" 
d="M421 0v298h-259v-298h-139v664h139v-80h259v80h140v-664h-140zM421 414v79h-259v-79h259z" />
    <glyph glyph-name="hbar" unicode="&#x127;" 
d="M156 538v-110q7 16 21.5 30.5t33.5 24.5t42 16t48 6q76 0 123.5 -41.5t47.5 -115.5v-348h-131v305q0 56 -19.5 76.5t-64.5 20.5q-24 0 -43 -9.5t-32 -26t-19.5 -38t-6.5 -46.5v-282h-130v538h-26v91h26v43h130v-43h165v-91h-165z" />
    <glyph glyph-name="hbar" unicode="&#x45b;" 
d="M156 538v-110q7 16 21.5 30.5t33.5 24.5t42 16t48 6q76 0 123.5 -41.5t47.5 -115.5v-348h-131v305q0 56 -19.5 76.5t-64.5 20.5q-24 0 -43 -9.5t-32 -26t-19.5 -38t-6.5 -46.5v-282h-130v538h-26v91h26v43h130v-43h165v-91h-165z" />
    <glyph glyph-name="Itilde" unicode="&#x128;" horiz-adv-x="187" 
d="M0 0zM23 0v664h139v-664h-139zM267 846q-17 -54 -47 -76t-62 -22q-19 0 -35.5 7t-31.5 15.5t-30 15.5t-31 7q-6 0 -18 -8t-21 -36l-69 37q16 49 41 68.5t56 19.5q23 0 41 -7.5t34 -16.5t30 -16.5t28 -7.5q9 0 22 10.5t18 36.5z" />
    <glyph glyph-name="itilde" unicode="&#x129;" horiz-adv-x="272" 
d="M0 0zM310 674q-17 -54 -47 -76t-62 -22q-19 0 -35.5 7t-31.5 15.5t-30 15.5t-31 7q-6 0 -18 -8t-21 -36l-69 37q16 49 41 68.5t56 19.5q23 0 41 -7.5t34 -16.5t30 -16.5t28 -7.5q9 0 22 10.5t18 36.5zM69 0v492h130v-492h-130z" />
    <glyph glyph-name="Imacron" unicode="&#x12a;" horiz-adv-x="187" 
d="M0 0zM23 0v664h139v-664h-139zM-95 774v91h381v-91h-381z" />
    <glyph glyph-name="imacron" unicode="&#x12b;" horiz-adv-x="272" 
d="M0 0zM-53 602v91h381v-91h-381zM69 0v492h130v-492h-130z" />
    <glyph glyph-name="Ibreve" unicode="&#x12c;" horiz-adv-x="187" 
d="M0 0zM23 0v664h139v-664h-139zM257 918q0 -42 -13.5 -73t-36 -51.5t-52 -31t-60.5 -10.5t-60.5 10.5t-52 31t-36 51.5t-13.5 73h82q2 -42 22.5 -64.5t57.5 -22.5t57.5 22.5t22.5 64.5h82z" />
    <glyph glyph-name="ibreve" unicode="&#x12d;" horiz-adv-x="272" 
d="M0 0zM299 746q0 -42 -13.5 -73t-36 -51.5t-52 -31t-60.5 -10.5t-60.5 10.5t-52 31t-36 51.5t-13.5 73h82q2 -42 22.5 -64.5t57.5 -22.5t57.5 22.5t22.5 64.5h82zM69 0v492h130v-492h-130z" />
    <glyph glyph-name="Iogonek" unicode="&#x12e;" horiz-adv-x="187" 
d="M162 -207q-14 -11 -39 -18.5t-66 -7.5q-54 0 -82 23t-28 62q0 49 47 86.5t125 61.5h-96v664h139v-664q-38 -17 -60.5 -29.5t-34 -23t-15 -20t-3.5 -19.5q0 -17 17.5 -25t46.5 -8q14 0 27 2.5t22 5.5v-90z" />
    <glyph glyph-name="iogonek" unicode="&#x12f;" horiz-adv-x="192" 
d="M159 -207q-14 -11 -39 -18.5t-66 -7.5q-54 0 -82 23t-28 62q0 49 47 86.5t125 61.5h-87v492h130v-492q-38 -17 -60.5 -29.5t-34 -23t-15 -20t-3.5 -19.5q0 -17 17.5 -25t46.5 -8q14 0 27 2.5t22 5.5v-90zM29 551v121h130v-121h-130z" />
    <glyph glyph-name="Idotaccent" unicode="&#x130;" horiz-adv-x="187" 
d="M23 0zM23 0v664h139v-664h-139zM34 751v124h130v-124h-130z" />
    <glyph glyph-name="dotlessi" unicode="&#x131;" horiz-adv-x="192" 
d="M29 0v492h130v-492h-130z" />
    <glyph glyph-name="IJ" unicode="&#x132;" horiz-adv-x="641" 
d="M23 0zM23 0v664h139v-664h-139zM475 664h139v-485q0 -91 -55 -146.5t-163 -55.5q-97 0 -151 51.5t-54 154.5v68h126v-61q0 -51 18 -75.5t61 -24.5q48 0 63.5 23.5t15.5 78.5v472z" />
    <glyph glyph-name="ij" unicode="&#x133;" horiz-adv-x="389" 
d="M0 0zM29 0v492h130v-492h-130zM29 551v121h130v-121h-130zM220 492h131v-525q0 -45 -15 -81.5t-41 -63t-61.5 -41t-76.5 -14.5q-101 0 -149.5 55.5t-48.5 150.5h122q0 -42 15.5 -66.5t53.5 -24.5q39 0 54.5 24t15.5 66v520zM220 551v121h131v-121h-131z" />
    <glyph glyph-name="Kcommaaccent" unicode="&#x136;" horiz-adv-x="604" 
d="M23 0zM431 0l-197 299l-74 -73v-226h-137v664h137v-270l254 270h180l-262 -262l268 -402h-169zM257 -190q62 5 64 65h-64v82h115v-54q0 -27 -5.5 -50.5t-18.5 -41.5t-35.5 -29.5t-55.5 -14.5v43z" />
    <glyph glyph-name="kcommaaccent" unicode="&#x137;" horiz-adv-x="483" 
d="M26 0zM328 0l-108 221l-63 -65v-156h-131v672h131v-367l162 187h159l-165 -181l161 -311h-146zM188 -190q62 5 64 65h-64v82h115v-54q0 -27 -5.5 -50.5t-18.5 -41.5t-35.5 -29.5t-55.5 -14.5v43z" />
    <glyph glyph-name="Lacute" unicode="&#x139;" horiz-adv-x="501" 
d="M5 0zM23 0v664h139v-543h329v-121h-468zM36 726l-31 55l207 121l47 -82z" />
    <glyph glyph-name="lacute" unicode="&#x13a;" horiz-adv-x="185" 
d="M0 0zM26 0v672h130v-672h-130zM28 726l-31 55l207 121l47 -82z" />
    <glyph glyph-name="Lcommaaccent" unicode="&#x13b;" horiz-adv-x="501" 
d="M23 0zM23 0v664h139v-543h329v-121h-468zM211 -190q62 5 64 65h-64v82h115v-54q0 -27 -5.5 -50.5t-18.5 -41.5t-35.5 -29.5t-55.5 -14.5v43z" />
    <glyph glyph-name="lcommaaccent" unicode="&#x13c;" horiz-adv-x="185" 
d="M26 0zM26 0v672h130v-672h-130zM39 -190q62 5 64 65h-64v82h115v-54q0 -27 -5.5 -50.5t-18.5 -41.5t-35.5 -29.5t-55.5 -14.5v43z" />
    <glyph glyph-name="Lcaron" unicode="&#x13d;" horiz-adv-x="501" 
d="M23 0zM23 0v664h139v-543h329v-121h-468zM198 450q38 10 57 34t20 72h-77v135h138v-102q0 -42 -7 -74t-23 -54.5t-42.5 -37.5t-65.5 -23v50z" />
    <glyph glyph-name="lcaron" unicode="&#x13e;" horiz-adv-x="320" 
d="M26 0zM26 0v672h130v-672h-130zM182 448q38 10 57 34t20 72h-77v135h138v-102q0 -42 -7 -74t-23 -54.5t-42.5 -37.5t-65.5 -23v50z" />
    <glyph glyph-name="Lslash" unicode="&#x141;" horiz-adv-x="501" 
d="M23 0v664h139v-287l141 63v-89l-141 -63v-167h329v-121h-468z" />
    <glyph glyph-name="lslash" unicode="&#x142;" horiz-adv-x="261" 
d="M62 0v266l-62 -27v88l62 27v318h130v-261l63 29v-89l-63 -28v-323h-130z" />
    <glyph glyph-name="Nacute" unicode="&#x143;" horiz-adv-x="591" 
d="M23 0zM436 0l-284 446v-446h-129v664h147l264 -427v427h130v-664h-128zM230 726l-31 55l207 121l47 -82z" />
    <glyph glyph-name="nacute" unicode="&#x144;" 
d="M26 0zM341 0v298q0 57 -19 77t-65 20q-101 0 -101 -113v-282h-130v492h124v-72q23 42 61 63.5t98 21.5q35 0 65 -10.5t51.5 -31.5t34 -51.5t12.5 -70.5v-341h-131zM186 554l-31 55l207 121l47 -82z" />
    <glyph glyph-name="Ncommaaccent" unicode="&#x145;" horiz-adv-x="591" 
d="M23 0zM436 0l-284 446v-446h-129v664h147l264 -427v427h130v-664h-128zM249 -190q62 5 64 65h-64v82h115v-54q0 -27 -5.5 -50.5t-18.5 -41.5t-35.5 -29.5t-55.5 -14.5v43z" />
    <glyph glyph-name="ncommaaccent" unicode="&#x146;" 
d="M26 0zM341 0v298q0 57 -19 77t-65 20q-101 0 -101 -113v-282h-130v492h124v-72q23 42 61 63.5t98 21.5q35 0 65 -10.5t51.5 -31.5t34 -51.5t12.5 -70.5v-341h-131zM201 -190q62 5 64 65h-64v82h115v-54q0 -27 -5.5 -50.5t-18.5 -41.5t-35.5 -29.5t-55.5 -14.5v43z" />
    <glyph glyph-name="Ncaron" unicode="&#x147;" horiz-adv-x="591" 
d="M23 0zM436 0l-284 446v-446h-129v664h147l264 -427v427h130v-664h-128zM251 733l-128 134l46 51l135 -118l135 118l46 -51l-128 -134h-106z" />
    <glyph glyph-name="ncaron" unicode="&#x148;" 
d="M26 0zM341 0v298q0 57 -19 77t-65 20q-101 0 -101 -113v-282h-130v492h124v-72q23 42 61 63.5t98 21.5q35 0 65 -10.5t51.5 -31.5t34 -51.5t12.5 -70.5v-341h-131zM218 561l-128 134l46 51l135 -118l135 118l46 -51l-128 -134h-106z" />
    <glyph glyph-name="Eng" unicode="&#x14a;" horiz-adv-x="591" 
d="M434 3l-282 443v-446h-129v664h147l264 -427v427h130v-697q0 -45 -15 -81.5t-41 -63t-61.5 -41t-76.5 -14.5q-7 0 -12.5 0.5t-11.5 0.5v116q10 -2 17 -2q39 0 55 24t16 66v31z" />
    <glyph glyph-name="eng" unicode="&#x14b;" 
d="M341 309q-2 50 -21 68t-63 18q-101 0 -101 -113v-282h-130v492h124v-72q23 42 61 63.5t98 21.5q35 0 65 -10.5t51.5 -31.5t34 -51.5t12.5 -70.5v-374q0 -45 -15 -81.5t-41 -63t-61.5 -41t-76.5 -14.5q-6 0 -11.5 0.5t-10.5 0.5v115q3 0 6.5 -0.5t8.5 -0.5q39 0 54.5 24
t15.5 66v337z" />
    <glyph glyph-name="Omacron" unicode="&#x14c;" horiz-adv-x="670" 
d="M15 0zM334 96q37 0 70 13.5t57.5 41t38.5 70.5t14 102q0 118 -46 179t-134 61t-135 -61t-47 -179t47.5 -172.5t134.5 -54.5zM334 -23q-154 0 -236.5 90t-82.5 259q0 84 21 151t62 113.5t100 71t136 24.5q76 0 135.5 -24.5t99.5 -71.5t61 -114.5t21 -152.5
q0 -172 -81.5 -259t-235.5 -87zM146 774v91h381v-91h-381z" />
    <glyph glyph-name="omacron" unicode="&#x14d;" horiz-adv-x="539" 
d="M15 0zM268 96q119 0 119 150q0 149 -119 149t-119 -149q0 -150 119 -150zM268 -13q-60 0 -107 19t-79.5 53t-49.5 82t-17 105q0 58 17.5 106t50.5 82t79.5 52.5t105.5 18.5q58 0 104 -18.5t78.5 -52t50 -81.5t17.5 -107t-17.5 -106.5t-50 -81.5t-79 -52.5t-103.5 -18.5z
M80 602v91h381v-91h-381z" />
    <glyph glyph-name="Obreve" unicode="&#x14e;" horiz-adv-x="670" 
d="M15 0zM334 96q37 0 70 13.5t57.5 41t38.5 70.5t14 102q0 118 -46 179t-134 61t-135 -61t-47 -179t47.5 -172.5t134.5 -54.5zM334 -23q-154 0 -236.5 90t-82.5 259q0 84 21 151t62 113.5t100 71t136 24.5q76 0 135.5 -24.5t99.5 -71.5t61 -114.5t21 -152.5
q0 -172 -81.5 -259t-235.5 -87zM498 918q0 -42 -13.5 -73t-36 -51.5t-52 -31t-60.5 -10.5t-60.5 10.5t-52 31t-36 51.5t-13.5 73h82q2 -42 22.5 -64.5t57.5 -22.5t57.5 22.5t22.5 64.5h82z" />
    <glyph glyph-name="obreve" unicode="&#x14f;" horiz-adv-x="539" 
d="M15 0zM268 96q119 0 119 150q0 149 -119 149t-119 -149q0 -150 119 -150zM268 -13q-60 0 -107 19t-79.5 53t-49.5 82t-17 105q0 58 17.5 106t50.5 82t79.5 52.5t105.5 18.5q58 0 104 -18.5t78.5 -52t50 -81.5t17.5 -107t-17.5 -106.5t-50 -81.5t-79 -52.5t-103.5 -18.5z
M433 746q0 -42 -13.5 -73t-36 -51.5t-52 -31t-60.5 -10.5t-60.5 10.5t-52 31t-36 51.5t-13.5 73h82q2 -42 22.5 -64.5t57.5 -22.5t57.5 22.5t22.5 64.5h82z" />
    <glyph glyph-name="Ohungarumlaut" unicode="&#x150;" horiz-adv-x="670" 
d="M15 0zM334 96q37 0 70 13.5t57.5 41t38.5 70.5t14 102q0 118 -46 179t-134 61t-135 -61t-47 -179t47.5 -172.5t134.5 -54.5zM334 -23q-154 0 -236.5 90t-82.5 259q0 84 21 151t62 113.5t100 71t136 24.5q76 0 135.5 -24.5t99.5 -71.5t61 -114.5t21 -152.5
q0 -172 -81.5 -259t-235.5 -87zM224 774l136 147l44 -37l-143 -143zM381 741l-37 33l142 144l45 -37z" />
    <glyph glyph-name="ohungarumlaut" unicode="&#x151;" horiz-adv-x="539" 
d="M15 0zM268 96q119 0 119 150q0 149 -119 149t-119 -149q0 -150 119 -150zM268 -13q-60 0 -107 19t-79.5 53t-49.5 82t-17 105q0 58 17.5 106t50.5 82t79.5 52.5t105.5 18.5q58 0 104 -18.5t78.5 -52t50 -81.5t17.5 -107t-17.5 -106.5t-50 -81.5t-79 -52.5t-103.5 -18.5z
M151 602l136 147l44 -37l-143 -143zM308 569l-37 33l142 144l45 -37z" />
    <glyph glyph-name="OE" unicode="&#x152;" horiz-adv-x="964" 
d="M516 0v24q-35 -23 -79 -35t-95 -12q-79 0 -140 25.5t-102.5 73.5t-63 117t-21.5 156q0 74 23 136t65 106.5t101 69.5t131 25q52 0 97.5 -14.5t83.5 -40.5v33h488v-116h-353v-142h325v-117h-325v-171h370v-118h-505zM345 96q37 0 68.5 16.5t53.5 46.5t34.5 71t12.5 90
q0 243 -184 243q-41 0 -74 -16.5t-56 -46.5t-35.5 -71t-12.5 -89q0 -51 14 -95.5t39.5 -77.5t61 -52t78.5 -19z" />
    <glyph glyph-name="oe" unicode="&#x153;" horiz-adv-x="867" 
d="M507 212q3 -56 32.5 -89t77.5 -33q32 0 56.5 14.5t31.5 40.5h134q-23 -76 -80 -117t-136 -41q-120 0 -181 63q-66 -63 -174 -63q-60 0 -107 19t-79.5 53t-49.5 82t-17 105q0 58 17.5 106t50.5 82t79.5 52.5t105.5 18.5q55 0 99 -16.5t76 -47.5q31 31 74 47.5t98 16.5
q114 0 172.5 -73t58.5 -220h-339zM268 96q119 0 119 150q0 149 -119 149t-119 -149q0 -150 119 -150zM712 294q-1 27 -9.5 47.5t-22.5 34t-32 20t-37 6.5q-39 0 -67.5 -28.5t-32.5 -79.5h201z" />
    <glyph glyph-name="Racute" unicode="&#x154;" horiz-adv-x="578" 
d="M23 0zM158 549v-177h174q56 0 79 25t23 63q0 39 -22.5 64t-74.5 25h-179zM410 0v171q0 48 -22 68.5t-82 20.5h-148v-260h-135v664h337q46 0 83.5 -14.5t64.5 -40t41.5 -61t14.5 -76.5q0 -54 -25.5 -95.5t-73.5 -58.5q44 -14 62.5 -43t18.5 -87v-188h-136zM224 726l-31 55
l207 121l47 -82z" />
    <glyph glyph-name="racute" unicode="&#x155;" horiz-adv-x="321" 
d="M26 0zM26 0v492h122v-59q16 25 33.5 39t36 21.5t37.5 9.5t39 2h17v-133q-18 3 -36 3q-119 0 -119 -119v-256h-130zM106 554l-31 55l207 121l47 -82z" />
    <glyph glyph-name="Rcommaaccent" unicode="&#x156;" horiz-adv-x="578" 
d="M23 0zM158 549v-177h174q56 0 79 25t23 63q0 39 -22.5 64t-74.5 25h-179zM410 0v171q0 48 -22 68.5t-82 20.5h-148v-260h-135v664h337q46 0 83.5 -14.5t64.5 -40t41.5 -61t14.5 -76.5q0 -54 -25.5 -95.5t-73.5 -58.5q44 -14 62.5 -43t18.5 -87v-188h-136zM235 -190
q62 5 64 65h-64v82h115v-54q0 -27 -5.5 -50.5t-18.5 -41.5t-35.5 -29.5t-55.5 -14.5v43z" />
    <glyph glyph-name="rcommaaccent" unicode="&#x157;" horiz-adv-x="321" 
d="M26 0zM26 0v492h122v-59q16 25 33.5 39t36 21.5t37.5 9.5t39 2h17v-133q-18 3 -36 3q-119 0 -119 -119v-256h-130zM40 -190q62 5 64 65h-64v82h115v-54q0 -27 -5.5 -50.5t-18.5 -41.5t-35.5 -29.5t-55.5 -14.5v43z" />
    <glyph glyph-name="Rcaron" unicode="&#x158;" horiz-adv-x="578" 
d="M23 0zM158 549v-177h174q56 0 79 25t23 63q0 39 -22.5 64t-74.5 25h-179zM410 0v171q0 48 -22 68.5t-82 20.5h-148v-260h-135v664h337q46 0 83.5 -14.5t64.5 -40t41.5 -61t14.5 -76.5q0 -54 -25.5 -95.5t-73.5 -58.5q44 -14 62.5 -43t18.5 -87v-188h-136zM219 733
l-128 134l46 51l135 -118l135 118l46 -51l-128 -134h-106z" />
    <glyph glyph-name="rcaron" unicode="&#x159;" horiz-adv-x="321" 
d="M0 0zM26 0v492h122v-59q16 25 33.5 39t36 21.5t37.5 9.5t39 2h17v-133q-18 3 -36 3q-119 0 -119 -119v-256h-130zM109 561l-128 134l46 51l135 -118l135 118l46 -51l-128 -134h-106z" />
    <glyph glyph-name="Sacute" unicode="&#x15a;" horiz-adv-x="563" 
d="M6 0zM399 468q-5 51 -37 76t-95 25q-59 0 -89 -20t-30 -58q0 -32 23.5 -51t79.5 -33q57 -14 108.5 -27.5t88.5 -30.5q22 -10 41 -23t33 -32t22 -45t8 -61q0 -55 -19.5 -94.5t-55 -65.5t-84 -38.5t-106.5 -12.5q-62 0 -113 13.5t-88 41.5t-58 69.5t-22 97.5h134
q2 -51 41.5 -80.5t106.5 -29.5q62 0 95.5 24.5t33.5 69.5q0 15 -4.5 27t-16 22.5t-31.5 19t-51 15.5q-62 14 -104.5 24.5t-77.5 26.5q-54 24 -82.5 62.5t-28.5 101.5q0 45 15 82.5t45.5 64.5t76 42t106.5 15q63 0 112 -16t82.5 -45t52 -69t20.5 -88h-132zM216 726l-31 55
l207 121l47 -82z" />
    <glyph glyph-name="sacute" unicode="&#x15b;" horiz-adv-x="472" 
d="M9 0zM322 343q-5 36 -26 50.5t-66 14.5q-37 0 -57 -9.5t-20 -31.5t20 -33.5t60 -22.5q42 -12 80 -21.5t67 -20.5q39 -16 60 -43.5t21 -75.5q0 -77 -54.5 -120t-160.5 -43q-114 0 -174.5 48t-62.5 123h134q0 -35 27 -54t75 -19q35 0 61 11.5t26 39.5q0 26 -23.5 37
t-55.5 19q-62 15 -100 27t-64 29q-35 22 -48.5 50t-13.5 61q0 31 11 58t36 46.5t64.5 30.5t95.5 11q107 0 157.5 -41t55.5 -121h-125zM171 554l-31 55l207 121l47 -82z" />
    <glyph glyph-name="Scedilla" unicode="&#x15e;" horiz-adv-x="563" 
d="M6 0zM399 468q-5 51 -37 76t-95 25q-59 0 -89 -20t-30 -58q0 -32 23.5 -51t79.5 -33q57 -14 108.5 -27.5t88.5 -30.5q22 -10 41 -23t33 -32t22 -45t8 -61q0 -55 -19.5 -94.5t-55 -65.5t-84 -38.5t-106.5 -12.5q-62 0 -113 13.5t-88 41.5t-58 69.5t-22 97.5h134
q2 -51 41.5 -80.5t106.5 -29.5q62 0 95.5 24.5t33.5 69.5q0 15 -4.5 27t-16 22.5t-31.5 19t-51 15.5q-62 14 -104.5 24.5t-77.5 26.5q-54 24 -82.5 62.5t-28.5 101.5q0 45 15 82.5t45.5 64.5t76 42t106.5 15q63 0 112 -16t82.5 -45t52 -69t20.5 -88h-132zM228 -190
q62 5 64 65h-64v82h115v-54q0 -27 -5.5 -50.5t-18.5 -41.5t-35.5 -29.5t-55.5 -14.5v43z" />
    <glyph glyph-name="Scedilla" unicode="&#x218;" horiz-adv-x="563" 
d="M6 0zM399 468q-5 51 -37 76t-95 25q-59 0 -89 -20t-30 -58q0 -32 23.5 -51t79.5 -33q57 -14 108.5 -27.5t88.5 -30.5q22 -10 41 -23t33 -32t22 -45t8 -61q0 -55 -19.5 -94.5t-55 -65.5t-84 -38.5t-106.5 -12.5q-62 0 -113 13.5t-88 41.5t-58 69.5t-22 97.5h134
q2 -51 41.5 -80.5t106.5 -29.5q62 0 95.5 24.5t33.5 69.5q0 15 -4.5 27t-16 22.5t-31.5 19t-51 15.5q-62 14 -104.5 24.5t-77.5 26.5q-54 24 -82.5 62.5t-28.5 101.5q0 45 15 82.5t45.5 64.5t76 42t106.5 15q63 0 112 -16t82.5 -45t52 -69t20.5 -88h-132zM228 -190
q62 5 64 65h-64v82h115v-54q0 -27 -5.5 -50.5t-18.5 -41.5t-35.5 -29.5t-55.5 -14.5v43z" />
    <glyph glyph-name="scedilla" unicode="&#x15f;" horiz-adv-x="472" 
d="M9 0zM322 343q-5 36 -26 50.5t-66 14.5q-37 0 -57 -9.5t-20 -31.5t20 -33.5t60 -22.5q42 -12 80 -21.5t67 -20.5q39 -16 60 -43.5t21 -75.5q0 -77 -54.5 -120t-160.5 -43q-114 0 -174.5 48t-62.5 123h134q0 -35 27 -54t75 -19q35 0 61 11.5t26 39.5q0 26 -23.5 37
t-55.5 19q-62 15 -100 27t-64 29q-35 22 -48.5 50t-13.5 61q0 31 11 58t36 46.5t64.5 30.5t95.5 11q107 0 157.5 -41t55.5 -121h-125zM193 -190q62 5 64 65h-64v82h115v-54q0 -27 -5.5 -50.5t-18.5 -41.5t-35.5 -29.5t-55.5 -14.5v43z" />
    <glyph glyph-name="scedilla" unicode="&#x219;" horiz-adv-x="472" 
d="M9 0zM322 343q-5 36 -26 50.5t-66 14.5q-37 0 -57 -9.5t-20 -31.5t20 -33.5t60 -22.5q42 -12 80 -21.5t67 -20.5q39 -16 60 -43.5t21 -75.5q0 -77 -54.5 -120t-160.5 -43q-114 0 -174.5 48t-62.5 123h134q0 -35 27 -54t75 -19q35 0 61 11.5t26 39.5q0 26 -23.5 37
t-55.5 19q-62 15 -100 27t-64 29q-35 22 -48.5 50t-13.5 61q0 31 11 58t36 46.5t64.5 30.5t95.5 11q107 0 157.5 -41t55.5 -121h-125zM193 -190q62 5 64 65h-64v82h115v-54q0 -27 -5.5 -50.5t-18.5 -41.5t-35.5 -29.5t-55.5 -14.5v43z" />
    <glyph glyph-name="Scaron" unicode="&#x160;" horiz-adv-x="563" 
d="M6 0zM399 468q-5 51 -37 76t-95 25q-59 0 -89 -20t-30 -58q0 -32 23.5 -51t79.5 -33q57 -14 108.5 -27.5t88.5 -30.5q22 -10 41 -23t33 -32t22 -45t8 -61q0 -55 -19.5 -94.5t-55 -65.5t-84 -38.5t-106.5 -12.5q-62 0 -113 13.5t-88 41.5t-58 69.5t-22 97.5h134
q2 -51 41.5 -80.5t106.5 -29.5q62 0 95.5 24.5t33.5 69.5q0 15 -4.5 27t-16 22.5t-31.5 19t-51 15.5q-62 14 -104.5 24.5t-77.5 26.5q-54 24 -82.5 62.5t-28.5 101.5q0 45 15 82.5t45.5 64.5t76 42t106.5 15q63 0 112 -16t82.5 -45t52 -69t20.5 -88h-132zM223 733l-128 134
l46 51l135 -118l135 118l46 -51l-128 -134h-106z" />
    <glyph glyph-name="scaron" unicode="&#x161;" horiz-adv-x="472" 
d="M9 0zM322 343q-5 36 -26 50.5t-66 14.5q-37 0 -57 -9.5t-20 -31.5t20 -33.5t60 -22.5q42 -12 80 -21.5t67 -20.5q39 -16 60 -43.5t21 -75.5q0 -77 -54.5 -120t-160.5 -43q-114 0 -174.5 48t-62.5 123h134q0 -35 27 -54t75 -19q35 0 61 11.5t26 39.5q0 26 -23.5 37
t-55.5 19q-62 15 -100 27t-64 29q-35 22 -48.5 50t-13.5 61q0 31 11 58t36 46.5t64.5 30.5t95.5 11q107 0 157.5 -41t55.5 -121h-125zM185 561l-128 134l46 51l135 -118l135 118l46 -51l-128 -134h-106z" />
    <glyph glyph-name="Tcommaaccent" unicode="&#x162;" horiz-adv-x="554" 
d="M4 0zM204 0v548h-200v116h540v-116h-201v-548h-139zM223 -190q62 5 64 65h-64v82h115v-54q0 -27 -5.5 -50.5t-18.5 -41.5t-35.5 -29.5t-55.5 -14.5v43z" />
    <glyph glyph-name="Tcommaaccent" unicode="&#x21a;" horiz-adv-x="554" 
d="M4 0zM204 0v548h-200v116h540v-116h-201v-548h-139zM223 -190q62 5 64 65h-64v82h115v-54q0 -27 -5.5 -50.5t-18.5 -41.5t-35.5 -29.5t-55.5 -14.5v43z" />
    <glyph glyph-name="tcommaaccent" unicode="&#x163;" horiz-adv-x="453" 
d="M26 0zM305 324h121v-140q0 -39 -11.5 -74.5t-36 -63t-62 -43.5t-89.5 -16q-54 0 -92 16t-62.5 43t-35.5 63t-11 76v440h128v-133h272v-92h-272v-202q0 -47 17.5 -72.5t57.5 -25.5q39 0 57.5 25t18.5 71v128zM173 -190q62 5 64 65h-64v82h115v-54q0 -27 -5.5 -50.5
t-18.5 -41.5t-35.5 -29.5t-55.5 -14.5v43z" />
    <glyph glyph-name="tcommaaccent" unicode="&#x21b;" horiz-adv-x="453" 
d="M26 0zM305 324h121v-140q0 -39 -11.5 -74.5t-36 -63t-62 -43.5t-89.5 -16q-54 0 -92 16t-62.5 43t-35.5 63t-11 76v440h128v-133h272v-92h-272v-202q0 -47 17.5 -72.5t57.5 -25.5q39 0 57.5 25t18.5 71v128zM173 -190q62 5 64 65h-64v82h115v-54q0 -27 -5.5 -50.5
t-18.5 -41.5t-35.5 -29.5t-55.5 -14.5v43z" />
    <glyph glyph-name="Tcaron" unicode="&#x164;" horiz-adv-x="554" 
d="M4 0zM204 0v548h-200v116h540v-116h-201v-548h-139zM225 733l-128 134l46 51l135 -118l135 118l46 -51l-128 -134h-106z" />
    <glyph glyph-name="tcaron" unicode="&#x165;" horiz-adv-x="580" 
d="M26 0zM305 324h121v-140q0 -39 -11.5 -74.5t-36 -63t-62 -43.5t-89.5 -16q-54 0 -92 16t-62.5 43t-35.5 63t-11 76v440h128v-133h272v-92h-272v-202q0 -47 17.5 -72.5t57.5 -25.5q39 0 57.5 25t18.5 71v128zM443 450q38 10 57 34t20 72h-77v135h138v-102q0 -42 -7 -74
t-23 -54.5t-42.5 -37.5t-65.5 -23v50z" />
    <glyph glyph-name="Tbar" unicode="&#x166;" horiz-adv-x="554" 
d="M204 0v248h-94v101h94v199h-200v116h540v-116h-201v-199h95v-101h-95v-248h-139z" />
    <glyph glyph-name="tbar" unicode="&#x167;" horiz-adv-x="453" 
d="M154 261v-63q0 -47 17.5 -72.5t57.5 -25.5q39 0 57.5 25t18.5 71v18h121v-30q0 -39 -11.5 -74.5t-36 -63t-62 -43.5t-89.5 -16q-54 0 -92 16t-62.5 43t-35.5 63t-11 76v440h128v-133h272v-92h-272v-52h265v-87h-265z" />
    <glyph glyph-name="Utilde" unicode="&#x168;" horiz-adv-x="586" 
d="M23 0zM416 664h142v-443q0 -121 -71 -182.5t-202 -61.5q-121 0 -191.5 58t-70.5 178v451h141v-438q0 -62 31 -98t88 -36q133 0 133 129v443zM467 846q-17 -54 -47 -76t-62 -22q-19 0 -35.5 7t-31.5 15.5t-30 15.5t-31 7q-6 0 -18 -8t-21 -36l-69 37q16 49 41 68.5
t56 19.5q23 0 41 -7.5t34 -16.5t30 -16.5t28 -7.5q9 0 22 10.5t18 36.5z" />
    <glyph glyph-name="utilde" unicode="&#x169;" horiz-adv-x="500" 
d="M26 0zM346 0v69q-50 -82 -153 -82q-37 0 -67.5 13t-52.5 37t-34.5 57t-12.5 74v324h130v-304q0 -92 83 -92q50 0 75.5 31.5t25.5 80.5v284h129v-492h-123zM432 674q-17 -54 -47 -76t-62 -22q-19 0 -35.5 7t-31.5 15.5t-30 15.5t-31 7q-6 0 -18 -8t-21 -36l-69 37
q16 49 41 68.5t56 19.5q23 0 41 -7.5t34 -16.5t30 -16.5t28 -7.5q9 0 22 10.5t18 36.5z" />
    <glyph glyph-name="Umacron" unicode="&#x16a;" horiz-adv-x="586" 
d="M23 0zM416 664h142v-443q0 -121 -71 -182.5t-202 -61.5q-121 0 -191.5 58t-70.5 178v451h141v-438q0 -62 31 -98t88 -36q133 0 133 129v443zM104 774v91h381v-91h-381z" />
    <glyph glyph-name="umacron" unicode="&#x16b;" horiz-adv-x="500" 
d="M26 0zM346 0v69q-50 -82 -153 -82q-37 0 -67.5 13t-52.5 37t-34.5 57t-12.5 74v324h130v-304q0 -92 83 -92q50 0 75.5 31.5t25.5 80.5v284h129v-492h-123zM61 602v91h381v-91h-381z" />
    <glyph glyph-name="Ubreve" unicode="&#x16c;" horiz-adv-x="586" 
d="M23 0zM416 664h142v-443q0 -121 -71 -182.5t-202 -61.5q-121 0 -191.5 58t-70.5 178v451h141v-438q0 -62 31 -98t88 -36q133 0 133 129v443zM456 918q0 -42 -13.5 -73t-36 -51.5t-52 -31t-60.5 -10.5t-60.5 10.5t-52 31t-36 51.5t-13.5 73h82q2 -42 22.5 -64.5
t57.5 -22.5t57.5 22.5t22.5 64.5h82z" />
    <glyph glyph-name="ubreve" unicode="&#x16d;" horiz-adv-x="500" 
d="M26 0zM346 0v69q-50 -82 -153 -82q-37 0 -67.5 13t-52.5 37t-34.5 57t-12.5 74v324h130v-304q0 -92 83 -92q50 0 75.5 31.5t25.5 80.5v284h129v-492h-123zM413 746q0 -42 -13.5 -73t-36 -51.5t-52 -31t-60.5 -10.5t-60.5 10.5t-52 31t-36 51.5t-13.5 73h82
q2 -42 22.5 -64.5t57.5 -22.5t57.5 22.5t22.5 64.5h82z" />
    <glyph glyph-name="Uring" unicode="&#x16e;" horiz-adv-x="586" 
d="M23 0zM416 664h142v-443q0 -121 -71 -182.5t-202 -61.5q-121 0 -191.5 58t-70.5 178v451h141v-438q0 -62 31 -98t88 -36q133 0 133 129v443zM398 822q0 -47 -24 -71.5t-80 -24.5q-104 0 -104 96q0 46 25.5 71t78.5 25q56 0 80 -25t24 -71zM346 822q0 51 -52 51
q-50 0 -50 -51q0 -49 50 -49q52 0 52 49z" />
    <glyph glyph-name="uring" unicode="&#x16f;" horiz-adv-x="500" 
d="M26 0zM346 0v69q-50 -82 -153 -82q-37 0 -67.5 13t-52.5 37t-34.5 57t-12.5 74v324h130v-304q0 -92 83 -92q50 0 75.5 31.5t25.5 80.5v284h129v-492h-123zM355 650q0 -47 -24 -71.5t-80 -24.5q-104 0 -104 96q0 46 25.5 71t78.5 25q56 0 80 -25t24 -71zM303 650
q0 51 -52 51q-50 0 -50 -51q0 -49 50 -49q52 0 52 49z" />
    <glyph glyph-name="Uhungarumlaut" unicode="&#x170;" horiz-adv-x="586" 
d="M23 0zM416 664h142v-443q0 -121 -71 -182.5t-202 -61.5q-121 0 -191.5 58t-70.5 178v451h141v-438q0 -62 31 -98t88 -36q133 0 133 129v443zM174 774l136 147l44 -37l-143 -143zM331 741l-37 33l142 144l45 -37z" />
    <glyph glyph-name="uhungarumlaut" unicode="&#x171;" horiz-adv-x="500" 
d="M26 0zM346 0v69q-50 -82 -153 -82q-37 0 -67.5 13t-52.5 37t-34.5 57t-12.5 74v324h130v-304q0 -92 83 -92q50 0 75.5 31.5t25.5 80.5v284h129v-492h-123zM131 602l136 147l44 -37l-143 -143zM288 569l-37 33l142 144l45 -37z" />
    <glyph glyph-name="Uogonek" unicode="&#x172;" horiz-adv-x="586" 
d="M422 -207q-14 -11 -39 -18.5t-66 -7.5q-54 0 -82 23t-28 62t30 71t83 56q-8 -1 -17 -1.5t-18 -0.5q-121 0 -191.5 58t-70.5 178v451h141v-438q0 -62 31 -98t88 -36q133 0 133 129v443h142v-443q0 -86 -35.5 -141t-103.5 -81q-37 -17 -59 -29.5t-33 -22.5t-14.5 -19.5
t-3.5 -19.5q0 -17 17.5 -25t46.5 -8q14 0 27 2.5t22 5.5v-90z" />
    <glyph glyph-name="uogonek" unicode="&#x173;" horiz-adv-x="500" 
d="M469 -207q-14 -11 -39 -18.5t-66 -7.5q-54 0 -82 23t-28 62q0 49 47 86.5t125 61.5h-80v69q-50 -82 -153 -82q-37 0 -67.5 13t-52.5 37t-34.5 57t-12.5 74v324h130v-304q0 -92 83 -92q50 0 75.5 31.5t25.5 80.5v284h129v-492q-38 -17 -60.5 -29.5t-34 -23t-15 -20
t-3.5 -19.5q0 -17 17.5 -25t46.5 -8q14 0 27 2.5t22 5.5v-90z" />
    <glyph glyph-name="Wcircumflex" unicode="&#x174;" horiz-adv-x="856" 
d="M3 0zM529 0l-103 432l-105 -432h-130l-188 664h148l109 -430l92 430h146l101 -430l108 430h142l-186 -664h-134zM429 851l-135 -118l-46 51l128 134h106l128 -134l-46 -51z" />
    <glyph glyph-name="wcircumflex" unicode="&#x175;" horiz-adv-x="714" 
d="M3 0zM432 0l-78 286l-78 -286h-133l-140 492h137l80 -316l68 316h132l77 -316l75 316h134l-141 -492h-133zM358 679l-135 -118l-46 51l128 134h106l128 -134l-46 -51z" />
    <glyph glyph-name="Ycircumflex" unicode="&#x176;" horiz-adv-x="602" 
d="M3 0zM233 0v251l-230 413h162l140 -270l129 270h160l-222 -415v-249h-139zM310 851l-135 -118l-46 51l128 134h106l128 -134l-46 -51z" />
    <glyph glyph-name="ycircumflex" unicode="&#x177;" horiz-adv-x="502" 
d="M26 0zM339 65q-14 -33 -50.5 -51.5t-82.5 -18.5q-39 0 -72 12.5t-57 36t-37.5 56t-13.5 73.5v319h130v-300q0 -92 83 -92q45 0 72.5 26t27.5 66v300h130v-505q0 -52 -17.5 -93t-48 -69t-72 -43t-88.5 -15q-109 0 -163 55t-54 151h121q0 -44 25.5 -69t76.5 -25
q18 0 34 7.5t28.5 21t20 33.5t7.5 44v80zM252 679l-135 -118l-46 51l128 134h106l128 -134l-46 -51z" />
    <glyph glyph-name="Ydieresis" unicode="&#x178;" horiz-adv-x="602" 
d="M3 0zM233 0v251l-230 413h162l140 -270l129 270h160l-222 -415v-249h-139zM140 751v124h130v-124h-130zM340 751v124h130v-124h-130z" />
    <glyph glyph-name="Ydieresis" unicode="&#x3ab;" horiz-adv-x="602" 
d="M3 0zM233 0v251l-230 413h162l140 -270l129 270h160l-222 -415v-249h-139zM140 751v124h130v-124h-130zM340 751v124h130v-124h-130z" />
    <glyph glyph-name="Zacute" unicode="&#x179;" horiz-adv-x="532" 
d="M4 0zM4 0v118l345 430h-335v116h509v-109l-347 -437h347v-118h-519zM201 726l-31 55l207 121l47 -82z" />
    <glyph glyph-name="zacute" unicode="&#x17a;" horiz-adv-x="445" 
d="M9 0zM9 0v100l251 289h-234v103h400v-105l-251 -281h258v-106h-424zM158 554l-31 55l207 121l47 -82z" />
    <glyph glyph-name="Zdotaccent" unicode="&#x17b;" horiz-adv-x="532" 
d="M4 0zM4 0v118l345 430h-335v116h509v-109l-347 -437h347v-118h-519zM207 751v124h130v-124h-130z" />
    <glyph glyph-name="zdotaccent" unicode="&#x17c;" horiz-adv-x="445" 
d="M9 0zM9 0v100l251 289h-234v103h400v-105l-251 -281h258v-106h-424zM163 579v124h130v-124h-130z" />
    <glyph glyph-name="Zcaron" unicode="&#x17d;" horiz-adv-x="532" 
d="M4 0zM4 0v118l345 430h-335v116h509v-109l-347 -437h347v-118h-519zM215 733l-128 134l46 51l135 -118l135 118l46 -51l-128 -134h-106z" />
    <glyph glyph-name="zcaron" unicode="&#x17e;" horiz-adv-x="445" 
d="M9 0zM9 0v100l251 289h-234v103h400v-105l-251 -281h258v-106h-424zM171 561l-128 134l46 51l135 -118l135 118l46 -51l-128 -134h-106z" />
    <glyph glyph-name="uni018E" unicode="&#x18e;" horiz-adv-x="532" 
d="M3 0v115h371v175h-327v115h327v146h-355v113h486v-664h-502z" />
    <glyph glyph-name="uni018F" unicode="&#x18f;" horiz-adv-x="670" 
d="M338 -23q-86 0 -146 27.5t-97 77t-53.5 117.5t-16.5 149v14.5t1 15.5h492q-8 94 -53.5 141t-125.5 47q-63 0 -102.5 -29.5t-59.5 -87.5h-141q26 113 101 175t199 62q76 0 135 -24.5t99.5 -71t61 -114t20.5 -152.5q0 -173 -82 -260t-232 -87zM336 93q38 0 70 11t56 34
t38.5 58t17.5 84h-365q10 -98 59 -142.5t124 -44.5z" />
    <glyph glyph-name="uni018F" unicode="&#x4d8;" horiz-adv-x="670" 
d="M338 -23q-86 0 -146 27.5t-97 77t-53.5 117.5t-16.5 149v14.5t1 15.5h492q-8 94 -53.5 141t-125.5 47q-63 0 -102.5 -29.5t-59.5 -87.5h-141q26 113 101 175t199 62q76 0 135 -24.5t99.5 -71t61 -114t20.5 -152.5q0 -173 -82 -260t-232 -87zM336 93q38 0 70 11t56 34
t38.5 58t17.5 84h-365q10 -98 59 -142.5t124 -44.5z" />
    <glyph glyph-name="florin" unicode="&#x192;" horiz-adv-x="538" 
d="M22 -173v112h72q26 0 42.5 19t22.5 61l50 345h-70v101h84l4 24q7 51 28 86t51 56.5t68 31t79 9.5h57v-112h-73q-26 0 -42.5 -19t-22.5 -61l-2 -15h87v-101h-102l-51 -354q-8 -51 -28.5 -86t-50.5 -56.5t-68 -31t-79 -9.5h-56z" />
    <glyph glyph-name="uni0194" unicode="&#x194;" horiz-adv-x="593" 
d="M296 -233q-76 0 -113 30t-37 107q0 14 2.5 31.5t11.5 47.5t26.5 76t47.5 118l-228 487h145l145 -342l145 342h144l-228 -486q31 -72 48.5 -118.5t26.5 -76t11 -47t2 -31.5q0 -77 -36.5 -107.5t-112.5 -30.5zM296 46q-15 -31 -24.5 -54.5t-15.5 -41.5t-8.5 -32.5
t-2.5 -26.5q0 -28 12 -42t39 -14t38.5 14t11.5 42q0 12 -2.5 26t-8 32.5t-15 42t-24.5 54.5z" />
    <glyph glyph-name="uni019D" unicode="&#x19d;" horiz-adv-x="591" 
d="M440 0l-288 452v-485q0 -45 -15 -81.5t-41 -63t-61.5 -41t-77.5 -14.5q-20 0 -38 3v119q12 -9 34 -9q38 0 55.5 25t17.5 67v692h144l269 -433v433h127v-664h-126z" />
    <glyph glyph-name="Ohorn" unicode="&#x1a0;" horiz-adv-x="769" 
d="M752 702q10 -11 15.5 -32.5t5.5 -45.5q0 -57 -25.5 -82t-66.5 -25q-35 0 -74 15q44 -85 44 -209q0 -172 -81.5 -259t-235.5 -87t-236.5 90t-82.5 259q0 84 21 151t62 113.5t100 71t136 24.5q126 0 206 -68q24 -20 50 -27.5t53 -7.5q29 0 38.5 19.5t9.5 43.5q0 17 -2.5 32
t-6.5 24h70zM334 96q37 0 70 13.5t57.5 41t38.5 70.5t14 102q0 118 -46 179t-134 61t-135 -61t-47 -179t47.5 -172.5t134.5 -54.5z" />
    <glyph glyph-name="ohorn" unicode="&#x1a1;" horiz-adv-x="651" 
d="M634 543q10 -11 15.5 -32.5t5.5 -45.5q0 -20 -4 -39t-13.5 -34t-25 -24.5t-37.5 -9.5q-49 0 -83 14q26 -55 26 -126q0 -59 -17.5 -106.5t-50 -81.5t-79 -52.5t-103.5 -18.5q-60 0 -107 19t-79.5 53t-49.5 82t-17 105q0 58 17.5 106t50.5 82t79.5 52.5t105.5 18.5
q91 0 154 -46q30 -22 54.5 -28.5t48.5 -6.5q29 0 38.5 19.5t9.5 43.5q0 17 -2.5 32t-6.5 24h70zM268 96q119 0 119 150q0 149 -119 149t-119 -149q0 -150 119 -150z" />
    <glyph glyph-name="Uhorn" unicode="&#x1af;" horiz-adv-x="748" 
d="M416 664h142v-73q14 -5 27.5 -6.5t22.5 -1.5q27 0 40 14t13 49q0 17 -2.5 32t-6.5 24h70q10 -11 15.5 -32.5t5.5 -46.5q0 -56 -26.5 -81.5t-67.5 -25.5q-44 0 -91 26v-321q0 -121 -71 -182.5t-200 -61.5q-123 0 -193.5 58t-70.5 178v451h141v-438q0 -62 30.5 -98
t95.5 -36q59 0 92.5 31.5t33.5 97.5v443z" />
    <glyph glyph-name="uhorn" unicode="&#x1b0;" horiz-adv-x="638" 
d="M346 0v69q-26 -43 -65 -62.5t-85 -19.5q-39 0 -70 13t-53.5 37t-34.5 57t-12 74v324h130v-304q0 -92 82 -92q51 0 76.5 31t25.5 81v284h129v-64q11 -2 21.5 -3t16.5 -1q32 0 42 18t10 44q0 17 -2.5 32.5t-6.5 24.5h70q10 -11 15.5 -32.5t5.5 -46.5q0 -56 -26 -81t-67 -25
q-37 0 -79 18v-376h-123z" />
    <glyph glyph-name="uni01DD" unicode="&#x1dd;" 
d="M153 198q1 -27 9.5 -47.5t22.5 -34t32 -20t37 -6.5q39 0 67.5 28.5t32.5 79.5h-201zM358 280q-3 56 -32.5 89t-77.5 33q-32 0 -56.5 -14.5t-31.5 -40.5h-134q23 76 80 117t136 41q246 0 246 -268q0 -57 -16 -103t-46.5 -79t-74.5 -50.5t-101 -17.5q-114 0 -172.5 73
t-58.5 220h339z" />
    <glyph glyph-name="uni01DD" unicode="&#x4d9;" 
d="M153 198q1 -27 9.5 -47.5t22.5 -34t32 -20t37 -6.5q39 0 67.5 28.5t32.5 79.5h-201zM358 280q-3 56 -32.5 89t-77.5 33q-32 0 -56.5 -14.5t-31.5 -40.5h-134q23 76 80 117t136 41q246 0 246 -268q0 -57 -16 -103t-46.5 -79t-74.5 -50.5t-101 -17.5q-114 0 -172.5 73
t-58.5 220h339z" />
    <glyph glyph-name="uni01E6" unicode="&#x1e6;" horiz-adv-x="658" 
d="M15 0zM518 0l-3 66q-24 -42 -77 -65.5t-122 -23.5t-124.5 29.5t-95 79t-60.5 114t-21 133.5q0 73 21 137.5t62 112.5t102 75.5t142 27.5q59 0 110.5 -17t90 -47t62 -71.5t27.5 -91.5h-140q-3 23 -16 43.5t-33 35.5t-46.5 24t-54.5 9q-84 0 -134.5 -62.5t-50.5 -181.5
q0 -41 10.5 -82.5t33 -75t57.5 -54.5t83 -21q34 0 63.5 12t51.5 33t34.5 48.5t12.5 58.5h-147v111h277v-357h-115zM277 733l-128 134l46 51l135 -118l135 118l46 -51l-128 -134h-106z" />
    <glyph glyph-name="uni01E7" unicode="&#x1e7;" horiz-adv-x="530" 
d="M16 0zM262 98q48 0 79.5 36.5t31.5 99.5q0 158 -111 158t-111 -150q0 -66 31.5 -105t79.5 -39zM369 66q-14 -33 -50.5 -51.5t-84.5 -18.5q-61 0 -102.5 21.5t-67 56.5t-37 81t-11.5 94q0 57 17 104.5t46 81t68 52t84 18.5q92 0 138 -74v61h130v-497q0 -56 -19 -98.5
t-52 -71t-78 -43.5t-96 -15t-95 14.5t-75.5 41t-49.5 64.5t-18 86h121q0 -45 29.5 -69.5t78.5 -24.5q52 0 88 28.5t36 77.5v81zM206 561l-128 134l46 51l135 -118l135 118l46 -51l-128 -134h-106z" />
    <glyph glyph-name="uni01F4" unicode="&#x1f4;" horiz-adv-x="658" 
d="M15 0zM518 0l-3 66q-24 -42 -77 -65.5t-122 -23.5t-124.5 29.5t-95 79t-60.5 114t-21 133.5q0 73 21 137.5t62 112.5t102 75.5t142 27.5q59 0 110.5 -17t90 -47t62 -71.5t27.5 -91.5h-140q-3 23 -16 43.5t-33 35.5t-46.5 24t-54.5 9q-84 0 -134.5 -62.5t-50.5 -181.5
q0 -41 10.5 -82.5t33 -75t57.5 -54.5t83 -21q34 0 63.5 12t51.5 33t34.5 48.5t12.5 58.5h-147v111h277v-357h-115zM264 726l-31 55l207 121l47 -82z" />
    <glyph glyph-name="uni01F5" unicode="&#x1f5;" horiz-adv-x="530" 
d="M16 0zM262 98q48 0 79.5 36.5t31.5 99.5q0 158 -111 158t-111 -150q0 -66 31.5 -105t79.5 -39zM369 66q-14 -33 -50.5 -51.5t-84.5 -18.5q-61 0 -102.5 21.5t-67 56.5t-37 81t-11.5 94q0 57 17 104.5t46 81t68 52t84 18.5q92 0 138 -74v61h130v-497q0 -56 -19 -98.5
t-52 -71t-78 -43.5t-96 -15t-95 14.5t-75.5 41t-49.5 64.5t-18 86h121q0 -45 29.5 -69.5t78.5 -24.5q52 0 88 28.5t36 77.5v81zM192 554l-31 55l207 121l47 -82z" />
    <glyph glyph-name="uni01F8" unicode="&#x1f8;" horiz-adv-x="591" 
d="M23 0zM436 0l-284 446v-446h-129v664h147l264 -427v427h130v-664h-128zM139 820l47 82l207 -121l-31 -55z" />
    <glyph glyph-name="uni01F9" unicode="&#x1f9;" 
d="M26 0zM341 0v298q0 57 -19 77t-65 20q-101 0 -101 -113v-282h-130v492h124v-72q23 42 61 63.5t98 21.5q35 0 65 -10.5t51.5 -31.5t34 -51.5t12.5 -70.5v-341h-131zM95 648l47 82l207 -121l-31 -55z" />
    <glyph glyph-name="dotlessj" unicode="&#x237;" horiz-adv-x="195" 
d="M36 492h131v-525q0 -45 -15 -81.5t-41 -63t-61.5 -41t-76.5 -14.5q-101 0 -149.5 55.5t-48.5 150.5h122q0 -42 15.5 -66.5t53.5 -24.5q39 0 54.5 24t15.5 66v520z" />
    <glyph glyph-name="uni0241" unicode="&#x241;" horiz-adv-x="491" 
d="M177 0v197q0 54 16 100t66 81q12 8 27 17.5t28.5 22.5t22.5 31t9 45q0 24 -8.5 41t-22 27.5t-32 15t-37.5 4.5q-28 0 -47 -8t-31.5 -23t-18.5 -35.5t-7 -44.5h-123q0 99 55.5 157t176.5 58q107 0 165.5 -48t58.5 -143q0 -31 -6.5 -53t-18.5 -39t-29 -32t-39 -31
q-21 -16 -34.5 -29.5t-21 -29.5t-10.5 -36t-3 -48v-197h-136z" />
    <glyph glyph-name="uni0242" unicode="&#x242;" horiz-adv-x="491" 
d="M182 0v78q0 60 20 95t59 63q22 15 37 27t25 22.5t14.5 21.5t4.5 25q0 36 -24 51.5t-64 15.5q-30 0 -50 -7t-32.5 -18.5t-17.5 -26t-5 -29.5h-128q0 86 55 136.5t174 50.5q106 0 163.5 -42t57.5 -127q0 -26 -6 -44.5t-17.5 -33t-28.5 -27.5t-40 -29q-20 -14 -33.5 -25
t-21.5 -24t-11.5 -30.5t-3.5 -44.5v-78h-127z" />
    <glyph glyph-name="uni024C" unicode="&#x24c;" horiz-adv-x="700" 
d="M532 0v171q0 48 -22 68.5t-82 20.5h-148v-260h-135v260h-145v112h145v292h337q46 0 83.5 -14.5t64.5 -40t41.5 -61t14.5 -76.5q0 -54 -25.5 -95.5t-73.5 -58.5q44 -14 62.5 -43t18.5 -87v-188h-136zM280 549v-177h174q56 0 79 25t23 63q0 39 -22.5 64t-74.5 25h-179z" />
    <glyph glyph-name="uni024D" unicode="&#x24d;" horiz-adv-x="390" 
d="M96 0v173h-96v91h96v228h122v-59q16 25 33.5 39t36 21.5t37.5 9.5t39 2h17v-133q-18 3 -36 3q-116 0 -119 -111h155v-91h-155v-173h-130z" />
    <glyph glyph-name="uni0263" unicode="&#x263;" horiz-adv-x="501" 
d="M250 -233q-34 0 -62 6t-47.5 20t-30 38t-10.5 60q0 10 2 23t11 37.5t27 67t50 112.5l-184 361h138l105 -232l106 232h139l-186 -362q32 -70 50.5 -112t27.5 -67t11 -37.5t2 -22.5q0 -36 -10.5 -60t-30 -38t-47 -20t-61.5 -6zM249 14q-24 -49 -33 -76.5t-9 -47.5
q0 -22 9.5 -33.5t32.5 -11.5t33.5 11.5t10.5 28.5q0 12 -4.5 30.5t-11 37.5t-14 35.5t-13.5 24.5z" />
    <glyph glyph-name="uni0272" unicode="&#x272;" 
d="M156 -33q0 -45 -15 -81.5t-40.5 -63t-61 -41t-75.5 -14.5q-9 0 -16.5 0.5t-14.5 1.5v116q5 -2 10.5 -3.5t14.5 -1.5q25 0 39 11t20.5 30t7.5 45t1 57v469h124v-72q46 85 155 85q75 0 121 -41.5t46 -122.5v-341h-131v298q0 56 -18 76.5t-62 20.5q-54 0 -79.5 -27.5
t-25.5 -85.5v-315z" />
    <glyph glyph-name="circumflex" unicode="&#x2c6;" horiz-adv-x="460" 
d="M231 679l-135 -118l-46 51l128 134h106l128 -134l-46 -51z" />
    <glyph glyph-name="caron" unicode="&#x2c7;" horiz-adv-x="459" 
d="M178 561l-128 134l46 51l135 -118l135 118l46 -51l-128 -134h-106z" />
    <glyph glyph-name="uni02C9" unicode="&#x2c9;" horiz-adv-x="478" 
d="M50 602zM50 602v91h381v-91h-381z" />
    <glyph glyph-name="breve" unicode="&#x2d8;" horiz-adv-x="422" 
d="M374 746q0 -42 -13.5 -73t-36 -51.5t-52 -31t-60.5 -10.5t-60.5 10.5t-52 31t-36 51.5t-13.5 73h82q2 -42 22.5 -64.5t57.5 -22.5t57.5 22.5t22.5 64.5h82z" />
    <glyph glyph-name="dotaccent" unicode="&#x2d9;" horiz-adv-x="220" 
d="M50 579v124h130v-124h-130z" />
    <glyph glyph-name="ring" unicode="&#x2da;" horiz-adv-x="306" 
d="M258 650q0 -47 -24 -71.5t-80 -24.5q-104 0 -104 96q0 46 25.5 71t78.5 25q56 0 80 -25t24 -71zM206 650q0 51 -52 51q-50 0 -50 -51q0 -49 50 -49q52 0 52 49z" />
    <glyph glyph-name="ogonek" unicode="&#x2db;" horiz-adv-x="313" 
d="M265 -207q-14 -11 -39 -18.5t-66 -7.5q-54 0 -82 23t-28 62q0 49 47 86.5t125 61.5h43q-38 -17 -60.5 -29.5t-34 -23t-15 -20t-3.5 -19.5q0 -17 17.5 -25t46.5 -8q14 0 27 2.5t22 5.5v-90z" />
    <glyph glyph-name="tilde" unicode="&#x2dc;" horiz-adv-x="443" 
d="M395 674q-17 -54 -47 -76t-62 -22q-19 0 -35.5 7t-31.5 15.5t-30 15.5t-31 7q-6 0 -18 -8t-21 -36l-69 37q16 49 41 68.5t56 19.5q23 0 41 -7.5t34 -16.5t30 -16.5t28 -7.5q9 0 22 10.5t18 36.5z" />
    <glyph glyph-name="hungarumlaut" unicode="&#x2dd;" horiz-adv-x="397" 
d="M50 602l136 147l44 -37l-143 -143zM207 569l-37 33l142 144l45 -37z" />
    <glyph glyph-name="gravecomb" unicode="&#x300;" horiz-adv-x="0" 
d="M-152 554zM-406 648l47 82l207 -121l-31 -55z" />
    <glyph glyph-name="acutecomb" unicode="&#x301;" horiz-adv-x="0" 
d="M-92 554zM-315 554l-31 55l207 121l47 -82z" />
    <glyph glyph-name="uni0302" unicode="&#x302;" horiz-adv-x="0" 
d="M-68 561zM-249 679l-135 -118l-46 51l128 134h106l128 -134l-46 -51z" />
    <glyph glyph-name="tildecomb" unicode="&#x303;" horiz-adv-x="370" 
d="M315 732q-9 -36 -31.5 -48.5t-46.5 -12.5q-12 0 -26 3t-27.5 7t-25.5 7t-21 3q-16 0 -28 -32l-49 20q9 34 28 48.5t42 14.5q18 0 32 -3.5t26.5 -8t24 -8t23.5 -3.5q11 0 18 5.5t10 21.5zM288 554l-102 70l-101 -70l-35 30l96 80h80l96 -80z" />
    <glyph glyph-name="uni0304" unicode="&#x304;" horiz-adv-x="0" 
d="M-59 602zM-440 602v91h381v-91h-381z" />
    <glyph glyph-name="uni0306" unicode="&#x306;" horiz-adv-x="0" 
d="M-88 580zM-88 746q0 -42 -13.5 -73t-36 -51.5t-52 -31t-60.5 -10.5t-60.5 10.5t-52 31t-36 51.5t-13.5 73h82q2 -42 22.5 -64.5t57.5 -22.5t57.5 22.5t22.5 64.5h82z" />
    <glyph glyph-name="uni0307" unicode="&#x307;" horiz-adv-x="0" 
d="M-181 579zM-311 579v124h130v-124h-130z" />
    <glyph glyph-name="uni0308" unicode="&#x308;" horiz-adv-x="0" 
d="M-81 579zM-411 579v124h130v-124h-130zM-211 579v124h130v-124h-130z" />
    <glyph glyph-name="hookabovecomb" unicode="&#x309;" horiz-adv-x="243" 
d="M85 581q0 17 5 30.5t20 22.5q11 6 17 12t6 18q0 17 -24 17q-8 0 -18 -3t-23 -12l-18 55q15 13 35.5 19t34.5 6q35 0 54.5 -16.5t19.5 -44.5q0 -21 -9 -33.5t-20.5 -22t-20.5 -20t-9 -28.5h-50z" />
    <glyph glyph-name="uni030A" unicode="&#x30a;" horiz-adv-x="0" 
d="M-146 554zM-146 650q0 -47 -24 -71.5t-80 -24.5q-104 0 -104 96q0 46 25.5 71t78.5 25q56 0 80 -25t24 -71zM-198 650q0 51 -52 51q-50 0 -50 -51q0 -49 50 -49q52 0 52 49z" />
    <glyph glyph-name="uni030B" unicode="&#x30b;" horiz-adv-x="0" 
d="M-68 569zM-375 602l136 147l44 -37l-143 -143zM-218 569l-37 33l142 144l45 -37z" />
    <glyph glyph-name="uni030C" unicode="&#x30c;" horiz-adv-x="0" 
d="M-68 561zM-302 561l-128 134l46 51l135 -118l135 118l46 -51l-128 -134h-106z" />
    <glyph glyph-name="uni0313" unicode="&#x313;" horiz-adv-x="0" 
d="M-198 551zM-197.997 698.988q-61.9961 -5 -63.9961 -64.9961h63.9961v-81.9951h-114.993v53.9971q0 26.998 5.5 50.4971q5.5 23.498 18.499 41.4971t35.498 29.498q22.498 11.5 55.4961 14.499v-42.9971z" />
    <glyph glyph-name="uni031B" unicode="&#x31b;" horiz-adv-x="151" 
d="M-31 430q13 -5 26 -6.5t22 -1.5q34 0 44 19t10 42q0 20 -3.5 35.5t-6.5 24.5h68q11 -11 16.5 -32.5t5.5 -46.5q0 -56 -27 -81.5t-68 -25.5q-42 0 -87 24v49z" />
    <glyph glyph-name="dotbelowcomb" unicode="&#x323;" horiz-adv-x="220" 
d="M50 -206v124h130v-124h-130z" />
    <glyph glyph-name="uni0326" unicode="&#x326;" horiz-adv-x="0" 
d="M-189 -43zM-304 -190q62 5 64 65h-64v82h115v-54q0 -27 -5.5 -50.5t-18.5 -41.5t-35.5 -29.5t-55.5 -14.5v43z" />
    <glyph glyph-name="uni0328" unicode="&#x328;" horiz-adv-x="0" 
d="M-143 0zM-143 -207q-14 -11 -39 -18.5t-66 -7.5q-54 0 -82 23t-28 62q0 49 47 86.5t125 61.5h43q-38 -17 -60.5 -29.5t-34 -23t-15 -20t-3.5 -19.5q0 -17 17.5 -25t46.5 -8q14 0 27 2.5t22 5.5v-90z" />
    <glyph glyph-name="uni032D" unicode="&#x32d;" horiz-adv-x="0" 
d="M-69 -42zM-250 -109l-135 -118l-46 51l128 134h106l128 -134l-46 -51z" />
    <glyph glyph-name="tonos" unicode="&#x384;" horiz-adv-x="150" 
d="M23 414q1 63 1.5 125t2.5 125h117l-40 -250h-81z" />
    <glyph glyph-name="dieresistonos" unicode="&#x385;" horiz-adv-x="0" 
d="M-30 544zM-292 544q1 63 1.5 125t2.5 125h117l-40 -250h-81zM-160 579v124h130v-124h-130zM-444 579v124h130v-124h-130z" />
    <glyph glyph-name="Alphatonos" unicode="&#x386;" horiz-adv-x="672" 
d="M23 0zM348 515h-1l-85 -264h169zM513 0l-42 137h-245l-47 -137h-147l237 664h161l234 -664h-151zM23 414q1 63 1.5 125t2.5 125h117l-40 -250h-81z" />
    <glyph glyph-name="anoteleia" unicode="&#x387;" horiz-adv-x="187" 
d="M23 357zM23 357v135h139v-135h-139z" />
    <glyph glyph-name="Epsilontonos" unicode="&#x388;" horiz-adv-x="681" 
d="M23 0zM173 0v664h488v-116h-353v-142h325v-117h-325v-171h369v-118h-504zM23 414q1 63 1.5 125t2.5 125h117l-40 -250h-81z" />
    <glyph glyph-name="Etatonos" unicode="&#x389;" horiz-adv-x="737" 
d="M23 0zM571 0v298h-259v-298h-139v664h139v-250h259v250h140v-664h-140zM23 414q1 63 1.5 125t2.5 125h117l-40 -250h-81z" />
    <glyph glyph-name="Iotatonos" unicode="&#x38a;" horiz-adv-x="337" 
d="M23 0zM173 0v664h139v-664h-139zM23 414q1 63 1.5 125t2.5 125h117l-40 -250h-81z" />
    <glyph glyph-name="Omicrontonos" unicode="&#x38c;" horiz-adv-x="776" 
d="M23 0zM440 96q37 0 70 13.5t57.5 41t38.5 70.5t14 102q0 118 -46 179t-134 61t-135 -61t-47 -179t47.5 -172.5t134.5 -54.5zM440 -23q-154 0 -236.5 90t-82.5 259q0 84 21 151t62 113.5t100 71t136 24.5q76 0 135.5 -24.5t99.5 -71.5t61 -114.5t21 -152.5
q0 -172 -81.5 -259t-235.5 -87zM23 414q1 63 1.5 125t2.5 125h117l-40 -250h-81z" />
    <glyph glyph-name="Upsilontonos" unicode="&#x38e;" horiz-adv-x="750" 
d="M23 0zM381 0v251l-230 413h162l140 -270l129 270h160l-222 -415v-249h-139zM23 414q1 63 1.5 125t2.5 125h117l-40 -250h-81z" />
    <glyph glyph-name="Omegatonos" unicode="&#x38f;" horiz-adv-x="767" 
d="M23 0zM499 0v100q48 46 74.5 116t26.5 177q0 94 -41 138t-120 44t-119.5 -44t-40.5 -138q0 -53 8 -97t21.5 -80t31.5 -65t39 -51v-100h-239v110h99q-23 17 -43 45t-35 65t-24 81t-9 93q0 68 18.5 122t57 92t97 58t138.5 20q160 0 235.5 -78t75.5 -214q0 -49 -9 -93
t-24 -81t-35.5 -65t-42.5 -45h99v-110h-239zM23 414q1 63 1.5 125t2.5 125h117l-40 -250h-81z" />
    <glyph glyph-name="iotadieresistonos" unicode="&#x390;" horiz-adv-x="397" 
d="M0 0zM124 492h124v-333q0 -29 14 -43t40 -14h29v-102h-64q-143 0 -143 143v349zM141 544q1 63 1.5 125t2.5 125h117l-40 -250h-81zM274 579v124h130v-124h-130zM-10 579v124h130v-124h-130z" />
    <glyph glyph-name="uni0413" unicode="&#x393;" horiz-adv-x="501" 
d="M489 664v-113h-331v-551h-136v664h467z" />
    <glyph glyph-name="uni0413" unicode="&#x413;" horiz-adv-x="501" 
d="M489 664v-113h-331v-551h-136v664h467z" />
    <glyph glyph-name="Delta" unicode="&#x394;" horiz-adv-x="643" 
d="M3 0l237 664h161l234 -664h-632zM187 114h260l-128 401h-1z" />
    <glyph glyph-name="Theta" unicode="&#x398;" horiz-adv-x="670" 
d="M332 94q42 0 77.5 13t61.5 41t41 72.5t15 107.5q0 115 -49 176.5t-142 61.5t-143 -61.5t-50 -179.5q0 -120 51 -175.5t138 -55.5zM338 -23q-156 0 -238 90t-82 259q0 84 21 151t61.5 113.5t99.5 71t136 24.5q76 0 135 -24.5t99.5 -71.5t61 -114.5t20.5 -152.5
q0 -172 -81 -259t-233 -87zM200 391h271v-101h-271v101z" />
    <glyph glyph-name="Lambda" unicode="&#x39b;" horiz-adv-x="593" 
d="M364 664l225 -664h-148l-145 466l-144 -466h-144l225 664h131z" />
    <glyph glyph-name="Xi" unicode="&#x39e;" horiz-adv-x="532" 
d="M47 290v115h438v-115h-438zM19 551v113h494v-113h-494zM3 0v115h525v-115h-525z" />
    <glyph glyph-name="uni041F" unicode="&#x3a0;" horiz-adv-x="587" 
d="M426 0v551h-264v-551h-136v664h537v-664h-137z" />
    <glyph glyph-name="uni041F" unicode="&#x41f;" horiz-adv-x="587" 
d="M426 0v551h-264v-551h-136v664h537v-664h-137z" />
    <glyph glyph-name="Sigma" unicode="&#x3a3;" horiz-adv-x="532" 
d="M6 558v106h506v-113h-342l178 -214l-179 -222h357v-115h-519v115l182 220z" />
    <glyph glyph-name="uni0424" unicode="&#x3a6;" horiz-adv-x="712" 
d="M291 0v94q-136 11 -207 71t-71 166q0 107 71.5 170t206.5 75v88h131v-88q134 -13 205 -75.5t71 -169.5t-71 -167t-205 -71v-93h-131zM142 332q0 -71 41.5 -106.5t107.5 -46.5v309q-69 -11 -109 -49t-40 -107zM569 331q0 69 -39.5 107t-107.5 50v-309q32 5 59 16.5
t46.5 29.5t30.5 44.5t11 61.5z" />
    <glyph glyph-name="uni0424" unicode="&#x424;" horiz-adv-x="712" 
d="M291 0v94q-136 11 -207 71t-71 166q0 107 71.5 170t206.5 75v88h131v-88q134 -13 205 -75.5t71 -169.5t-71 -167t-205 -71v-93h-131zM142 332q0 -71 41.5 -106.5t107.5 -46.5v309q-69 -11 -109 -49t-40 -107zM569 331q0 69 -39.5 107t-107.5 50v-309q32 5 59 16.5
t46.5 29.5t30.5 44.5t11 61.5z" />
    <glyph glyph-name="Psi" unicode="&#x3a8;" horiz-adv-x="658" 
d="M264 0v165q-69 5 -116 21.5t-75.5 44.5t-40.5 68t-12 91v274h134v-261q0 -54 25 -86t85 -43v390h129v-390q60 11 84.5 43.5t24.5 86.5v260h136v-272q0 -51 -13 -91t-42 -68.5t-76 -45.5t-114 -22v-165h-129z" />
    <glyph glyph-name="Omega" unicode="&#x3a9;" horiz-adv-x="651" 
d="M383 0v100q48 46 74.5 116t26.5 177q0 94 -41 138t-120 44t-119.5 -44t-40.5 -138q0 -53 8 -97t21.5 -80t31.5 -65t39 -51v-100h-239v110h99q-23 17 -43 45t-35 65t-24 81t-9 93q0 68 18.5 122t57 92t97 58t138.5 20q160 0 235.5 -78t75.5 -214q0 -49 -9 -93t-24 -81
t-35.5 -65t-42.5 -45h99v-110h-239z" />
    <glyph glyph-name="alphatonos" unicode="&#x3ac;" horiz-adv-x="583" 
d="M19 0zM379 81q-11 -20 -25 -37t-32.5 -29.5t-43 -20t-55.5 -7.5q-49 0 -87 18.5t-64 52t-39.5 80t-13.5 102.5q0 62 16 111.5t44 83.5t66 52t82 18q46 0 84.5 -22t58.5 -73v82h123v-335q0 -55 53 -55h30v-102h-64q-108 0 -133 81zM257 95q57 0 86.5 39t29.5 113
q0 80 -32.5 117t-82.5 37q-51 0 -81 -36.5t-30 -117.5q0 -82 30 -117t80 -35zM234 544q1 63 1.5 125t2.5 125h117l-40 -250h-81z" />
    <glyph glyph-name="epsilontonos" unicode="&#x3ad;" horiz-adv-x="469" 
d="M10 0zM228 217q-47 0 -69 -15t-22 -51q0 -41 26.5 -57t67.5 -16q54 0 76.5 22t24.5 64h128q-3 -35 -16.5 -67t-41.5 -56.5t-70 -39t-102 -14.5q-51 0 -91.5 11t-69 31t-44 49t-15.5 65q0 53 31 83t73 38q-41 11 -64.5 38t-23.5 69q0 59 50.5 96.5t153.5 37.5
q59 0 100.5 -13t68.5 -35.5t40.5 -53t16.5 -64.5h-128q0 41 -21.5 60t-72.5 19q-86 0 -86 -57q0 -32 23.5 -46t59.5 -14h42v-84h-45zM193 544q1 63 1.5 125t2.5 125h117l-40 -250h-81z" />
    <glyph glyph-name="etatonos" unicode="&#x3ae;" 
d="M26 0zM341 -233v531q0 57 -19 77t-65 20q-101 0 -101 -113v-282h-130v492h124v-72q23 42 61 63.5t98 21.5q35 0 65 -10.5t51.5 -31.5t34 -51.5t12.5 -70.5v-574h-131zM213 544q1 63 1.5 125t2.5 125h117l-40 -250h-81z" />
    <glyph glyph-name="iotatonos" unicode="&#x3af;" horiz-adv-x="243" 
d="M29 0zM29 492h124v-333q0 -29 14 -43t40 -14h29v-102h-64q-143 0 -143 143v349zM43 544q1 63 1.5 125t2.5 125h117l-40 -250h-81z" />
    <glyph glyph-name="upsilondieresistonos" unicode="&#x3b0;" horiz-adv-x="497" 
d="M29 0zM198 544q1 63 1.5 125t2.5 125h117l-40 -250h-81zM249 -13q-108 0 -164 39.5t-56 136.5v329h127v-309q0 -49 21.5 -70.5t72.5 -21.5q52 0 73.5 21.5t21.5 70.5v309h124v-329q0 -97 -56.5 -136.5t-163.5 -39.5zM330 579v124h130v-124h-130zM46 579v124h130v-124
h-130z" />
    <glyph glyph-name="alpha" unicode="&#x3b1;" horiz-adv-x="583" 
d="M379 81q-11 -20 -25 -37t-32.5 -29.5t-43 -20t-55.5 -7.5q-49 0 -87 18.5t-64 52t-39.5 80t-13.5 102.5q0 62 16 111.5t44 83.5t66 52t82 18q46 0 84.5 -22t58.5 -73v82h123v-335q0 -55 53 -55h30v-102h-64q-108 0 -133 81zM257 95q57 0 86.5 39t29.5 113q0 80 -32.5 117
t-82.5 37q-51 0 -81 -36.5t-30 -117.5q0 -82 30 -117t80 -35z" />
    <glyph glyph-name="beta" unicode="&#x3b2;" horiz-adv-x="510" 
d="M281 -12q-38 0 -70 8t-57 22v-251h-125v731q0 40 11.5 73t37 57t67 37.5t102.5 13.5q60 0 100.5 -12.5t66 -35t36.5 -53t11 -65.5q0 -32 -7.5 -54t-19.5 -37.5t-27.5 -25t-30.5 -15.5q66 -20 94.5 -68t28.5 -112q0 -50 -16 -89t-44.5 -67t-68.5 -42.5t-89 -14.5zM154 124
q20 -14 46 -23t58 -9q62 0 89 32t27 83q0 33 -10 55.5t-28 37t-43 21t-55 6.5h-9v80h8q28 0 47 6.5t29.5 18t15 26.5t4.5 32q0 48 -25 68t-63 20q-40 0 -65.5 -20.5t-25.5 -65.5v-368z" />
    <glyph glyph-name="uni04AF" unicode="&#x3b3;" horiz-adv-x="501" 
d="M188 -233v228l-182 497h142l105 -329l107 329h134l-182 -497v-228h-124z" />
    <glyph glyph-name="uni04AF" unicode="&#x4af;" horiz-adv-x="501" 
d="M188 -233v228l-182 497h142l105 -329l107 329h134l-182 -497v-228h-124z" />
    <glyph glyph-name="delta" unicode="&#x3b4;" horiz-adv-x="539" 
d="M18 240q0 78 31 126.5t80 75.5q-26 17 -42.5 42t-16.5 64q0 26 9.5 49.5t33.5 41.5t65 29t104 11q43 0 85 -4.5t66 -11.5v-96q-26 11 -64.5 16.5t-80.5 5.5q-56 0 -81.5 -9.5t-25.5 -32.5t19.5 -34t40.5 -16q32 -8 55 -14.5t42 -12.5t35 -12.5t33 -15.5q51 -27 82 -72
t31 -126q0 -59 -17.5 -106t-49.5 -81t-78 -52t-104 -18q-59 0 -106 19t-79.5 52.5t-49.5 80t-17 101.5zM348 341q-23 18 -54.5 31t-65.5 25q-39 -18 -61.5 -55t-22.5 -99q0 -75 34 -112.5t92 -37.5q60 0 90.5 37t30.5 106q0 35 -9.5 60t-33.5 45z" />
    <glyph glyph-name="epsilon" unicode="&#x3b5;" horiz-adv-x="469" 
d="M228 217q-47 0 -69 -15t-22 -51q0 -41 26.5 -57t67.5 -16q54 0 76.5 22t24.5 64h128q-3 -35 -16.5 -67t-41.5 -56.5t-70 -39t-102 -14.5q-51 0 -91.5 11t-69 31t-44 49t-15.5 65q0 53 31 83t73 38q-41 11 -64.5 38t-23.5 69q0 59 50.5 96.5t153.5 37.5q59 0 100.5 -13
t68.5 -35.5t40.5 -53t16.5 -64.5h-128q0 41 -21.5 60t-72.5 19q-86 0 -86 -57q0 -32 23.5 -46t59.5 -14h42v-84h-45z" />
    <glyph glyph-name="zeta" unicode="&#x3b6;" horiz-adv-x="481" 
d="M249 399q-34 -30 -54 -53.5t-31 -44t-14.5 -39t-3.5 -37.5q0 -68 30.5 -94.5t86.5 -26.5h25q66 0 96.5 -27t30.5 -89v-221h-127v187q0 25 -9 35.5t-36 10.5h-30q-46 0 -82 15.5t-60.5 43t-37.5 65t-13 81.5q0 72 35.5 133t108.5 124l127 110h-233v100h385v-103z" />
    <glyph glyph-name="eta" unicode="&#x3b7;" 
d="M341 -233v531q0 57 -19 77t-65 20q-101 0 -101 -113v-282h-130v492h124v-72q23 42 61 63.5t98 21.5q35 0 65 -10.5t51.5 -31.5t34 -51.5t12.5 -70.5v-574h-131z" />
    <glyph glyph-name="theta" unicode="&#x3b8;" horiz-adv-x="548" 
d="M275 -15q-68 0 -116 21t-78 64t-44 109t-14 155t13.5 155t43.5 109t78 64t117 21q68 0 115.5 -21t77 -64t43 -108.5t13.5 -154.5t-13.5 -155t-43 -109.5t-77 -64.5t-115.5 -21zM275 92q61 0 90 43.5t34 147.5h-247q2 -52 10 -88.5t22.5 -59t36.5 -33t54 -10.5zM275 575
q-32 0 -54 -9.5t-36.5 -32t-22.5 -58.5t-10 -88h247q-5 103 -34 145.5t-90 42.5z" />
    <glyph glyph-name="iota" unicode="&#x3b9;" horiz-adv-x="243" 
d="M29 492h124v-333q0 -29 14 -43t40 -14h29v-102h-64q-143 0 -143 143v349z" />
    <glyph glyph-name="uni043A" unicode="&#x3ba;" horiz-adv-x="483" 
d="M328 0l-108 221l-63 -65v-156h-131v492h131v-187l162 187h159l-165 -181l161 -311h-146z" />
    <glyph glyph-name="uni043A" unicode="&#x43a;" horiz-adv-x="483" 
d="M328 0l-108 221l-63 -65v-156h-131v492h131v-187l162 187h159l-165 -181l161 -311h-146z" />
    <glyph glyph-name="lambda" unicode="&#x3bb;" horiz-adv-x="534" 
d="M121 672q41 0 70 -7t50 -21t34.5 -36t24.5 -52l142 -399q11 -30 26 -42.5t46 -12.5h12v-102h-70q-55 0 -87 28t-52 88l-66 202l-111 -318h-134l194 475l-13 40q-5 16 -11.5 26.5t-15.5 17t-21.5 9t-31.5 2.5h-27v102h41z" />
    <glyph glyph-name="mu" unicode="&#x3bc;" horiz-adv-x="500" 
d="M346 0v69q-50 -82 -153 -82q-10 0 -19.5 1t-17.5 3v-224h-130v725h130v-304q0 -92 83 -92q50 0 75.5 31.5t25.5 80.5v284h129v-492h-123z" />
    <glyph glyph-name="xi" unicode="&#x3be;" horiz-adv-x="481" 
d="M282 336h-44q-50 0 -71.5 -26.5t-21.5 -80.5q0 -36 8.5 -60.5t24 -39t36.5 -20.5t46 -6h28q66 0 96.5 -26t30.5 -88v-222h-127v187q0 26 -9.5 36t-35.5 10h-31q-88 0 -140 57.5t-52 157.5q0 40 8.5 69.5t23 50t33 32.5t39.5 17q-42 17 -63.5 48.5t-21.5 83.5q0 75 49 118
t156 43q58 0 99.5 -13t68 -35.5t40 -53t16.5 -64.5h-127q0 79 -91 79q-47 0 -68.5 -20t-21.5 -63q0 -38 18 -62.5t63 -24.5h41v-84z" />
    <glyph glyph-name="pi" unicode="&#x3c0;" horiz-adv-x="576" 
d="M356 391h-150v-391h-126v391h-73v101h561v-101h-87v-232q0 -57 53 -57h30v-102h-64q-144 0 -144 143v248z" />
    <glyph glyph-name="rho" unicode="&#x3c1;" horiz-adv-x="523" 
d="M29 247q0 69 19 117.5t51 80t75.5 46t93.5 14.5q113 0 174 -69t61 -193q0 -57 -13.5 -104t-39 -81t-63 -52.5t-85.5 -18.5q-22 0 -44.5 4.5t-42 15t-36 28.5t-26.5 44v-312h-124v480zM149 248q0 -74 30 -113.5t86 -39.5q50 0 79.5 35.5t29.5 116.5t-29.5 117.5
t-80.5 36.5q-53 0 -84 -38.5t-31 -114.5z" />
    <glyph glyph-name="sigma1" unicode="&#x3c2;" horiz-adv-x="481" 
d="M212 0q-42 0 -77.5 15t-61 46t-39.5 77.5t-14 109.5q0 67 16.5 116t46.5 80t71.5 46t91.5 15q49 0 89.5 -13t70 -38t46 -60t19.5 -78h-128q-5 39 -30.5 61t-66.5 22q-22 0 -40.5 -7.5t-32 -25t-21 -46.5t-7.5 -72q0 -77 28 -111t96 -34h15q69 0 100 -26.5t31 -87.5v-222
h-127v187q0 26 -9.5 36t-35.5 10h-31z" />
    <glyph glyph-name="sigma" unicode="&#x3c3;" horiz-adv-x="580" 
d="M437 402q37 -26 55.5 -70t18.5 -99q0 -54 -17 -99t-48.5 -77.5t-77 -51t-102.5 -18.5q-58 0 -104 18.5t-78 52t-49 80.5t-17 103q0 57 17.5 103.5t50 79t79 50.5t105.5 18h302v-90h-135zM270 91q121 0 121 149q0 150 -119 150q-60 0 -91.5 -37.5t-31.5 -112.5
q0 -149 121 -149z" />
    <glyph glyph-name="tau" unicode="&#x3c4;" horiz-adv-x="479" 
d="M298 402v-242q0 -58 53 -58h30v-102h-64q-144 0 -144 143v259h-166v90h464v-90h-173z" />
    <glyph glyph-name="upsilon" unicode="&#x3c5;" horiz-adv-x="497" 
d="M249 -13q-108 0 -164 39.5t-56 136.5v329h127v-309q0 -49 21.5 -70.5t72.5 -21.5q52 0 73.5 21.5t21.5 70.5v309h124v-329q0 -97 -56.5 -136.5t-163.5 -39.5z" />
    <glyph glyph-name="uni0444" unicode="&#x3c6;" horiz-adv-x="719" 
d="M297 -233v224q-144 11 -212.5 79.5t-68.5 175.5t69 175.5t212 79.5v171h124v-171q142 -11 211.5 -79.5t69.5 -175.5q0 -108 -69 -176t-212 -79v-224h-124zM144 247q0 -68 35.5 -107.5t117.5 -47.5v306q-81 -8 -117 -45.5t-36 -105.5zM575 247q0 68 -36.5 105.5
t-117.5 45.5v-306q81 8 117.5 47.5t36.5 107.5z" />
    <glyph glyph-name="uni0444" unicode="&#x444;" horiz-adv-x="719" 
d="M297 -233v224q-144 11 -212.5 79.5t-68.5 175.5t69 175.5t212 79.5v171h124v-171q142 -11 211.5 -79.5t69.5 -175.5q0 -108 -69 -176t-212 -79v-224h-124zM144 247q0 -68 35.5 -107.5t117.5 -47.5v306q-81 -8 -117 -45.5t-36 -105.5zM575 247q0 68 -36.5 105.5
t-117.5 45.5v-306q81 8 117.5 47.5t36.5 107.5z" />
    <glyph glyph-name="chi" unicode="&#x3c7;" horiz-adv-x="496" 
d="M346 -233l-101 252l-99 -252h-140l166 370l-161 355h143l96 -244l98 244h137l-164 -355l169 -370h-144z" />
    <glyph glyph-name="psi" unicode="&#x3c8;" horiz-adv-x="658" 
d="M267 672h123v-584q63 2 88.5 23t25.5 67v314h124v-324q0 -44 -12 -77.5t-40 -56t-73.5 -34t-112.5 -11.5v-222h-123v222q-67 0 -112.5 11.5t-73.5 34t-40 56t-12 77.5v324h124v-314q0 -46 30 -68t84 -22v584z" />
    <glyph glyph-name="omega" unicode="&#x3c9;" horiz-adv-x="704" 
d="M398 254q0 -85 18.5 -123t58.5 -38t60 38t20 125q0 40 -4 71.5t-11.5 59t-18 53t-23.5 52.5h128q27 -40 43 -98.5t16 -134.5q0 -127 -47.5 -199.5t-142.5 -72.5q-58 0 -92 26t-52 68q-20 -46 -54.5 -70t-88.5 -24q-96 0 -143 71.5t-47 199.5q0 78 16 136t43 98h128
q-13 -27 -23.5 -52.5t-18 -53t-11.5 -59.5t-4 -72q0 -86 19.5 -124t60.5 -38q40 0 58.5 37.5t18.5 123.5v90h93v-90z" />
    <glyph glyph-name="iotadieresis" unicode="&#x3ca;" horiz-adv-x="301" 
d="M0 0zM72 492h124v-333q0 -29 14 -43t40 -14h29v-102h-64q-143 0 -143 143v349zM172 579v124h130v-124h-130zM-7 579v124h130v-124h-130z" />
    <glyph glyph-name="upsilondieresis" unicode="&#x3cb;" horiz-adv-x="497" 
d="M29 0zM249 -13q-108 0 -164 39.5t-56 136.5v329h127v-309q0 -49 21.5 -70.5t72.5 -21.5q52 0 73.5 21.5t21.5 70.5v309h124v-329q0 -97 -56.5 -136.5t-163.5 -39.5zM88 579v124h130v-124h-130zM288 579v124h130v-124h-130z" />
    <glyph glyph-name="omicrontonos" unicode="&#x3cc;" horiz-adv-x="539" 
d="M15 0zM268 96q119 0 119 150q0 149 -119 149t-119 -149q0 -150 119 -150zM268 -13q-60 0 -107 19t-79.5 53t-49.5 82t-17 105q0 58 17.5 106t50.5 82t79.5 52.5t105.5 18.5q58 0 104 -18.5t78.5 -52t50 -81.5t17.5 -107t-17.5 -106.5t-50 -81.5t-79 -52.5t-103.5 -18.5z
M226 544q1 63 1.5 125t2.5 125h117l-40 -250h-81z" />
    <glyph glyph-name="upsilontonos" unicode="&#x3cd;" horiz-adv-x="497" 
d="M29 0zM205 544q1 63 1.5 125t2.5 125h117l-40 -250h-81zM249 -13q-108 0 -164 39.5t-56 136.5v329h127v-309q0 -49 21.5 -70.5t72.5 -21.5q52 0 73.5 21.5t21.5 70.5v309h124v-329q0 -97 -56.5 -136.5t-163.5 -39.5z" />
    <glyph glyph-name="omegatonos" unicode="&#x3ce;" horiz-adv-x="704" 
d="M18 0zM398 254q0 -85 18.5 -123t58.5 -38t60 38t20 125q0 40 -4 71.5t-11.5 59t-18 53t-23.5 52.5h128q27 -40 43 -98.5t16 -134.5q0 -127 -47.5 -199.5t-142.5 -72.5q-58 0 -92 26t-52 68q-20 -46 -54.5 -70t-88.5 -24q-96 0 -143 71.5t-47 199.5q0 78 16 136t43 98h128
q-13 -27 -23.5 -52.5t-18 -53t-11.5 -59.5t-4 -72q0 -86 19.5 -124t60.5 -38q40 0 58.5 37.5t18.5 123.5v90h93v-90zM308 544q1 63 1.5 125t2.5 125h117l-40 -250h-81z" />
    <glyph glyph-name="uni0402" unicode="&#x402;" horiz-adv-x="754" 
d="M595 160q0 48 -5 78.5t-18 48t-35.5 24.5t-57.5 7q-38 0 -72.5 -6.5t-61.5 -19.5v-282h-136v541h-201v113h555v-113h-218v-151q35 14 81.5 22.5t97.5 8.5q47 0 85.5 -9t65.5 -33t42 -66t15 -107v-203q0 -121 -70.5 -183.5t-197.5 -62.5q-105 0 -169 45t-78 145h128
q7 -42 41.5 -60.5t78.5 -18.5q61 0 95.5 33.5t34.5 101.5v147z" />
    <glyph glyph-name="uni0403" unicode="&#x403;" horiz-adv-x="501" 
d="M22 0zM195 726l-31 55l207 121l47 -82zM489 664v-113h-331v-551h-136v664h467z" />
    <glyph glyph-name="uni0404" unicode="&#x404;" horiz-adv-x="613" 
d="M608 228q-11 -57 -35 -103t-60.5 -79t-84.5 -51t-106 -18q-65 0 -121.5 22t-97.5 66t-64.5 108.5t-23.5 150.5q0 84 21.5 151.5t61.5 114t97.5 71.5t128.5 25q62 0 112.5 -18.5t87 -51t58 -76.5t26.5 -94h-139q-14 57 -54 88.5t-90 31.5q-72 0 -112 -42.5t-52 -119.5h219
v-114h-223q8 -92 47.5 -142t113.5 -50q62 0 99.5 33.5t51.5 96.5h139z" />
    <glyph glyph-name="uni0409" unicode="&#x409;" horiz-adv-x="974" 
d="M737 419q53 0 96.5 -12.5t74 -38t47 -64.5t16.5 -93q0 -102 -57.5 -156.5t-157.5 -54.5h-290v551h-180l-9 -157q-7 -127 -22 -204.5t-43.5 -119.5t-72 -56t-107.5 -14h-24v118h16q33 0 56 9t38.5 38.5t25 86.5t14.5 153l14 259h430v-245h135zM602 311v-199h144
q48 0 76.5 27.5t28.5 72.5q0 44 -27.5 71.5t-77.5 27.5h-144z" />
    <glyph glyph-name="uni040A" unicode="&#x40a;" horiz-adv-x="853" 
d="M634 419q100 0 157.5 -54t57.5 -155t-57.5 -155.5t-157.5 -54.5h-265v310h-208v-310h-135v664h135v-241h208v241h136v-245h129zM505 311v-199h120q48 0 76.5 27.5t28.5 72.5q0 44 -28 71.5t-77 27.5h-120z" />
    <glyph glyph-name="uni040B" unicode="&#x40b;" horiz-adv-x="754" 
d="M8 664h555v-113h-218v-151q35 14 81.5 22.5t97.5 8.5q47 0 85.5 -9t65.5 -33t42 -66t15 -107v-216h-137v213q0 32 -8.5 52.5t-23.5 32t-36.5 16t-48.5 4.5q-36 0 -71 -6.5t-62 -19.5v-292h-136v551h-201v113z" />
    <glyph glyph-name="uni040C" unicode="&#x40c;" horiz-adv-x="604" 
d="M23 0zM431 0l-197 299l-74 -73v-226h-137v664h137v-270l254 270h180l-262 -262l268 -402h-169zM237 726l-31 55l207 121l47 -82z" />
    <glyph glyph-name="uni040D" unicode="&#x40d;" horiz-adv-x="587" 
d="M26 0zM137 820l47 82l207 -121l-31 -55zM26 0v664h132v-433l260 433h145v-664h-131v452l-276 -452h-130z" />
    <glyph glyph-name="uni040E" unicode="&#x40e;" horiz-adv-x="575" 
d="M26 0zM450 918q0 -42 -13.5 -73t-36 -51.5t-52 -31t-60.5 -10.5t-60.5 10.5t-52 31t-36 51.5t-13.5 73h82q2 -42 22.5 -64.5t57.5 -22.5t57.5 22.5t22.5 64.5h82zM548 219q0 -121 -69.5 -181.5t-197.5 -60.5q-117 0 -181.5 55t-65.5 182h123q1 -66 35 -96.5t92 -30.5
q60 0 94.5 31.5t34.5 100.5v115q-23 -42 -71 -64t-109 -22q-47 0 -85 14t-65 44t-42 76t-15 110v172h137v-171q0 -69 34.5 -100t85.5 -31q59 0 94.5 35t35.5 95v172h135v-445v0z" />
    <glyph glyph-name="uni040F" unicode="&#x40f;" horiz-adv-x="577" 
d="M244 -169v169h-218v664h136v-546h264v546h137v-664h-220v-169h-99z" />
    <glyph glyph-name="uni0411" unicode="&#x411;" horiz-adv-x="534" 
d="M315 419q100 0 157.5 -54t57.5 -155t-57.5 -155.5t-157.5 -54.5h-289v664h387v-119h-252v-126h154zM161 311v-199h145q48 0 76.5 27.5t28.5 72.5q0 44 -27.5 71.5t-77.5 27.5h-145z" />
    <glyph glyph-name="uni0414" unicode="&#x414;" horiz-adv-x="713" 
d="M11 -169v287h43q28 0 49 10t36 41t24 87t14 149l14 259h430v-546h81v-287h-100v169h-491v-169h-100zM305 551l-7 -146q-5 -106 -19 -176t-35 -111h241v433h-180z" />
    <glyph glyph-name="uni0416" unicode="&#x416;" horiz-adv-x="888" 
d="M715 0l-206 273v-273h-130v273l-206 -273h-166l279 338l-266 326h161l198 -246v246h130v-246l198 246h161l-267 -326l279 -338h-165z" />
    <glyph glyph-name="uni0417" unicode="&#x417;" horiz-adv-x="564" 
d="M225 291v115h62q57 0 88 24.5t31 64.5q0 38 -29.5 58t-93.5 20q-70 0 -102 -26t-32 -85h-131q0 48 14.5 89t46 71t82 47t123.5 17q65 0 113.5 -13.5t80 -37.5t47 -57.5t15.5 -73.5q0 -56 -28 -94.5t-82 -52.5q57 -11 94 -53t37 -114q0 -99 -73.5 -156t-205.5 -57
q-74 0 -126 18t-85.5 50t-49 75.5t-15.5 94.5h134q4 -60 37 -91.5t109 -31.5q66 0 102 25.5t36 80.5q0 54 -34.5 73.5t-97.5 19.5h-67z" />
    <glyph glyph-name="uni0418" unicode="&#x418;" horiz-adv-x="587" 
d="M26 0v664h132v-433l260 433h145v-664h-131v452l-276 -452h-130z" />
    <glyph glyph-name="uni0419" unicode="&#x419;" horiz-adv-x="587" 
d="M26 0zM456 918q0 -42 -13.5 -73t-36 -51.5t-52 -31t-60.5 -10.5t-60.5 10.5t-52 31t-36 51.5t-13.5 73h82q2 -42 22.5 -64.5t57.5 -22.5t57.5 22.5t22.5 64.5h82zM26 0v664h132v-433l260 433h145v-664h-131v452l-276 -452h-130z" />
    <glyph glyph-name="uni041B" unicode="&#x41b;" horiz-adv-x="628" 
d="M466 0v551h-179l-8 -146q-7 -131 -23 -211t-44.5 -123t-72 -57t-106.5 -14h-25v118h16q34 0 57 9t38.5 39t24 87t14.5 152l15 259h430v-664h-137z" />
    <glyph glyph-name="uni0423" unicode="&#x423;" horiz-adv-x="575" 
d="M548 219q0 -121 -69.5 -181.5t-197.5 -60.5q-117 0 -181.5 55t-65.5 182h123q1 -66 35 -96.5t92 -30.5q60 0 94.5 31.5t34.5 100.5v115q-23 -42 -71 -64t-109 -22q-47 0 -85 14t-65 44t-42 76t-15 110v172h137v-171q0 -69 34.5 -100t85.5 -31q59 0 94.5 35t35.5 95v172
h135v-445v0z" />
    <glyph glyph-name="uni0426" unicode="&#x426;" horiz-adv-x="654" 
d="M544 -169v169h-518v664h136v-546h264v546h137v-546h80v-287h-99z" />
    <glyph glyph-name="uni0427" unicode="&#x427;" horiz-adv-x="570" 
d="M409 0v264q-35 -15 -81.5 -23.5t-97.5 -8.5q-47 0 -85.5 9.5t-65.5 33.5t-42 65.5t-15 106.5v217h137v-214q0 -63 30.5 -84t85.5 -21q36 0 71.5 6.5t62.5 20.5v292h135v-664h-135z" />
    <glyph glyph-name="uni0428" unicode="&#x428;" horiz-adv-x="820" 
d="M26 0v664h136v-546h180v546h136v-546h180v546h135v-664h-767z" />
    <glyph glyph-name="uni0429" unicode="&#x429;" horiz-adv-x="885" 
d="M775 -169v169h-749v664h136v-546h180v546h136v-546h180v546h135v-546h82v-287h-100z" />
    <glyph glyph-name="uni042A" unicode="&#x42a;" horiz-adv-x="718" 
d="M480 419q54 0 97 -12.5t73.5 -38t47 -64.5t16.5 -93q0 -103 -57.5 -157t-157.5 -54h-289v551h-202v113h337v-245h135zM345 311v-199h145q48 0 76.5 27.5t28.5 72.5q0 44 -27.5 71.5t-77.5 27.5h-145z" />
    <glyph glyph-name="uni042B" unicode="&#x42b;" horiz-adv-x="721" 
d="M26 0zM557 0v664h139v-664h-139zM161 311v-199h145q48 0 76.5 27.5t28.5 72.5q0 44 -27.5 71.5t-77.5 27.5h-145zM315 419q100 0 157.5 -54t57.5 -155t-57.5 -155.5t-157.5 -54.5h-289v664h135v-245h154z" />
    <glyph glyph-name="uni042C" unicode="&#x42c;" horiz-adv-x="534" 
d="M161 311v-199h145q48 0 76.5 27.5t28.5 72.5q0 44 -27.5 71.5t-77.5 27.5h-145zM315 419q100 0 157.5 -54t57.5 -155t-57.5 -155.5t-157.5 -54.5h-289v664h135v-245h154z" />
    <glyph glyph-name="uni042D" unicode="&#x42d;" horiz-adv-x="613" 
d="M144 228q14 -63 51.5 -96.5t99.5 -33.5q74 0 113.5 50t47.5 142h-223v114h219q-12 77 -52 119.5t-112 42.5q-50 0 -90 -31.5t-54 -88.5h-139q5 50 26.5 94t58 76.5t87 51t112.5 18.5q71 0 128.5 -25t97.5 -71.5t61.5 -114t21.5 -151.5q0 -86 -23.5 -150.5t-65 -108.5
t-97.5 -66t-121 -22q-58 0 -106 18t-84.5 51t-61 79t-34.5 103h139z" />
    <glyph glyph-name="uni042E" unicode="&#x42e;" horiz-adv-x="858" 
d="M23 0v664h139v-271h44q16 139 96.5 216t218.5 77q76 0 135.5 -24.5t99.5 -71.5t61 -114.5t21 -152.5q0 -172 -81.5 -259t-235.5 -87q-144 0 -225.5 79t-92.5 228h-41v-284h-139zM521 96q37 0 70 13.5t57.5 41t38.5 70.5t14 102q0 118 -46 179t-134 61t-135 -61t-47 -179
t47.5 -172.5t134.5 -54.5z" />
    <glyph glyph-name="uni042F" unicode="&#x42f;" horiz-adv-x="578" 
d="M318 260l-153 -260h-158l169 265q-76 13 -118 63t-42 134q0 98 57.5 150t157.5 52h320v-664h-135v260h-98zM416 365v186h-172q-49 0 -76.5 -24.5t-27.5 -67.5t27.5 -68.5t76.5 -25.5h172z" />
    <glyph glyph-name="uni0431" unicode="&#x431;" horiz-adv-x="539" 
d="M269 -13q-119 0 -185 72.5t-66 200.5v83q0 90 13 152.5t40.5 101t72 56t107.5 17.5h56q17 0 30.5 2.5t24 10t18 21.5t10.5 37h77q-4 -38 -17 -70.5t-34 -55.5t-50.5 -36t-65.5 -13h-64q-55 0 -80.5 -42.5t-25.5 -110.5q15 21 34.5 35.5t41.5 23t45.5 12t45.5 3.5
q52 0 93.5 -17t70 -49t43.5 -77t15 -100q0 -60 -17.5 -107.5t-50 -81t-78.5 -51t-104 -17.5zM267 93q124 0 124 153q0 151 -123 151q-124 0 -124 -152t123 -152z" />
    <glyph glyph-name="uni0432" unicode="&#x432;" horiz-adv-x="504" 
d="M29 0v492h293q44 0 74 -9.5t49 -25.5t27 -38t8 -46q0 -44 -22.5 -70.5t-57.5 -36.5q18 -4 35 -13.5t30.5 -24.5t21.5 -36.5t8 -50.5q0 -31 -11 -57t-34 -44.5t-60.5 -29t-89.5 -10.5h-271zM281 92q85 0 85 67q0 66 -77 66h-136v-133h128zM284 293q32 0 50 13.5t18 41.5
q0 56 -71 56h-128v-111h131z" />
    <glyph glyph-name="uni0433" unicode="&#x433;" horiz-adv-x="350" 
d="M30 0v492h313v-104h-186v-388h-127z" />
    <glyph glyph-name="uni0434" unicode="&#x434;" horiz-adv-x="588" 
d="M11 -149v253h21q25 0 42.5 7t30 29t19.5 61.5t11 105.5l11 185h355v-388h76v-253h-94v149h-378v-149h-94zM239 388l-5 -88q-2 -25 -5 -53.5t-8 -55t-11.5 -49.5t-14.5 -38h179v284h-135z" />
    <glyph glyph-name="uni0436" unicode="&#x436;" horiz-adv-x="685" 
d="M402 304l121 188h148l-178 -241l185 -251h-153l-123 184v-184h-120v184l-123 -184h-153l185 251l-178 241h148l121 -188v188h120v-188z" />
    <glyph glyph-name="uni0437" unicode="&#x437;" horiz-adv-x="469" 
d="M196 217v84h42q36 0 59.5 14t23.5 46q0 57 -86 57q-51 0 -72.5 -19t-21.5 -60h-128q3 34 16.5 64.5t40.5 53t68.5 35.5t100.5 13q103 0 153.5 -37.5t50.5 -96.5q0 -42 -23.5 -69t-64.5 -38q42 -8 73 -38t31 -83q0 -36 -15.5 -65t-44 -49t-69 -31t-91.5 -11
q-60 0 -102 14.5t-70 39t-41.5 56.5t-16.5 67h128q2 -42 24.5 -64t76.5 -22q41 0 67.5 16t26.5 57q0 36 -22 51t-69 15h-45z" />
    <glyph glyph-name="uni0438" unicode="&#x438;" horiz-adv-x="510" 
d="M29 0v492h128v-320l188 320h135v-492h-127v334l-199 -334h-125z" />
    <glyph glyph-name="uni0439" unicode="&#x439;" horiz-adv-x="510" 
d="M29 0zM418 746q0 -42 -13.5 -73t-36 -51.5t-52 -31t-60.5 -10.5t-60.5 10.5t-52 31t-36 51.5t-13.5 73h82q2 -42 22.5 -64.5t57.5 -22.5t57.5 22.5t22.5 64.5h82zM29 0v492h128v-320l188 320h135v-492h-127v334l-199 -334h-125z" />
    <glyph glyph-name="uni043B" unicode="&#x43b;" horiz-adv-x="530" 
d="M374 0v388h-135l-5 -88q-6 -96 -18.5 -155t-36 -91.5t-60 -43t-88.5 -10.5h-20v104h13q27 0 46 6.5t32 27.5t21 61t12 108l11 185h355v-492h-127z" />
    <glyph glyph-name="uni043C" unicode="&#x43c;" horiz-adv-x="626" 
d="M481 0v341l-106 -341h-125l-105 339v-339h-116v492h181l105 -350l105 350h177v-492h-116z" />
    <glyph glyph-name="uni043D" unicode="&#x43d;" horiz-adv-x="510" 
d="M29 0v492h127v-188h198v188h127v-492h-127v201h-198v-201h-127z" />
    <glyph glyph-name="uni043F" unicode="&#x43f;" horiz-adv-x="510" 
d="M29 0v492h452v-492h-127v388h-198v-388h-127z" />
    <glyph glyph-name="uni0442" unicode="&#x442;" horiz-adv-x="479" 
d="M176 0v388h-169v104h464v-104h-168v-388h-127z" />
    <glyph glyph-name="uni0446" unicode="&#x446;" horiz-adv-x="568" 
d="M29 492h127v-389h197v389h127v-389h77v-252h-94v149h-434v492z" />
    <glyph glyph-name="uni0447" unicode="&#x447;" horiz-adv-x="502" 
d="M345 0v194q-29 -11 -68 -18t-82 -7q-40 0 -72 7.5t-54.5 26.5t-35 52.5t-12.5 85.5v151h127v-149q0 -47 23.5 -62.5t66.5 -15.5q30 0 58 5t49 15v207h127v-492h-127z" />
    <glyph glyph-name="uni0448" unicode="&#x448;" horiz-adv-x="747" 
d="M29 0v492h127v-388h156v388h123v-388h156v388h127v-492h-689z" />
    <glyph glyph-name="uni0449" unicode="&#x449;" horiz-adv-x="805" 
d="M700 -149v149h-671v492h127v-388h156v388h123v-388h156v388h127v-388h76v-253h-94z" />
    <glyph glyph-name="uni044A" unicode="&#x44a;" horiz-adv-x="677" 
d="M319 335h145q46 0 82.5 -9.5t62.5 -29.5t40 -51.5t14 -75.5q0 -89 -53 -129t-142 -40h-276v388h-185v104h312v-157zM319 242v-145h156q35 0 55.5 18.5t20.5 53.5q0 36 -20.5 54.5t-55.5 18.5h-156z" />
    <glyph glyph-name="uni044B" unicode="&#x44b;" horiz-adv-x="705" 
d="M29 0zM156 492v-157h164q85 0 132.5 -42.5t47.5 -123.5q0 -82 -47.5 -125.5t-132.5 -43.5h-291v492h127zM156 242v-145h156q36 0 56 18.5t20 53.5q0 36 -20 54.5t-56 18.5h-156zM542 0v492h130v-492h-130z" />
    <glyph glyph-name="uni044C" unicode="&#x44c;" horiz-adv-x="513" 
d="M156 492v-157h164q85 0 132.5 -42.5t47.5 -123.5q0 -82 -47.5 -125.5t-132.5 -43.5h-291v492h127zM156 242v-145h156q36 0 56 18.5t20 53.5q0 36 -20 54.5t-56 18.5h-156z" />
    <glyph glyph-name="uni044D" unicode="&#x44d;" horiz-adv-x="488" 
d="M192 215v74h149q-3 27 -10 48t-19 36t-30.5 23t-45.5 8q-42 0 -66.5 -18.5t-29.5 -53.5h-129q7 49 30.5 82t55 53.5t68.5 29t73 8.5q48 0 90 -14.5t73 -45.5t49 -80t18 -117q0 -128 -62.5 -194.5t-168.5 -66.5q-39 0 -76.5 9.5t-68.5 30.5t-53 54t-29 79h128
q0 -16 8.5 -29.5t22 -23t31.5 -15t37 -5.5t37 6.5t32.5 21.5t24 39.5t11.5 60.5h-150z" />
    <glyph glyph-name="uni044E" unicode="&#x44e;" horiz-adv-x="731" 
d="M29 0v492h130v-195h52q14 96 79 152t169 56q58 0 104.5 -18.5t79 -52t50 -81.5t17.5 -106q0 -59 -17.5 -107t-50 -82t-79 -52.5t-104.5 -18.5q-53 0 -95.5 15t-74.5 43t-52 67t-27 87h-51v-199h-130zM460 96q119 0 119 150q0 149 -119 149t-119 -149q0 -150 119 -150z
" />
    <glyph glyph-name="uni044F" unicode="&#x44f;" horiz-adv-x="493" 
d="M337 0v166h-90l-107 -166h-134l123 176q-54 14 -83 51t-29 100q0 81 47.5 123t131.5 42h268v-492h-127zM337 262v133h-132q-36 0 -56.5 -17t-20.5 -49q0 -33 20.5 -50t56.5 -17h132z" />
    <glyph glyph-name="uni0452" unicode="&#x452;" 
d="M472 -33q0 -45 -14.5 -81.5t-40.5 -63t-61 -41t-76 -14.5q-9 0 -16.5 0.5t-14.5 1.5v116q5 -2 10 -3.5t15 -1.5q41 0 54 26t13 67v332q0 54 -19 75.5t-58 21.5q-28 0 -48.5 -9.5t-33.5 -25.5t-19.5 -38t-6.5 -47v-282h-130v538h-26v91h26v43h130v-43h165v-91h-165v-110
q15 34 55 55.5t93 21.5q36 0 66.5 -11t53 -31t35.5 -49t13 -66v-381z" />
    <glyph glyph-name="uni0453" unicode="&#x453;" horiz-adv-x="350" 
d="M30 0zM120 554l-31 55l207 121l47 -82zM30 0v492h313v-104h-186v-388h-127z" />
    <glyph glyph-name="uni0454" unicode="&#x454;" horiz-adv-x="488" 
d="M146 215q2 -36 11.5 -60.5t23.5 -39.5t32 -21.5t38 -6.5q19 0 37 5.5t31.5 15t22 23t8.5 29.5h128q-7 -46 -29 -79t-53 -54t-68.5 -30.5t-76.5 -9.5q-106 0 -168.5 66.5t-62.5 194.5q0 68 18 117t49 80t73 45.5t90 14.5q36 0 73 -8.5t68.5 -29t54.5 -53.5t31 -82h-129
q-5 35 -29.5 53.5t-66.5 18.5q-27 0 -46 -8t-31 -23t-18.5 -36t-9.5 -48h149v-74h-150z" />
    <glyph glyph-name="uni0459" unicode="&#x459;" horiz-adv-x="858" 
d="M373 0v388h-135l-4 -72q-6 -102 -17.5 -164.5t-34.5 -96t-59.5 -44.5t-91.5 -11h-21v103h14q25 0 44 8t32.5 31.5t21.5 66t13 111.5l11 172h354v-157h150q44 0 80 -9.5t61.5 -30t39 -52t13.5 -74.5q0 -82 -47.5 -125.5t-131.5 -43.5h-292zM500 242v-145h156
q36 0 56.5 18.5t20.5 53.5q0 36 -20.5 54.5t-56.5 18.5h-156z" />
    <glyph glyph-name="uni045A" unicode="&#x45a;" horiz-adv-x="771" 
d="M29 0v492h127v-157h165v157h127v-157h117q89 0 141 -39.5t52 -127.5q0 -87 -51.5 -127.5t-141.5 -40.5h-244v242h-165v-242h-127zM448 242v-145h122q35 0 55.5 18.5t20.5 53.5q0 36 -20.5 54.5t-55.5 18.5h-122z" />
    <glyph glyph-name="uni045C" unicode="&#x45c;" horiz-adv-x="483" 
d="M26 0zM176 554l-31 55l207 121l47 -82zM328 0l-108 221l-63 -65v-156h-131v492h131v-187l162 187h159l-165 -181l161 -311h-146z" />
    <glyph glyph-name="uni045D" unicode="&#x45d;" horiz-adv-x="510" 
d="M29 0zM99 648l47 82l207 -121l-31 -55zM29 0v492h128v-320l188 320h135v-492h-127v334l-199 -334h-125z" />
    <glyph glyph-name="uni045E" unicode="&#x45e;" horiz-adv-x="502" 
d="M26 0zM339 65q-14 -33 -50.5 -51.5t-82.5 -18.5q-39 0 -72 12.5t-57 36t-37.5 56t-13.5 73.5v319h130v-300q0 -92 83 -92q45 0 72.5 26t27.5 66v300h130v-505q0 -52 -17.5 -93t-48 -69t-72 -43t-88.5 -15q-109 0 -163 55t-54 151h121q0 -44 25.5 -69t76.5 -25
q18 0 34 7.5t28.5 21t20 33.5t7.5 44v80zM414 746q0 -42 -13.5 -73t-36 -51.5t-52 -31t-60.5 -10.5t-60.5 10.5t-52 31t-36 51.5t-13.5 73h82q2 -42 22.5 -64.5t57.5 -22.5t57.5 22.5t22.5 64.5h82z" />
    <glyph glyph-name="uni045F" unicode="&#x45f;" horiz-adv-x="510" 
d="M29 492h127v-389h197v389h127v-492h-179v-149h-94v149h-178v492z" />
    <glyph glyph-name="uni0490" unicode="&#x490;" horiz-adv-x="501" 
d="M389 664v169h100v-282h-331v-551h-136v664h367z" />
    <glyph glyph-name="uni0491" unicode="&#x491;" horiz-adv-x="350" 
d="M156 388v-388h-127v492h219v149h94v-253h-186z" />
    <glyph glyph-name="uni0492" unicode="&#x492;" horiz-adv-x="556" 
d="M213 278v-278h-135v278h-75v84h75v302h466v-113h-331v-189h168v-84h-168z" />
    <glyph glyph-name="uni0493" unicode="&#x493;" horiz-adv-x="395" 
d="M75 0v175h-75v84h75v233h313v-104h-186v-129h176v-84h-176v-175h-127z" />
    <glyph glyph-name="uni0496" unicode="&#x496;" horiz-adv-x="951" 
d="M841 -169v169h-126l-206 273v-273h-130v273l-206 -273h-166l279 338l-266 326h161l198 -246v246h130v-246l198 246h161l-267 -326l181 -220h158v-287h-99z" />
    <glyph glyph-name="uni0497" unicode="&#x497;" horiz-adv-x="747" 
d="M402 304l121 188h148l-178 -241l108 -147h135v-253h-94v149h-117l-123 184v-184h-120v184l-123 -184h-153l185 251l-178 241h148l121 -188v188h120v-188z" />
    <glyph glyph-name="uni0498" unicode="&#x498;" horiz-adv-x="564" 
d="M225 291v115h62q57 0 88 24.5t31 64.5q0 38 -29.5 58t-93.5 20q-70 0 -102 -26t-32 -85h-131q0 48 14.5 89t46 71t82 47t123.5 17q65 0 113.5 -13.5t80 -37.5t47 -57.5t15.5 -73.5q0 -56 -28 -94.5t-82 -52.5q57 -11 94 -53t37 -114q0 -99 -73 -155.5t-204 -57.5
q51 -23 80.5 -55t29.5 -70q0 -39 -27.5 -62t-81.5 -23q-41 0 -65.5 7.5t-39.5 18.5v84q11 -4 24 -7t29 -3q10 0 15 5q23 2 37.5 10t14.5 22q0 10 -2.5 18.5t-11 17.5t-23.5 19t-39 22q-58 7 -99 27.5t-67.5 51t-39 70.5t-12.5 85h134q4 -60 37 -91.5t109 -31.5
q66 0 102 25.5t36 80.5q0 54 -34.5 73.5t-97.5 19.5h-67z" />
    <glyph glyph-name="uni0499" unicode="&#x499;" horiz-adv-x="469" 
d="M196 217v84h42q36 0 59.5 14t23.5 46q0 57 -86 57q-51 0 -72.5 -19t-21.5 -60h-128q3 34 16.5 64.5t40.5 53t68.5 35.5t100.5 13q103 0 153.5 -37.5t50.5 -96.5q0 -42 -23.5 -69t-64.5 -38q42 -8 73 -38t31 -83q0 -36 -15.5 -65t-44 -49t-69 -31t-91.5 -11q63 -24 99 -58
t36 -77q0 -39 -27.5 -62t-81.5 -23q-41 0 -65.5 7.5t-38.5 18.5v84q22 -10 53 -10q30 0 48 9t18 27q0 11 -3.5 20.5t-14 20t-30 22t-51.5 26.5q-44 6 -75.5 22.5t-52 39.5t-31.5 51t-13 59h128q2 -42 24.5 -64t76.5 -22q41 0 67.5 16t26.5 57q0 36 -22 51t-69 15h-45z" />
    <glyph glyph-name="uni049A" unicode="&#x49a;" horiz-adv-x="672" 
d="M562 -169v169h-131l-197 299l-74 -73v-226h-137v664h137v-270l254 270h180l-262 -262l189 -284h140v-287h-99z" />
    <glyph glyph-name="uni049B" unicode="&#x49b;" horiz-adv-x="543" 
d="M439 -149v149h-111l-108 221l-63 -65v-156h-131v492h131v-187l162 187h159l-165 -181l107 -207h113v-253h-94z" />
    <glyph glyph-name="uni04A0" unicode="&#x4a0;" horiz-adv-x="788" 
d="M620 0l-199 301l-78 -76v-225h-133v551h-202v113h335v-274l260 274h175l-262 -262l269 -402h-165z" />
    <glyph glyph-name="uni04A1" unicode="&#x4a1;" horiz-adv-x="646" 
d="M496 0l-110 223l-66 -67v-156h-128v388h-185v104h313v-190l167 190h156l-167 -181l163 -311h-143z" />
    <glyph glyph-name="uni04A2" unicode="&#x4a2;" horiz-adv-x="654" 
d="M544 -169v169h-118v300h-264v-300h-136v664h136v-251h264v251h137v-546h80v-287h-99z" />
    <glyph glyph-name="uni04A3" unicode="&#x4a3;" horiz-adv-x="568" 
d="M463 -149v149h-109v201h-198v-201h-127v492h127v-188h198v188h127v-388h76v-253h-94z" />
    <glyph glyph-name="uni04AA" unicode="&#x4aa;" horiz-adv-x="613" 
d="M608 228q-11 -57 -35 -103t-61 -79t-86 -51t-108 -18q51 -23 81 -54.5t30 -72.5q0 -38 -28 -60.5t-86 -22.5q-33 0 -59 7.5t-40 18.5v84q10 -5 23.5 -7.5t31.5 -2.5q64 0 64 40q0 18 -16.5 35.5t-67.5 41.5q-53 11 -96 38t-74.5 70t-48.5 101.5t-17 133.5
q0 83 21.5 149.5t61.5 113t97.5 71.5t128.5 25q62 0 112.5 -18.5t87 -51t58 -76.5t26.5 -94h-139q-14 54 -52 87t-98 33q-81 0 -122 -62.5t-41 -173.5q0 -109 40.5 -170.5t122.5 -61.5q60 0 98 33.5t52 96.5h139z" />
    <glyph glyph-name="uni04AB" unicode="&#x4ab;" horiz-adv-x="481" 
d="M469 178q-5 -42 -23.5 -76t-47 -59t-65.5 -39.5t-80 -16.5q63 -24 99.5 -58t36.5 -79q0 -38 -28.5 -60.5t-86.5 -22.5q-33 0 -59 7.5t-40 18.5v84q11 -5 24 -7.5t31 -2.5q64 0 64 40q0 9 -4 18.5t-15 19t-30 21t-49 25.5q-81 14 -130 79t-49 182q0 66 16.5 114t46.5 78.5
t72.5 45.5t94.5 15q48 0 87.5 -13t69 -38t46.5 -60t20 -78h-131q-5 38 -30.5 59.5t-62.5 21.5q-21 0 -39 -7t-31.5 -23.5t-21.5 -44t-8 -67.5q0 -81 29 -120t67 -39t65 21t31 61h131z" />
    <glyph glyph-name="uni04B2" unicode="&#x4b2;" horiz-adv-x="669" 
d="M559 -169v169h-132l-127 228l-134 -228h-162l215 339l-203 325h164l120 -215l121 215h161l-202 -319l142 -227h136v-287h-99z" />
    <glyph glyph-name="uni04B3" unicode="&#x4b3;" horiz-adv-x="556" 
d="M452 -149v149h-123l-86 148l-84 -148h-156l165 251l-160 241h157l83 -143l84 143h151l-163 -241l98 -147h128v-253h-94z" />
    <glyph glyph-name="uni04B6" unicode="&#x4b6;" horiz-adv-x="636" 
d="M526 -169v169h-117v264q-35 -15 -81.5 -23.5t-97.5 -8.5q-47 0 -85.5 9.5t-65.5 33.5t-42 65.5t-15 106.5v217h137v-214q0 -63 30.5 -84t85.5 -21q36 0 71.5 6.5t62.5 20.5v292h135v-546h81v-287h-99z" />
    <glyph glyph-name="uni04B7" unicode="&#x4b7;" horiz-adv-x="560" 
d="M455 -149v149h-110v194q-29 -11 -68 -18t-82 -7q-40 0 -72 7.5t-54.5 26.5t-35 52.5t-12.5 85.5v151h127v-149q0 -47 23.5 -62.5t66.5 -15.5q30 0 58 5t49 15v207h127v-388h77v-253h-94z" />
    <glyph glyph-name="uni04BA" unicode="&#x4ba;" horiz-adv-x="570" 
d="M161 664v-264q35 15 81.5 23.5t97.5 8.5q47 0 85.5 -9.5t65.5 -33.5t42 -65.5t15 -106.5v-217h-137v214q0 63 -30.5 84t-85.5 21q-36 0 -71.5 -6.5t-62.5 -20.5v-292h-135v664h135z" />
    <glyph glyph-name="uni04C3" unicode="&#x4c3;" horiz-adv-x="604" 
d="M583 -49q0 -39 -12 -72.5t-36 -58.5t-59 -39t-81 -14q-91 0 -140.5 55t-49.5 151h119q1 -42 16 -67.5t55 -25.5q32 0 49.5 17.5t17.5 50.5q0 29 -15 58.5t-48 74.5l-163 220l-77 -76v-225h-133v664h133v-275l259 275h176l-131 -131l-131 -131l180 -264q36 -54 53.5 -97.5
t17.5 -89.5z" />
    <glyph glyph-name="uni04C4" unicode="&#x4c4;" horiz-adv-x="483" 
d="M425 95q19 -36 29.5 -75t10.5 -77q0 -43 -13.5 -75.5t-37.5 -55t-57.5 -34t-72.5 -11.5q-87 0 -133.5 51t-48.5 140h109q2 -38 16 -60t47 -22q31 0 47 20t16 52q0 20 -7 43t-25 61l-82 171l-66 -67v-156h-128v492h128v-190l168 190h155l-167 -181z" />
    <glyph glyph-name="uni04C7" unicode="&#x4c7;" horiz-adv-x="587" 
d="M426 300h-264v-300h-136v664h136v-251h264v251h137v-697q0 -45 -15 -81.5t-42.5 -63t-66 -41t-84.5 -14.5q-91 0 -141.5 54.5t-50.5 151.5h119q1 -45 16.5 -69t55.5 -24t56 24.5t16 67.5v328z" />
    <glyph glyph-name="uni04C8" unicode="&#x4c8;" horiz-adv-x="510" 
d="M29 0v492h127v-188h197v188h127v-531q0 -43 -14 -79t-39.5 -61.5t-61.5 -39.5t-81 -14q-88 0 -135.5 53.5t-47.5 145.5h119q1 -40 14.5 -63t51.5 -23t52.5 22.5t14.5 63.5v234h-197v-200h-127z" />
    <glyph glyph-name="uni04E8" unicode="&#x4e8;" horiz-adv-x="670" 
d="M334 -23q-154 0 -236.5 90t-82.5 259q0 84 21 151t62 113.5t100 71t136 24.5q76 0 135.5 -24.5t99.5 -71.5t61 -114.5t21 -152.5q0 -172 -81.5 -259t-235.5 -87zM334 96q34 0 64 11t53.5 33.5t39 57t20.5 81.5h-357q9 -95 55.5 -139t124.5 -44zM334 563
q-74 0 -118.5 -42.5t-58.5 -126.5h351q-26 169 -174 169z" />
    <glyph glyph-name="uni04E9" unicode="&#x4e9;" horiz-adv-x="539" 
d="M268 -13q-60 0 -107 19t-79.5 53t-49.5 82t-17 105q0 58 17.5 106t50.5 82t79.5 52.5t105.5 18.5q58 0 104 -18.5t78.5 -52t50 -81.5t17.5 -107t-17.5 -106.5t-50 -81.5t-79 -52.5t-103.5 -18.5zM268 96q100 0 116 106h-232q15 -106 116 -106zM268 395q-98 0 -116 -102
h231q-17 102 -115 102z" />
    <glyph glyph-name="uni04EE" unicode="&#x4ee;" horiz-adv-x="575" 
d="M26 0zM98 774v91h381v-91h-381zM548 219q0 -121 -69.5 -181.5t-197.5 -60.5q-117 0 -181.5 55t-65.5 182h123q1 -66 35 -96.5t92 -30.5q60 0 94.5 31.5t34.5 100.5v115q-23 -42 -71 -64t-109 -22q-47 0 -85 14t-65 44t-42 76t-15 110v172h137v-171q0 -69 34.5 -100
t85.5 -31q59 0 94.5 35t35.5 95v172h135v-445v0z" />
    <glyph glyph-name="uni04EF" unicode="&#x4ef;" horiz-adv-x="502" 
d="M26 0zM339 65q-14 -33 -50.5 -51.5t-82.5 -18.5q-39 0 -72 12.5t-57 36t-37.5 56t-13.5 73.5v319h130v-300q0 -92 83 -92q45 0 72.5 26t27.5 66v300h130v-505q0 -52 -17.5 -93t-48 -69t-72 -43t-88.5 -15q-109 0 -163 55t-54 151h121q0 -44 25.5 -69t76.5 -25
q18 0 34 7.5t28.5 21t20 33.5t7.5 44v80zM62 602v91h381v-91h-381z" />
    <glyph glyph-name="uni0512" unicode="&#x512;" horiz-adv-x="628" 
d="M466 551h-179l-8 -146q-7 -131 -23 -211t-44.5 -123t-72 -57t-106.5 -14h-25v118h16q34 0 57 9t38.5 39t24 87t14.5 152l15 259h430v-697q0 -45 -16 -81.5t-44 -63t-67 -41t-85 -14.5q-91 0 -139.5 55t-48.5 151h119q1 -43 16 -68t56 -25q40 0 56 24.5t16 67.5v579z" />
    <glyph glyph-name="uni0513" unicode="&#x513;" horiz-adv-x="530" 
d="M374 388h-135l-5 -88q-6 -96 -18.5 -155t-36 -91.5t-60 -43t-88.5 -10.5h-20v104h13q27 0 46 6.5t32 27.5t21 61t12 108l11 185h355v-532q0 -43 -14 -78.5t-39.5 -61t-61.5 -39.5t-81 -14q-89 0 -136 53t-47 146h119q0 -41 14 -63.5t51 -22.5q38 0 53 23t15 63v422z" />
    <glyph glyph-name="uni058F" unicode="&#x58f;" horiz-adv-x="488" 
d="M429 126v-126h-136v126h-188v84h188v72h-188v84h188v114q0 47 -19.5 71.5t-62.5 24.5q-42 0 -61.5 -24t-19.5 -72v-67h-123v68q0 108 54.5 157t151.5 49q106 0 161 -53t55 -149v-119h54v-84h-54v-72h54v-84h-54z" />
    <glyph glyph-name="uni1E0C" unicode="&#x1e0c;" horiz-adv-x="607" 
d="M23 0zM273 113q91 0 132 56.5t41 169.5q0 56 -10 96t-32.5 65.5t-57.5 37t-85 11.5h-103v-436h115zM23 0v664h257q67 0 124 -22.5t97.5 -64.5t63.5 -102t23 -136t-20.5 -138.5t-58.5 -107t-91 -69t-117 -24.5h-278zM221 -206v124h130v-124h-130z" />
    <glyph glyph-name="uni1E0D" unicode="&#x1e0d;" horiz-adv-x="523" 
d="M16 0zM259 93q47 0 78.5 39t31.5 102q0 160 -109 160q-112 0 -112 -152q0 -66 31 -107.5t80 -41.5zM367 0l-1 60q-45 -73 -137 -73q-47 0 -86 18t-67 52t-44 83t-16 111q0 56 13.5 102.5t39.5 80.5t63.5 52.5t85.5 18.5q91 0 146 -77v244h128v-672h-125zM191 -206v124
h130v-124h-130z" />
    <glyph glyph-name="uni1E12" unicode="&#x1e12;" horiz-adv-x="607" 
d="M23 0zM273 113q91 0 132 56.5t41 169.5q0 56 -10 96t-32.5 65.5t-57.5 37t-85 11.5h-103v-436h115zM23 0v664h257q67 0 124 -22.5t97.5 -64.5t63.5 -102t23 -136t-20.5 -138.5t-58.5 -107t-91 -69t-117 -24.5h-278zM282 -109l-135 -118l-46 51l128 134h106l128 -134
l-46 -51z" />
    <glyph glyph-name="uni1E13" unicode="&#x1e13;" horiz-adv-x="523" 
d="M16 0zM259 93q47 0 78.5 39t31.5 102q0 160 -109 160q-112 0 -112 -152q0 -66 31 -107.5t80 -41.5zM367 0l-1 60q-45 -73 -137 -73q-47 0 -86 18t-67 52t-44 83t-16 111q0 56 13.5 102.5t39.5 80.5t63.5 52.5t85.5 18.5q91 0 146 -77v244h128v-672h-125zM253 -109
l-135 -118l-46 51l128 134h106l128 -134l-46 -51z" />
    <glyph glyph-name="uni1E24" unicode="&#x1e24;" horiz-adv-x="587" 
d="M23 0zM421 0v298h-259v-298h-139v664h139v-250h259v250h140v-664h-140zM233 -206v124h130v-124h-130z" />
    <glyph glyph-name="uni1E25" unicode="&#x1e25;" 
d="M26 0zM341 0v305q0 56 -19.5 76.5t-64.5 20.5q-24 0 -43 -9.5t-32 -26t-19.5 -38t-6.5 -46.5v-282h-130v672h130v-244q7 16 21.5 30.5t33.5 24.5t42 16t48 6q76 0 123.5 -41.5t47.5 -115.5v-348h-131zM191 -206v124h130v-124h-130z" />
    <glyph glyph-name="uni1E3C" unicode="&#x1e3c;" horiz-adv-x="501" 
d="M23 0zM23 0v664h139v-543h329v-121h-468zM262 -109l-135 -118l-46 51l128 134h106l128 -134l-46 -51z" />
    <glyph glyph-name="uni1E3D" unicode="&#x1e3d;" horiz-adv-x="237" 
d="M0 0zM52 0v672h130v-672h-130zM120 -109l-135 -118l-46 51l128 134h106l128 -134l-46 -51z" />
    <glyph glyph-name="uni1E44" unicode="&#x1e44;" horiz-adv-x="591" 
d="M23 0zM436 0l-284 446v-446h-129v664h147l264 -427v427h130v-664h-128zM235 751v124h130v-124h-130z" />
    <glyph glyph-name="uni1E45" unicode="&#x1e45;" 
d="M26 0zM341 0v298q0 57 -19 77t-65 20q-101 0 -101 -113v-282h-130v492h124v-72q23 42 61 63.5t98 21.5q35 0 65 -10.5t51.5 -31.5t34 -51.5t12.5 -70.5v-341h-131zM192 579v124h130v-124h-130z" />
    <glyph glyph-name="uni1E4A" unicode="&#x1e4a;" horiz-adv-x="591" 
d="M23 0zM436 0l-284 446v-446h-129v664h147l264 -427v427h130v-664h-128zM297 -109l-135 -118l-46 51l128 134h106l128 -134l-46 -51z" />
    <glyph glyph-name="uni1E4B" unicode="&#x1e4b;" 
d="M26 0zM341 0v298q0 57 -19 77t-65 20q-101 0 -101 -113v-282h-130v492h124v-72q23 42 61 63.5t98 21.5q35 0 65 -10.5t51.5 -31.5t34 -51.5t12.5 -70.5v-341h-131zM253 -109l-135 -118l-46 51l128 134h106l128 -134l-46 -51z" />
    <glyph glyph-name="uni1E5A" unicode="&#x1e5a;" horiz-adv-x="578" 
d="M23 0zM158 549v-177h174q56 0 79 25t23 63q0 39 -22.5 64t-74.5 25h-179zM410 0v171q0 48 -22 68.5t-82 20.5h-148v-260h-135v664h337q46 0 83.5 -14.5t64.5 -40t41.5 -61t14.5 -76.5q0 -54 -25.5 -95.5t-73.5 -58.5q44 -14 62.5 -43t18.5 -87v-188h-136zM229 -206v124
h130v-124h-130z" />
    <glyph glyph-name="uni1E5B" unicode="&#x1e5b;" horiz-adv-x="321" 
d="M26 0zM26 0v492h122v-59q16 25 33.5 39t36 21.5t37.5 9.5t39 2h17v-133q-18 3 -36 3q-119 0 -119 -119v-256h-130zM33 -206v124h130v-124h-130z" />
    <glyph glyph-name="uni1E62" unicode="&#x1e62;" horiz-adv-x="563" 
d="M6 0zM399 468q-5 51 -37 76t-95 25q-59 0 -89 -20t-30 -58q0 -32 23.5 -51t79.5 -33q57 -14 108.5 -27.5t88.5 -30.5q22 -10 41 -23t33 -32t22 -45t8 -61q0 -55 -19.5 -94.5t-55 -65.5t-84 -38.5t-106.5 -12.5q-62 0 -113 13.5t-88 41.5t-58 69.5t-22 97.5h134
q2 -51 41.5 -80.5t106.5 -29.5q62 0 95.5 24.5t33.5 69.5q0 15 -4.5 27t-16 22.5t-31.5 19t-51 15.5q-62 14 -104.5 24.5t-77.5 26.5q-54 24 -82.5 62.5t-28.5 101.5q0 45 15 82.5t45.5 64.5t76 42t106.5 15q63 0 112 -16t82.5 -45t52 -69t20.5 -88h-132zM221 -206v124h130
v-124h-130z" />
    <glyph glyph-name="uni1E63" unicode="&#x1e63;" horiz-adv-x="472" 
d="M9 0zM322 343q-5 36 -26 50.5t-66 14.5q-37 0 -57 -9.5t-20 -31.5t20 -33.5t60 -22.5q42 -12 80 -21.5t67 -20.5q39 -16 60 -43.5t21 -75.5q0 -77 -54.5 -120t-160.5 -43q-114 0 -174.5 48t-62.5 123h134q0 -35 27 -54t75 -19q35 0 61 11.5t26 39.5q0 26 -23.5 37
t-55.5 19q-62 15 -100 27t-64 29q-35 22 -48.5 50t-13.5 61q0 31 11 58t36 46.5t64.5 30.5t95.5 11q107 0 157.5 -41t55.5 -121h-125zM176 -206v124h130v-124h-130z" />
    <glyph glyph-name="uni1E6C" unicode="&#x1e6c;" horiz-adv-x="554" 
d="M4 0zM204 0v548h-200v116h540v-116h-201v-548h-139zM217 -206v124h130v-124h-130z" />
    <glyph glyph-name="uni1E6D" unicode="&#x1e6d;" horiz-adv-x="453" 
d="M26 0zM305 324h121v-140q0 -39 -11.5 -74.5t-36 -63t-62 -43.5t-89.5 -16q-54 0 -92 16t-62.5 43t-35.5 63t-11 76v440h128v-133h272v-92h-272v-202q0 -47 17.5 -72.5t57.5 -25.5q39 0 57.5 25t18.5 71v128zM166 -206v124h130v-124h-130z" />
    <glyph glyph-name="Wgrave" unicode="&#x1e80;" horiz-adv-x="856" 
d="M3 0zM529 0l-103 432l-105 -432h-130l-188 664h148l109 -430l92 430h146l101 -430l108 430h142l-186 -664h-134zM272 820l47 82l207 -121l-31 -55z" />
    <glyph glyph-name="wgrave" unicode="&#x1e81;" horiz-adv-x="714" 
d="M3 0zM432 0l-78 286l-78 -286h-133l-140 492h137l80 -316l68 316h132l77 -316l75 316h134l-141 -492h-133zM201 648l47 82l207 -121l-31 -55z" />
    <glyph glyph-name="Wacute" unicode="&#x1e82;" horiz-adv-x="856" 
d="M3 0zM529 0l-103 432l-105 -432h-130l-188 664h148l109 -430l92 430h146l101 -430l108 430h142l-186 -664h-134zM363 726l-31 55l207 121l47 -82z" />
    <glyph glyph-name="wacute" unicode="&#x1e83;" horiz-adv-x="714" 
d="M3 0zM432 0l-78 286l-78 -286h-133l-140 492h137l80 -316l68 316h132l77 -316l75 316h134l-141 -492h-133zM292 554l-31 55l207 121l47 -82z" />
    <glyph glyph-name="Wdieresis" unicode="&#x1e84;" horiz-adv-x="856" 
d="M3 0zM529 0l-103 432l-105 -432h-130l-188 664h148l109 -430l92 430h146l101 -430l108 430h142l-186 -664h-134zM267 751v124h130v-124h-130zM467 751v124h130v-124h-130z" />
    <glyph glyph-name="wdieresis" unicode="&#x1e85;" horiz-adv-x="714" 
d="M3 0zM432 0l-78 286l-78 -286h-133l-140 492h137l80 -316l68 316h132l77 -316l75 316h134l-141 -492h-133zM196 579v124h130v-124h-130zM396 579v124h130v-124h-130z" />
    <glyph glyph-name="uni1E92" unicode="&#x1e92;" horiz-adv-x="532" 
d="M4 0zM4 0v118l345 430h-335v116h509v-109l-347 -437h347v-118h-519zM206 -206v124h130v-124h-130z" />
    <glyph glyph-name="uni1E93" unicode="&#x1e93;" horiz-adv-x="445" 
d="M9 0zM9 0v100l251 289h-234v103h400v-105l-251 -281h258v-106h-424zM162 -206v124h130v-124h-130z" />
    <glyph glyph-name="uni1E9E" unicode="&#x1e9e;" horiz-adv-x="603" 
d="M543 664v-106l-129 -134q90 -13 137 -68t47 -142q0 -53 -17.5 -95.5t-49 -71.5t-75.5 -44.5t-97 -15.5q-34 0 -66 5.5t-52 13.5v106q18 -8 43.5 -13t49.5 -5q60 0 96 31t36 89q0 30 -10 52.5t-27 37.5t-40 22.5t-48 7.5q-38 0 -72 -17v95l134 148h-106q-42 0 -68 -11.5
t-40 -34.5t-19 -57t-5 -78v-379h-139v430q0 114 69.5 174t201.5 60h246z" />
    <glyph glyph-name="uni1EA0" unicode="&#x1ea0;" horiz-adv-x="643" 
d="M3 0zM319 515h-1l-85 -264h169zM484 0l-42 137h-245l-47 -137h-147l237 664h161l234 -664h-151zM261 -206v124h130v-124h-130z" />
    <glyph glyph-name="uni1EA1" unicode="&#x1ea1;" horiz-adv-x="486" 
d="M13 0zM325 241q-10 -10 -29 -16t-55 -13q-56 -11 -77 -28t-21 -49q0 -55 63 -55q25 0 46.5 8.5t37 23t25 34t9.5 41.5zM334 0q-6 19 -8 44q-23 -26 -61 -41.5t-88 -15.5q-85 0 -124.5 37.5t-39.5 97.5q0 53 17 84.5t47 49.5t71.5 26.5t90.5 15.5t66 18.5t17 37.5
q0 24 -22.5 37.5t-60.5 13.5q-45 0 -64.5 -20t-24.5 -53h-121q1 38 12.5 70t37 55t66.5 35.5t100 12.5q58 0 98.5 -13t65 -37.5t35.5 -61t11 -82.5v-311h-121zM182 -206v124h130v-124h-130z" />
    <glyph glyph-name="uni1EA2" unicode="&#x1ea2;" horiz-adv-x="643" 
d="M3 0zM319 515h-1l-85 -264h169zM484 0l-42 137h-245l-47 -137h-147l237 664h161l234 -664h-151zM294 753q0 17 5 30.5t20 22.5q11 6 17 12t6 18q0 17 -24 17q-8 0 -18 -3t-23 -12l-18 55q15 13 35.5 19t34.5 6q35 0 54.5 -16.5t19.5 -44.5q0 -21 -9 -33.5t-20.5 -22
t-20.5 -20t-9 -28.5h-50z" />
    <glyph glyph-name="uni1EA3" unicode="&#x1ea3;" horiz-adv-x="486" 
d="M13 0zM325 241q-10 -10 -29 -16t-55 -13q-56 -11 -77 -28t-21 -49q0 -55 63 -55q25 0 46.5 8.5t37 23t25 34t9.5 41.5zM334 0q-6 19 -8 44q-23 -26 -61 -41.5t-88 -15.5q-85 0 -124.5 37.5t-39.5 97.5q0 53 17 84.5t47 49.5t71.5 26.5t90.5 15.5t66 18.5t17 37.5
q0 24 -22.5 37.5t-60.5 13.5q-45 0 -64.5 -20t-24.5 -53h-121q1 38 12.5 70t37 55t66.5 35.5t100 12.5q58 0 98.5 -13t65 -37.5t35.5 -61t11 -82.5v-311h-121zM221 581q0 17 5 30.5t20 22.5q11 6 17 12t6 18q0 17 -24 17q-8 0 -18 -3t-23 -12l-18 55q15 13 35.5 19t34.5 6
q35 0 54.5 -16.5t19.5 -44.5q0 -21 -9 -33.5t-20.5 -22t-20.5 -20t-9 -28.5h-50z" />
    <glyph glyph-name="uni1EA4" unicode="&#x1ea4;" horiz-adv-x="643" 
d="M3 0zM319 515h-1l-85 -264h169zM484 0l-42 137h-245l-47 -137h-147l237 664h161l234 -664h-151zM321 844l-116 -101l-39 44l110 115h91l110 -115l-40 -44zM505 756l-25 46l171 100l39 -68z" />
    <glyph glyph-name="uni1EA5" unicode="&#x1ea5;" horiz-adv-x="486" 
d="M13 0zM325 241q-10 -10 -29 -16t-55 -13q-56 -11 -77 -28t-21 -49q0 -55 63 -55q25 0 46.5 8.5t37 23t25 34t9.5 41.5zM334 0q-6 19 -8 44q-23 -26 -61 -41.5t-88 -15.5q-85 0 -124.5 37.5t-39.5 97.5q0 53 17 84.5t47 49.5t71.5 26.5t90.5 15.5t66 18.5t17 37.5
q0 24 -22.5 37.5t-60.5 13.5q-45 0 -64.5 -20t-24.5 -53h-121q1 38 12.5 70t37 55t66.5 35.5t100 12.5q58 0 98.5 -13t65 -37.5t35.5 -61t11 -82.5v-311h-121zM247 672l-116 -101l-39 44l110 115h91l110 -115l-40 -44zM431 584l-25 46l171 100l39 -68z" />
    <glyph glyph-name="uni1EA6" unicode="&#x1ea6;" horiz-adv-x="643" 
d="M3 0zM319 515h-1l-85 -264h169zM484 0l-42 137h-245l-47 -137h-147l237 664h161l234 -664h-151zM332 844l-116 -101l-40 44l110 115h91l110 -115l-39 -44zM467 834l39 68l171 -100l-25 -46z" />
    <glyph glyph-name="uni1EA7" unicode="&#x1ea7;" horiz-adv-x="486" 
d="M13 0zM325 241q-10 -10 -29 -16t-55 -13q-56 -11 -77 -28t-21 -49q0 -55 63 -55q25 0 46.5 8.5t37 23t25 34t9.5 41.5zM334 0q-6 19 -8 44q-23 -26 -61 -41.5t-88 -15.5q-85 0 -124.5 37.5t-39.5 97.5q0 53 17 84.5t47 49.5t71.5 26.5t90.5 15.5t66 18.5t17 37.5
q0 24 -22.5 37.5t-60.5 13.5q-45 0 -64.5 -20t-24.5 -53h-121q1 38 12.5 70t37 55t66.5 35.5t100 12.5q58 0 98.5 -13t65 -37.5t35.5 -61t11 -82.5v-311h-121zM246 672l-116 -101l-40 44l110 115h91l110 -115l-39 -44zM381 662l39 68l171 -100l-25 -46z" />
    <glyph glyph-name="uni1EA8" unicode="&#x1ea8;" horiz-adv-x="643" 
d="M3 0zM319 515h-1l-85 -264h169zM484 0l-42 137h-245l-47 -137h-147l237 664h161l234 -664h-151zM504 753q0 17 5 30.5t20 22.5q11 6 17 12t6 18q0 17 -24 17q-8 0 -18 -3t-23 -12l-18 55q15 13 35.5 19t34.5 6q35 0 54.5 -16.5t19.5 -44.5q0 -21 -9 -33.5t-20.5 -22
t-20.5 -20t-9 -28.5h-50zM328 844l-116 -101l-40 44l110 115h91l110 -115l-39 -44z" />
    <glyph glyph-name="uni1EA9" unicode="&#x1ea9;" horiz-adv-x="486" 
d="M13 0zM325 241q-10 -10 -29 -16t-55 -13q-56 -11 -77 -28t-21 -49q0 -55 63 -55q25 0 46.5 8.5t37 23t25 34t9.5 41.5zM334 0q-6 19 -8 44q-23 -26 -61 -41.5t-88 -15.5q-85 0 -124.5 37.5t-39.5 97.5q0 53 17 84.5t47 49.5t71.5 26.5t90.5 15.5t66 18.5t17 37.5
q0 24 -22.5 37.5t-60.5 13.5q-45 0 -64.5 -20t-24.5 -53h-121q1 38 12.5 70t37 55t66.5 35.5t100 12.5q58 0 98.5 -13t65 -37.5t35.5 -61t11 -82.5v-311h-121zM421 581q0 17 5 30.5t20 22.5q11 6 17 12t6 18q0 17 -24 17q-8 0 -18 -3t-23 -12l-18 55q15 13 35.5 19t34.5 6
q35 0 54.5 -16.5t19.5 -44.5q0 -21 -9 -33.5t-20.5 -22t-20.5 -20t-9 -28.5h-50zM245 672l-116 -101l-40 44l110 115h91l110 -115l-39 -44z" />
    <glyph glyph-name="uni1EAA" unicode="&#x1eaa;" horiz-adv-x="643" 
d="M3 0zM319 515h-1l-85 -264h169zM484 0l-42 137h-245l-47 -137h-147l237 664h161l234 -664h-151zM451 904q-9 -36 -31.5 -48.5t-46.5 -12.5q-12 0 -26 3t-27.5 7t-25.5 7t-21 3q-16 0 -28 -32l-49 20q9 34 28 48.5t42 14.5q18 0 32 -3.5t26.5 -8t24 -8t23.5 -3.5
q11 0 18 5.5t10 21.5zM424 726l-102 70l-101 -70l-35 30l96 80h80l96 -80z" />
    <glyph glyph-name="uni1EAB" unicode="&#x1eab;" horiz-adv-x="486" 
d="M13 0zM325 241q-10 -10 -29 -16t-55 -13q-56 -11 -77 -28t-21 -49q0 -55 63 -55q25 0 46.5 8.5t37 23t25 34t9.5 41.5zM334 0q-6 19 -8 44q-23 -26 -61 -41.5t-88 -15.5q-85 0 -124.5 37.5t-39.5 97.5q0 53 17 84.5t47 49.5t71.5 26.5t90.5 15.5t66 18.5t17 37.5
q0 24 -22.5 37.5t-60.5 13.5q-45 0 -64.5 -20t-24.5 -53h-121q1 38 12.5 70t37 55t66.5 35.5t100 12.5q58 0 98.5 -13t65 -37.5t35.5 -61t11 -82.5v-311h-121zM378 732q-9 -36 -31.5 -48.5t-46.5 -12.5q-12 0 -26 3t-27.5 7t-25.5 7t-21 3q-16 0 -28 -32l-49 20
q9 34 28 48.5t42 14.5q18 0 32 -3.5t26.5 -8t24 -8t23.5 -3.5q11 0 18 5.5t10 21.5zM351 554l-102 70l-101 -70l-35 30l96 80h80l96 -80z" />
    <glyph glyph-name="uni1EAC" unicode="&#x1eac;" horiz-adv-x="643" 
d="M3 0zM319 515h-1l-85 -264h169zM484 0l-42 137h-245l-47 -137h-147l237 664h161l234 -664h-151zM322 851l-135 -118l-46 51l128 134h106l128 -134l-46 -51zM261 -206v124h130v-124h-130z" />
    <glyph glyph-name="uni1EAD" unicode="&#x1ead;" horiz-adv-x="486" 
d="M13 0zM325 241q-10 -10 -29 -16t-55 -13q-56 -11 -77 -28t-21 -49q0 -55 63 -55q25 0 46.5 8.5t37 23t25 34t9.5 41.5zM334 0q-6 19 -8 44q-23 -26 -61 -41.5t-88 -15.5q-85 0 -124.5 37.5t-39.5 97.5q0 53 17 84.5t47 49.5t71.5 26.5t90.5 15.5t66 18.5t17 37.5
q0 24 -22.5 37.5t-60.5 13.5q-45 0 -64.5 -20t-24.5 -53h-121q1 38 12.5 70t37 55t66.5 35.5t100 12.5q58 0 98.5 -13t65 -37.5t35.5 -61t11 -82.5v-311h-121zM244 679l-135 -118l-46 51l128 134h106l128 -134l-46 -51zM173 -206v124h130v-124h-130z" />
    <glyph glyph-name="uni1EAE" unicode="&#x1eae;" horiz-adv-x="643" 
d="M3 0zM319 515h-1l-85 -264h169zM484 0l-42 137h-245l-47 -137h-147l237 664h161l234 -664h-151zM433 840q0 -29 -9.5 -50t-25 -35.5t-36 -21.5t-41.5 -7t-41 7t-35.5 21.5t-25 35.5t-9.5 50h57q0 -29 14.5 -44.5t39.5 -15.5q26 0 40 15.5t15 44.5h57zM293 816l-18 33
l119 69l27 -47z" />
    <glyph glyph-name="uni1EAF" unicode="&#x1eaf;" horiz-adv-x="486" 
d="M13 0zM325 241q-10 -10 -29 -16t-55 -13q-56 -11 -77 -28t-21 -49q0 -55 63 -55q25 0 46.5 8.5t37 23t25 34t9.5 41.5zM334 0q-6 19 -8 44q-23 -26 -61 -41.5t-88 -15.5q-85 0 -124.5 37.5t-39.5 97.5q0 53 17 84.5t47 49.5t71.5 26.5t90.5 15.5t66 18.5t17 37.5
q0 24 -22.5 37.5t-60.5 13.5q-45 0 -64.5 -20t-24.5 -53h-121q1 38 12.5 70t37 55t66.5 35.5t100 12.5q58 0 98.5 -13t65 -37.5t35.5 -61t11 -82.5v-311h-121zM355 668q0 -29 -9.5 -50t-25 -35.5t-36 -21.5t-41.5 -7t-41 7t-35.5 21.5t-25 35.5t-9.5 50h57q0 -29 14.5 -44.5
t39.5 -15.5q26 0 40 15.5t15 44.5h57zM215 644l-18 33l119 69l27 -47z" />
    <glyph glyph-name="uni1EB0" unicode="&#x1eb0;" horiz-adv-x="643" 
d="M3 0zM319 515h-1l-85 -264h169zM484 0l-42 137h-245l-47 -137h-147l237 664h161l234 -664h-151zM433 840q0 -29 -9.5 -50t-25 -35.5t-35.5 -21.5t-41 -7t-41.5 7t-36 21.5t-25 35.5t-9.5 50h57q1 -29 15 -44.5t40 -15.5q25 0 39.5 15.5t14.5 44.5h57zM222 871l27 47
l119 -69l-18 -33z" />
    <glyph glyph-name="uni1EB1" unicode="&#x1eb1;" horiz-adv-x="486" 
d="M13 0zM325 241q-10 -10 -29 -16t-55 -13q-56 -11 -77 -28t-21 -49q0 -55 63 -55q25 0 46.5 8.5t37 23t25 34t9.5 41.5zM334 0q-6 19 -8 44q-23 -26 -61 -41.5t-88 -15.5q-85 0 -124.5 37.5t-39.5 97.5q0 53 17 84.5t47 49.5t71.5 26.5t90.5 15.5t66 18.5t17 37.5
q0 24 -22.5 37.5t-60.5 13.5q-45 0 -64.5 -20t-24.5 -53h-121q1 38 12.5 70t37 55t66.5 35.5t100 12.5q58 0 98.5 -13t65 -37.5t35.5 -61t11 -82.5v-311h-121zM359 668q0 -29 -9.5 -50t-25 -35.5t-35.5 -21.5t-41 -7t-41.5 7t-36 21.5t-25 35.5t-9.5 50h57q1 -29 15 -44.5
t40 -15.5q25 0 39.5 15.5t14.5 44.5h57zM148 699l27 47l119 -69l-18 -33z" />
    <glyph glyph-name="uni1EB2" unicode="&#x1eb2;" horiz-adv-x="643" 
d="M3 0zM319 515h-1l-85 -264h169zM484 0l-42 137h-245l-47 -137h-147l237 664h161l234 -664h-151zM433 840q0 -29 -9.5 -50t-25 -35.5t-35.5 -21.5t-41 -7t-41.5 7t-36 21.5t-25 35.5t-9.5 50h57q1 -29 15 -44.5t40 -15.5q25 0 39.5 15.5t14.5 44.5h57zM296 795q0 13 4 23
t15 17q8 5 12.5 9t4.5 13q0 13 -18 13q-13 0 -31 -11l-13 40q11 10 26 14.5t26 4.5q26 0 40.5 -12.5t14.5 -32.5q0 -16 -7 -25t-15 -16.5t-15 -15.5t-7 -21h-37z" />
    <glyph glyph-name="uni1EB3" unicode="&#x1eb3;" horiz-adv-x="486" 
d="M13 0zM325 241q-10 -10 -29 -16t-55 -13q-56 -11 -77 -28t-21 -49q0 -55 63 -55q25 0 46.5 8.5t37 23t25 34t9.5 41.5zM334 0q-6 19 -8 44q-23 -26 -61 -41.5t-88 -15.5q-85 0 -124.5 37.5t-39.5 97.5q0 53 17 84.5t47 49.5t71.5 26.5t90.5 15.5t66 18.5t17 37.5
q0 24 -22.5 37.5t-60.5 13.5q-45 0 -64.5 -20t-24.5 -53h-121q1 38 12.5 70t37 55t66.5 35.5t100 12.5q58 0 98.5 -13t65 -37.5t35.5 -61t11 -82.5v-311h-121zM357 668q0 -29 -9.5 -50t-25 -35.5t-35.5 -21.5t-41 -7t-41.5 7t-36 21.5t-25 35.5t-9.5 50h57q1 -29 15 -44.5
t40 -15.5q25 0 39.5 15.5t14.5 44.5h57zM220 623q0 13 4 23t15 17q8 5 12.5 9t4.5 13q0 13 -18 13q-13 0 -31 -11l-13 40q11 10 26 14.5t26 4.5q26 0 40.5 -12.5t14.5 -32.5q0 -16 -7 -25t-15 -16.5t-15 -15.5t-7 -21h-37z" />
    <glyph glyph-name="uni1EB4" unicode="&#x1eb4;" horiz-adv-x="643" 
d="M3 0zM319 515h-1l-85 -264h169zM484 0l-42 137h-245l-47 -137h-147l237 664h161l234 -664h-151zM413 908q-6 -28 -21 -41t-32 -13q-10 0 -18.5 3.5t-16.5 7.5t-16.5 7.5t-17.5 3.5q-5 0 -8.5 -4.5t-8.5 -18.5l-37 18q8 25 21 35t30 10q10 0 18.5 -3.5t17 -8t17 -8
t18.5 -3.5q12 0 15 25zM433 840q0 -29 -9.5 -50t-25 -35.5t-35.5 -21.5t-41 -7t-41.5 7t-36 21.5t-25 35.5t-9.5 50h57q1 -29 15 -44.5t40 -15.5q25 0 39.5 15.5t14.5 44.5h57z" />
    <glyph glyph-name="uni1EB5" unicode="&#x1eb5;" horiz-adv-x="486" 
d="M13 0zM325 241q-10 -10 -29 -16t-55 -13q-56 -11 -77 -28t-21 -49q0 -55 63 -55q25 0 46.5 8.5t37 23t25 34t9.5 41.5zM334 0q-6 19 -8 44q-23 -26 -61 -41.5t-88 -15.5q-85 0 -124.5 37.5t-39.5 97.5q0 53 17 84.5t47 49.5t71.5 26.5t90.5 15.5t66 18.5t17 37.5
q0 24 -22.5 37.5t-60.5 13.5q-45 0 -64.5 -20t-24.5 -53h-121q1 38 12.5 70t37 55t66.5 35.5t100 12.5q58 0 98.5 -13t65 -37.5t35.5 -61t11 -82.5v-311h-121zM335 736q-6 -28 -21 -41t-32 -13q-10 0 -18.5 3.5t-16.5 7.5t-16.5 7.5t-17.5 3.5q-5 0 -8.5 -4.5t-8.5 -18.5
l-37 18q8 25 21 35t30 10q10 0 18.5 -3.5t17 -8t17 -8t18.5 -3.5q12 0 15 25zM355 668q0 -29 -9.5 -50t-25 -35.5t-35.5 -21.5t-41 -7t-41.5 7t-36 21.5t-25 35.5t-9.5 50h57q1 -29 15 -44.5t40 -15.5q25 0 39.5 15.5t14.5 44.5h57z" />
    <glyph glyph-name="uni1EB6" unicode="&#x1eb6;" horiz-adv-x="643" 
d="M3 0zM319 515h-1l-85 -264h169zM484 0l-42 137h-245l-47 -137h-147l237 664h161l234 -664h-151zM485 918q0 -42 -13.5 -73t-36 -51.5t-52 -31t-60.5 -10.5t-60.5 10.5t-52 31t-36 51.5t-13.5 73h82q2 -42 22.5 -64.5t57.5 -22.5t57.5 22.5t22.5 64.5h82zM261 -206v124
h130v-124h-130z" />
    <glyph glyph-name="uni1EB7" unicode="&#x1eb7;" horiz-adv-x="486" 
d="M13 0zM325 241q-10 -10 -29 -16t-55 -13q-56 -11 -77 -28t-21 -49q0 -55 63 -55q25 0 46.5 8.5t37 23t25 34t9.5 41.5zM334 0q-6 19 -8 44q-23 -26 -61 -41.5t-88 -15.5q-85 0 -124.5 37.5t-39.5 97.5q0 53 17 84.5t47 49.5t71.5 26.5t90.5 15.5t66 18.5t17 37.5
q0 24 -22.5 37.5t-60.5 13.5q-45 0 -64.5 -20t-24.5 -53h-121q1 38 12.5 70t37 55t66.5 35.5t100 12.5q58 0 98.5 -13t65 -37.5t35.5 -61t11 -82.5v-311h-121zM406 746q0 -42 -13.5 -73t-36 -51.5t-52 -31t-60.5 -10.5t-60.5 10.5t-52 31t-36 51.5t-13.5 73h82
q2 -42 22.5 -64.5t57.5 -22.5t57.5 22.5t22.5 64.5h82zM173 -206v124h130v-124h-130z" />
    <glyph glyph-name="uni1EB8" unicode="&#x1eb8;" horiz-adv-x="532" 
d="M23 0zM23 0v664h488v-116h-353v-142h325v-117h-325v-171h369v-118h-504zM211 -206v124h130v-124h-130z" />
    <glyph glyph-name="uni1EB9" unicode="&#x1eb9;" 
d="M15 0zM350 294q-1 27 -9.5 47.5t-22.5 34t-32 20t-37 6.5q-39 0 -67.5 -28.5t-32.5 -79.5h201zM145 212q3 -56 32.5 -89t77.5 -33q32 0 56.5 14.5t31.5 40.5h134q-23 -76 -80 -117t-136 -41q-246 0 -246 268q0 57 16 103t46.5 79t74.5 50.5t101 17.5q114 0 172.5 -73
t58.5 -220h-339zM193 -206v124h130v-124h-130z" />
    <glyph glyph-name="uni1EBA" unicode="&#x1eba;" horiz-adv-x="532" 
d="M23 0zM23 0v664h488v-116h-353v-142h325v-117h-325v-171h369v-118h-504zM246 753q0 17 5 30.5t20 22.5q11 6 17 12t6 18q0 17 -24 17q-8 0 -18 -3t-23 -12l-18 55q15 13 35.5 19t34.5 6q35 0 54.5 -16.5t19.5 -44.5q0 -21 -9 -33.5t-20.5 -22t-20.5 -20t-9 -28.5h-50z
" />
    <glyph glyph-name="uni1EBB" unicode="&#x1ebb;" 
d="M15 0zM350 294q-1 27 -9.5 47.5t-22.5 34t-32 20t-37 6.5q-39 0 -67.5 -28.5t-32.5 -79.5h201zM145 212q3 -56 32.5 -89t77.5 -33q32 0 56.5 14.5t31.5 40.5h134q-23 -76 -80 -117t-136 -41q-246 0 -246 268q0 57 16 103t46.5 79t74.5 50.5t101 17.5q114 0 172.5 -73
t58.5 -220h-339zM224 581q0 17 5 30.5t20 22.5q11 6 17 12t6 18q0 17 -24 17q-8 0 -18 -3t-23 -12l-18 55q15 13 35.5 19t34.5 6q35 0 54.5 -16.5t19.5 -44.5q0 -21 -9 -33.5t-20.5 -22t-20.5 -20t-9 -28.5h-50z" />
    <glyph glyph-name="uni1EBC" unicode="&#x1ebc;" horiz-adv-x="532" 
d="M23 0zM23 0v664h488v-116h-353v-142h325v-117h-325v-171h369v-118h-504zM445 846q-17 -54 -47 -76t-62 -22q-19 0 -35.5 7t-31.5 15.5t-30 15.5t-31 7q-6 0 -18 -8t-21 -36l-69 37q16 49 41 68.5t56 19.5q23 0 41 -7.5t34 -16.5t30 -16.5t28 -7.5q9 0 22 10.5t18 36.5z
" />
    <glyph glyph-name="uni1EBD" unicode="&#x1ebd;" 
d="M15 0zM350 294q-1 27 -9.5 47.5t-22.5 34t-32 20t-37 6.5q-39 0 -67.5 -28.5t-32.5 -79.5h201zM145 212q3 -56 32.5 -89t77.5 -33q32 0 56.5 14.5t31.5 40.5h134q-23 -76 -80 -117t-136 -41q-246 0 -246 268q0 57 16 103t46.5 79t74.5 50.5t101 17.5q114 0 172.5 -73
t58.5 -220h-339zM425 674q-17 -54 -47 -76t-62 -22q-19 0 -35.5 7t-31.5 15.5t-30 15.5t-31 7q-6 0 -18 -8t-21 -36l-69 37q16 49 41 68.5t56 19.5q23 0 41 -7.5t34 -16.5t30 -16.5t28 -7.5q9 0 22 10.5t18 36.5z" />
    <glyph glyph-name="uni1EBE" unicode="&#x1ebe;" horiz-adv-x="532" 
d="M23 0zM23 0v664h488v-116h-353v-142h325v-117h-325v-171h369v-118h-504zM278 844l-116 -101l-39 44l110 115h91l110 -115l-40 -44zM462 756l-25 46l171 100l39 -68z" />
    <glyph glyph-name="uni1EBF" unicode="&#x1ebf;" 
d="M15 0zM350 294q-1 27 -9.5 47.5t-22.5 34t-32 20t-37 6.5q-39 0 -67.5 -28.5t-32.5 -79.5h201zM145 212q3 -56 32.5 -89t77.5 -33q32 0 56.5 14.5t31.5 40.5h134q-23 -76 -80 -117t-136 -41q-246 0 -246 268q0 57 16 103t46.5 79t74.5 50.5t101 17.5q114 0 172.5 -73
t58.5 -220h-339zM256 672l-116 -101l-39 44l110 115h91l110 -115l-40 -44zM440 584l-25 46l171 100l39 -68z" />
    <glyph glyph-name="uni1EC0" unicode="&#x1ec0;" horiz-adv-x="532" 
d="M23 0zM23 0v664h488v-116h-353v-142h325v-117h-325v-171h369v-118h-504zM280 844l-116 -101l-40 44l110 115h91l110 -115l-39 -44zM415 834l39 68l171 -100l-25 -46z" />
    <glyph glyph-name="uni1EC1" unicode="&#x1ec1;" 
d="M15 0zM350 294q-1 27 -9.5 47.5t-22.5 34t-32 20t-37 6.5q-39 0 -67.5 -28.5t-32.5 -79.5h201zM145 212q3 -56 32.5 -89t77.5 -33q32 0 56.5 14.5t31.5 40.5h134q-23 -76 -80 -117t-136 -41q-246 0 -246 268q0 57 16 103t46.5 79t74.5 50.5t101 17.5q114 0 172.5 -73
t58.5 -220h-339zM257 672l-116 -101l-40 44l110 115h91l110 -115l-39 -44zM392 662l39 68l171 -100l-25 -46z" />
    <glyph glyph-name="uni1EC2" unicode="&#x1ec2;" horiz-adv-x="532" 
d="M23 0zM23 0v664h488v-116h-353v-142h325v-117h-325v-171h369v-118h-504zM454 753q0 17 5 30.5t20 22.5q11 6 17 12t6 18q0 17 -24 17q-8 0 -18 -3t-23 -12l-18 55q15 13 35.5 19t34.5 6q35 0 54.5 -16.5t19.5 -44.5q0 -21 -9 -33.5t-20.5 -22t-20.5 -20t-9 -28.5h-50z
M278 844l-116 -101l-40 44l110 115h91l110 -115l-39 -44z" />
    <glyph glyph-name="uni1EC3" unicode="&#x1ec3;" 
d="M15 0zM350 294q-1 27 -9.5 47.5t-22.5 34t-32 20t-37 6.5q-39 0 -67.5 -28.5t-32.5 -79.5h201zM145 212q3 -56 32.5 -89t77.5 -33q32 0 56.5 14.5t31.5 40.5h134q-23 -76 -80 -117t-136 -41q-246 0 -246 268q0 57 16 103t46.5 79t74.5 50.5t101 17.5q114 0 172.5 -73
t58.5 -220h-339zM429 581q0 17 5 30.5t20 22.5q11 6 17 12t6 18q0 17 -24 17q-8 0 -18 -3t-23 -12l-18 55q15 13 35.5 19t34.5 6q35 0 54.5 -16.5t19.5 -44.5q0 -21 -9 -33.5t-20.5 -22t-20.5 -20t-9 -28.5h-50zM253 672l-116 -101l-40 44l110 115h91l110 -115l-39 -44z" />
    <glyph glyph-name="uni1EC4" unicode="&#x1ec4;" horiz-adv-x="532" 
d="M23 0zM23 0v664h488v-116h-353v-142h325v-117h-325v-171h369v-118h-504zM403 904q-9 -36 -31.5 -48.5t-46.5 -12.5q-12 0 -26 3t-27.5 7t-25.5 7t-21 3q-16 0 -28 -32l-49 20q9 34 28 48.5t42 14.5q18 0 32 -3.5t26.5 -8t24 -8t23.5 -3.5q11 0 18 5.5t10 21.5zM376 726
l-102 70l-101 -70l-35 30l96 80h80l96 -80z" />
    <glyph glyph-name="uni1EC5" unicode="&#x1ec5;" 
d="M15 0zM350 294q-1 27 -9.5 47.5t-22.5 34t-32 20t-37 6.5q-39 0 -67.5 -28.5t-32.5 -79.5h201zM145 212q3 -56 32.5 -89t77.5 -33q32 0 56.5 14.5t31.5 40.5h134q-23 -76 -80 -117t-136 -41q-246 0 -246 268q0 57 16 103t46.5 79t74.5 50.5t101 17.5q114 0 172.5 -73
t58.5 -220h-339zM381 732q-9 -36 -31.5 -48.5t-46.5 -12.5q-12 0 -26 3t-27.5 7t-25.5 7t-21 3q-16 0 -28 -32l-49 20q9 34 28 48.5t42 14.5q18 0 32 -3.5t26.5 -8t24 -8t23.5 -3.5q11 0 18 5.5t10 21.5zM354 554l-102 70l-101 -70l-35 30l96 80h80l96 -80z" />
    <glyph glyph-name="uni1EC6" unicode="&#x1ec6;" horiz-adv-x="532" 
d="M23 0zM23 0v664h488v-116h-353v-142h325v-117h-325v-171h369v-118h-504zM269 851l-135 -118l-46 51l128 134h106l128 -134l-46 -51zM206 -206v124h130v-124h-130z" />
    <glyph glyph-name="uni1EC7" unicode="&#x1ec7;" 
d="M15 0zM350 294q-1 27 -9.5 47.5t-22.5 34t-32 20t-37 6.5q-39 0 -67.5 -28.5t-32.5 -79.5h201zM145 212q3 -56 32.5 -89t77.5 -33q32 0 56.5 14.5t31.5 40.5h134q-23 -76 -80 -117t-136 -41q-246 0 -246 268q0 57 16 103t46.5 79t74.5 50.5t101 17.5q114 0 172.5 -73
t58.5 -220h-339zM253 679l-135 -118l-46 51l128 134h106l128 -134l-46 -51zM191 -206v124h130v-124h-130z" />
    <glyph glyph-name="uni1EC8" unicode="&#x1ec8;" horiz-adv-x="187" 
d="M23 0zM23 0v664h139v-664h-139zM62 753q0 17 5 30.5t20 22.5q11 6 17 12t6 18q0 17 -24 17q-8 0 -18 -3t-23 -12l-18 55q15 13 35.5 19t34.5 6q35 0 54.5 -16.5t19.5 -44.5q0 -21 -9 -33.5t-20.5 -22t-20.5 -20t-9 -28.5h-50z" />
    <glyph glyph-name="uni1EC9" unicode="&#x1ec9;" horiz-adv-x="192" 
d="M29 0zM29 0v492h130v-492h-130zM66 581q0 17 5 30.5t20 22.5q11 6 17 12t6 18q0 17 -24 17q-8 0 -18 -3t-23 -12l-18 55q15 13 35.5 19t34.5 6q35 0 54.5 -16.5t19.5 -44.5q0 -21 -9 -33.5t-20.5 -22t-20.5 -20t-9 -28.5h-50z" />
    <glyph glyph-name="uni1ECA" unicode="&#x1eca;" horiz-adv-x="187" 
d="M23 0zM23 0v664h139v-664h-139zM34 -206v124h130v-124h-130z" />
    <glyph glyph-name="uni1ECB" unicode="&#x1ecb;" horiz-adv-x="192" 
d="M29 0zM29 0v492h130v-492h-130zM29 551v121h130v-121h-130zM36 -206v124h130v-124h-130z" />
    <glyph glyph-name="uni1ECC" unicode="&#x1ecc;" horiz-adv-x="670" 
d="M15 0zM334 96q37 0 70 13.5t57.5 41t38.5 70.5t14 102q0 118 -46 179t-134 61t-135 -61t-47 -179t47.5 -172.5t134.5 -54.5zM334 -23q-154 0 -236.5 90t-82.5 259q0 84 21 151t62 113.5t100 71t136 24.5q76 0 135.5 -24.5t99.5 -71.5t61 -114.5t21 -152.5
q0 -172 -81.5 -259t-235.5 -87zM275 -206v124h130v-124h-130z" />
    <glyph glyph-name="uni1ECD" unicode="&#x1ecd;" horiz-adv-x="539" 
d="M15 0zM268 96q119 0 119 150q0 149 -119 149t-119 -149q0 -150 119 -150zM268 -13q-60 0 -107 19t-79.5 53t-49.5 82t-17 105q0 58 17.5 106t50.5 82t79.5 52.5t105.5 18.5q58 0 104 -18.5t78.5 -52t50 -81.5t17.5 -107t-17.5 -106.5t-50 -81.5t-79 -52.5t-103.5 -18.5z
M209 -206v124h130v-124h-130z" />
    <glyph glyph-name="uni1ECE" unicode="&#x1ece;" horiz-adv-x="670" 
d="M15 0zM334 96q37 0 70 13.5t57.5 41t38.5 70.5t14 102q0 118 -46 179t-134 61t-135 -61t-47 -179t47.5 -172.5t134.5 -54.5zM334 -23q-154 0 -236.5 90t-82.5 259q0 84 21 151t62 113.5t100 71t136 24.5q76 0 135.5 -24.5t99.5 -71.5t61 -114.5t21 -152.5
q0 -172 -81.5 -259t-235.5 -87zM306 753q0 17 5 30.5t20 22.5q11 6 17 12t6 18q0 17 -24 17q-8 0 -18 -3t-23 -12l-18 55q15 13 35.5 19t34.5 6q35 0 54.5 -16.5t19.5 -44.5q0 -21 -9 -33.5t-20.5 -22t-20.5 -20t-9 -28.5h-50z" />
    <glyph glyph-name="uni1ECF" unicode="&#x1ecf;" horiz-adv-x="539" 
d="M15 0zM268 96q119 0 119 150q0 149 -119 149t-119 -149q0 -150 119 -150zM268 -13q-60 0 -107 19t-79.5 53t-49.5 82t-17 105q0 58 17.5 106t50.5 82t79.5 52.5t105.5 18.5q58 0 104 -18.5t78.5 -52t50 -81.5t17.5 -107t-17.5 -106.5t-50 -81.5t-79 -52.5t-103.5 -18.5z
M240 581q0 17 5 30.5t20 22.5q11 6 17 12t6 18q0 17 -24 17q-8 0 -18 -3t-23 -12l-18 55q15 13 35.5 19t34.5 6q35 0 54.5 -16.5t19.5 -44.5q0 -21 -9 -33.5t-20.5 -22t-20.5 -20t-9 -28.5h-50z" />
    <glyph glyph-name="uni1ED0" unicode="&#x1ed0;" horiz-adv-x="670" 
d="M15 0zM334 96q37 0 70 13.5t57.5 41t38.5 70.5t14 102q0 118 -46 179t-134 61t-135 -61t-47 -179t47.5 -172.5t134.5 -54.5zM334 -23q-154 0 -236.5 90t-82.5 259q0 84 21 151t62 113.5t100 71t136 24.5q76 0 135.5 -24.5t99.5 -71.5t61 -114.5t21 -152.5
q0 -172 -81.5 -259t-235.5 -87zM340 844l-116 -101l-39 44l110 115h91l110 -115l-40 -44zM524 756l-25 46l171 100l39 -68z" />
    <glyph glyph-name="uni1ED1" unicode="&#x1ed1;" horiz-adv-x="539" 
d="M15 0zM268 96q119 0 119 150q0 149 -119 149t-119 -149q0 -150 119 -150zM268 -13q-60 0 -107 19t-79.5 53t-49.5 82t-17 105q0 58 17.5 106t50.5 82t79.5 52.5t105.5 18.5q58 0 104 -18.5t78.5 -52t50 -81.5t17.5 -107t-17.5 -106.5t-50 -81.5t-79 -52.5t-103.5 -18.5z
M274 672l-116 -101l-39 44l110 115h91l110 -115l-40 -44zM458 584l-25 46l171 100l39 -68z" />
    <glyph glyph-name="uni1ED2" unicode="&#x1ed2;" horiz-adv-x="670" 
d="M15 0zM334 96q37 0 70 13.5t57.5 41t38.5 70.5t14 102q0 118 -46 179t-134 61t-135 -61t-47 -179t47.5 -172.5t134.5 -54.5zM334 -23q-154 0 -236.5 90t-82.5 259q0 84 21 151t62 113.5t100 71t136 24.5q76 0 135.5 -24.5t99.5 -71.5t61 -114.5t21 -152.5
q0 -172 -81.5 -259t-235.5 -87zM342 844l-116 -101l-40 44l110 115h91l110 -115l-39 -44zM477 834l39 68l171 -100l-25 -46z" />
    <glyph glyph-name="uni1ED3" unicode="&#x1ed3;" horiz-adv-x="539" 
d="M15 0zM268 96q119 0 119 150q0 149 -119 149t-119 -149q0 -150 119 -150zM268 -13q-60 0 -107 19t-79.5 53t-49.5 82t-17 105q0 58 17.5 106t50.5 82t79.5 52.5t105.5 18.5q58 0 104 -18.5t78.5 -52t50 -81.5t17.5 -107t-17.5 -106.5t-50 -81.5t-79 -52.5t-103.5 -18.5z
M278 672l-116 -101l-40 44l110 115h91l110 -115l-39 -44zM413 662l39 68l171 -100l-25 -46z" />
    <glyph glyph-name="uni1ED4" unicode="&#x1ed4;" horiz-adv-x="670" 
d="M15 0zM334 96q37 0 70 13.5t57.5 41t38.5 70.5t14 102q0 118 -46 179t-134 61t-135 -61t-47 -179t47.5 -172.5t134.5 -54.5zM334 -23q-154 0 -236.5 90t-82.5 259q0 84 21 151t62 113.5t100 71t136 24.5q76 0 135.5 -24.5t99.5 -71.5t61 -114.5t21 -152.5
q0 -172 -81.5 -259t-235.5 -87zM513 753q0 17 5 30.5t20 22.5q11 6 17 12t6 18q0 17 -24 17q-8 0 -18 -3t-23 -12l-18 55q15 13 35.5 19t34.5 6q35 0 54.5 -16.5t19.5 -44.5q0 -21 -9 -33.5t-20.5 -22t-20.5 -20t-9 -28.5h-50zM337 844l-116 -101l-40 44l110 115h91
l110 -115l-39 -44z" />
    <glyph glyph-name="uni1ED5" unicode="&#x1ed5;" horiz-adv-x="539" 
d="M15 0zM268 96q119 0 119 150q0 149 -119 149t-119 -149q0 -150 119 -150zM268 -13q-60 0 -107 19t-79.5 53t-49.5 82t-17 105q0 58 17.5 106t50.5 82t79.5 52.5t105.5 18.5q58 0 104 -18.5t78.5 -52t50 -81.5t17.5 -107t-17.5 -106.5t-50 -81.5t-79 -52.5t-103.5 -18.5z
M448 581q0 17 5 30.5t20 22.5q11 6 17 12t6 18q0 17 -24 17q-8 0 -18 -3t-23 -12l-18 55q15 13 35.5 19t34.5 6q35 0 54.5 -16.5t19.5 -44.5q0 -21 -9 -33.5t-20.5 -22t-20.5 -20t-9 -28.5h-50zM272 672l-116 -101l-40 44l110 115h91l110 -115l-39 -44z" />
    <glyph glyph-name="uni1ED6" unicode="&#x1ed6;" horiz-adv-x="670" 
d="M15 0zM334 96q37 0 70 13.5t57.5 41t38.5 70.5t14 102q0 118 -46 179t-134 61t-135 -61t-47 -179t47.5 -172.5t134.5 -54.5zM334 -23q-154 0 -236.5 90t-82.5 259q0 84 21 151t62 113.5t100 71t136 24.5q76 0 135.5 -24.5t99.5 -71.5t61 -114.5t21 -152.5
q0 -172 -81.5 -259t-235.5 -87zM465 904q-9 -36 -31.5 -48.5t-46.5 -12.5q-12 0 -26 3t-27.5 7t-25.5 7t-21 3q-16 0 -28 -32l-49 20q9 34 28 48.5t42 14.5q18 0 32 -3.5t26.5 -8t24 -8t23.5 -3.5q11 0 18 5.5t10 21.5zM438 726l-102 70l-101 -70l-35 30l96 80h80l96 -80z
" />
    <glyph glyph-name="uni1ED7" unicode="&#x1ed7;" horiz-adv-x="539" 
d="M15 0zM268 96q119 0 119 150q0 149 -119 149t-119 -149q0 -150 119 -150zM268 -13q-60 0 -107 19t-79.5 53t-49.5 82t-17 105q0 58 17.5 106t50.5 82t79.5 52.5t105.5 18.5q58 0 104 -18.5t78.5 -52t50 -81.5t17.5 -107t-17.5 -106.5t-50 -81.5t-79 -52.5t-103.5 -18.5z
M399 732q-9 -36 -31.5 -48.5t-46.5 -12.5q-12 0 -26 3t-27.5 7t-25.5 7t-21 3q-16 0 -28 -32l-49 20q9 34 28 48.5t42 14.5q18 0 32 -3.5t26.5 -8t24 -8t23.5 -3.5q11 0 18 5.5t10 21.5zM372 554l-102 70l-101 -70l-35 30l96 80h80l96 -80z" />
    <glyph glyph-name="uni1ED8" unicode="&#x1ed8;" horiz-adv-x="670" 
d="M15 0zM334 96q37 0 70 13.5t57.5 41t38.5 70.5t14 102q0 118 -46 179t-134 61t-135 -61t-47 -179t47.5 -172.5t134.5 -54.5zM334 -23q-154 0 -236.5 90t-82.5 259q0 84 21 151t62 113.5t100 71t136 24.5q76 0 135.5 -24.5t99.5 -71.5t61 -114.5t21 -152.5
q0 -172 -81.5 -259t-235.5 -87zM336 851l-135 -118l-46 51l128 134h106l128 -134l-46 -51zM275 -206v124h130v-124h-130z" />
    <glyph glyph-name="uni1ED9" unicode="&#x1ed9;" horiz-adv-x="539" 
d="M15 0zM268 96q119 0 119 150q0 149 -119 149t-119 -149q0 -150 119 -150zM268 -13q-60 0 -107 19t-79.5 53t-49.5 82t-17 105q0 58 17.5 106t50.5 82t79.5 52.5t105.5 18.5q58 0 104 -18.5t78.5 -52t50 -81.5t17.5 -107t-17.5 -106.5t-50 -81.5t-79 -52.5t-103.5 -18.5z
M270 679l-135 -118l-46 51l128 134h106l128 -134l-46 -51zM209 -206v124h130v-124h-130z" />
    <glyph glyph-name="uni1EDA" unicode="&#x1eda;" horiz-adv-x="769" 
d="M15 0zM752 702q10 -11 15.5 -32.5t5.5 -45.5q0 -57 -25.5 -82t-66.5 -25q-35 0 -74 15q44 -85 44 -209q0 -172 -81.5 -259t-235.5 -87t-236.5 90t-82.5 259q0 84 21 151t62 113.5t100 71t136 24.5q126 0 206 -68q24 -20 50 -27.5t53 -7.5q29 0 38.5 19.5t9.5 43.5
q0 17 -2.5 32t-6.5 24h70zM334 96q37 0 70 13.5t57.5 41t38.5 70.5t14 102q0 118 -46 179t-134 61t-135 -61t-47 -179t47.5 -172.5t134.5 -54.5zM271 726l-31 55l207 121l47 -82z" />
    <glyph glyph-name="uni1EDB" unicode="&#x1edb;" horiz-adv-x="651" 
d="M15 0zM203 554l-31 55l207 121l47 -82zM634 543q10 -11 15.5 -32.5t5.5 -45.5q0 -20 -4 -39t-13.5 -34t-25 -24.5t-37.5 -9.5q-49 0 -83 14q26 -55 26 -126q0 -59 -17.5 -106.5t-50 -81.5t-79 -52.5t-103.5 -18.5q-60 0 -107 19t-79.5 53t-49.5 82t-17 105q0 58 17.5 106
t50.5 82t79.5 52.5t105.5 18.5q91 0 154 -46q30 -22 54.5 -28.5t48.5 -6.5q29 0 38.5 19.5t9.5 43.5q0 17 -2.5 32t-6.5 24h70zM268 96q119 0 119 150q0 149 -119 149t-119 -149q0 -150 119 -150z" />
    <glyph glyph-name="uni1EDC" unicode="&#x1edc;" horiz-adv-x="769" 
d="M15 0zM752 702q10 -11 15.5 -32.5t5.5 -45.5q0 -57 -25.5 -82t-66.5 -25q-35 0 -74 15q44 -85 44 -209q0 -172 -81.5 -259t-235.5 -87t-236.5 90t-82.5 259q0 84 21 151t62 113.5t100 71t136 24.5q126 0 206 -68q24 -20 50 -27.5t53 -7.5q29 0 38.5 19.5t9.5 43.5
q0 17 -2.5 32t-6.5 24h70zM334 96q37 0 70 13.5t57.5 41t38.5 70.5t14 102q0 118 -46 179t-134 61t-135 -61t-47 -179t47.5 -172.5t134.5 -54.5zM180 820l47 82l207 -121l-31 -55z" />
    <glyph glyph-name="uni1EDD" unicode="&#x1edd;" horiz-adv-x="651" 
d="M15 0zM114 648l47 82l207 -121l-31 -55zM634 543q10 -11 15.5 -32.5t5.5 -45.5q0 -20 -4 -39t-13.5 -34t-25 -24.5t-37.5 -9.5q-49 0 -83 14q26 -55 26 -126q0 -59 -17.5 -106.5t-50 -81.5t-79 -52.5t-103.5 -18.5q-60 0 -107 19t-79.5 53t-49.5 82t-17 105
q0 58 17.5 106t50.5 82t79.5 52.5t105.5 18.5q91 0 154 -46q30 -22 54.5 -28.5t48.5 -6.5q29 0 38.5 19.5t9.5 43.5q0 17 -2.5 32t-6.5 24h70zM268 96q119 0 119 150q0 149 -119 149t-119 -149q0 -150 119 -150z" />
    <glyph glyph-name="uni1EDE" unicode="&#x1ede;" horiz-adv-x="769" 
d="M15 0zM752 702q10 -11 15.5 -32.5t5.5 -45.5q0 -57 -25.5 -82t-66.5 -25q-35 0 -74 15q44 -85 44 -209q0 -172 -81.5 -259t-235.5 -87t-236.5 90t-82.5 259q0 84 21 151t62 113.5t100 71t136 24.5q126 0 206 -68q24 -20 50 -27.5t53 -7.5q29 0 38.5 19.5t9.5 43.5
q0 17 -2.5 32t-6.5 24h70zM334 96q37 0 70 13.5t57.5 41t38.5 70.5t14 102q0 118 -46 179t-134 61t-135 -61t-47 -179t47.5 -172.5t134.5 -54.5zM308 753q0 17 5 30.5t20 22.5q11 6 17 12t6 18q0 17 -24 17q-8 0 -18 -3t-23 -12l-18 55q15 13 35.5 19t34.5 6
q35 0 54.5 -16.5t19.5 -44.5q0 -21 -9 -33.5t-20.5 -22t-20.5 -20t-9 -28.5h-50z" />
    <glyph glyph-name="uni1EDF" unicode="&#x1edf;" horiz-adv-x="651" 
d="M15 0zM634 543q10 -11 15.5 -32.5t5.5 -45.5q0 -20 -4 -39t-13.5 -34t-25 -24.5t-37.5 -9.5q-49 0 -83 14q26 -55 26 -126q0 -59 -17.5 -106.5t-50 -81.5t-79 -52.5t-103.5 -18.5q-60 0 -107 19t-79.5 53t-49.5 82t-17 105q0 58 17.5 106t50.5 82t79.5 52.5t105.5 18.5
q91 0 154 -46q30 -22 54.5 -28.5t48.5 -6.5q29 0 38.5 19.5t9.5 43.5q0 17 -2.5 32t-6.5 24h70zM268 96q119 0 119 150q0 149 -119 149t-119 -149q0 -150 119 -150zM248 581q0 17 5 30.5t20 22.5q11 6 17 12t6 18q0 17 -24 17q-8 0 -18 -3t-23 -12l-18 55q15 13 35.5 19
t34.5 6q35 0 54.5 -16.5t19.5 -44.5q0 -21 -9 -33.5t-20.5 -22t-20.5 -20t-9 -28.5h-50z" />
    <glyph glyph-name="uni1EE0" unicode="&#x1ee0;" horiz-adv-x="769" 
d="M15 0zM752 702q10 -11 15.5 -32.5t5.5 -45.5q0 -57 -25.5 -82t-66.5 -25q-35 0 -74 15q44 -85 44 -209q0 -172 -81.5 -259t-235.5 -87t-236.5 90t-82.5 259q0 84 21 151t62 113.5t100 71t136 24.5q126 0 206 -68q24 -20 50 -27.5t53 -7.5q29 0 38.5 19.5t9.5 43.5
q0 17 -2.5 32t-6.5 24h70zM334 96q37 0 70 13.5t57.5 41t38.5 70.5t14 102q0 118 -46 179t-134 61t-135 -61t-47 -179t47.5 -172.5t134.5 -54.5zM510 846q-17 -54 -47 -76t-62 -22q-19 0 -35.5 7t-31.5 15.5t-30 15.5t-31 7q-6 0 -18 -8t-21 -36l-69 37q16 49 41 68.5
t56 19.5q23 0 41 -7.5t34 -16.5t30 -16.5t28 -7.5q9 0 22 10.5t18 36.5z" />
    <glyph glyph-name="uni1EE1" unicode="&#x1ee1;" horiz-adv-x="651" 
d="M15 0zM634 543q10 -11 15.5 -32.5t5.5 -45.5q0 -20 -4 -39t-13.5 -34t-25 -24.5t-37.5 -9.5q-49 0 -83 14q26 -55 26 -126q0 -59 -17.5 -106.5t-50 -81.5t-79 -52.5t-103.5 -18.5q-60 0 -107 19t-79.5 53t-49.5 82t-17 105q0 58 17.5 106t50.5 82t79.5 52.5t105.5 18.5
q91 0 154 -46q30 -22 54.5 -28.5t48.5 -6.5q29 0 38.5 19.5t9.5 43.5q0 17 -2.5 32t-6.5 24h70zM268 96q119 0 119 150q0 149 -119 149t-119 -149q0 -150 119 -150zM443 674q-17 -54 -47 -76t-62 -22q-19 0 -35.5 7t-31.5 15.5t-30 15.5t-31 7q-6 0 -18 -8t-21 -36l-69 37
q16 49 41 68.5t56 19.5q23 0 41 -7.5t34 -16.5t30 -16.5t28 -7.5q9 0 22 10.5t18 36.5z" />
    <glyph glyph-name="uni1EE2" unicode="&#x1ee2;" horiz-adv-x="769" 
d="M15 0zM752 702q10 -11 15.5 -32.5t5.5 -45.5q0 -57 -25.5 -82t-66.5 -25q-35 0 -74 15q44 -85 44 -209q0 -172 -81.5 -259t-235.5 -87t-236.5 90t-82.5 259q0 84 21 151t62 113.5t100 71t136 24.5q126 0 206 -68q24 -20 50 -27.5t53 -7.5q29 0 38.5 19.5t9.5 43.5
q0 17 -2.5 32t-6.5 24h70zM334 96q37 0 70 13.5t57.5 41t38.5 70.5t14 102q0 118 -46 179t-134 61t-135 -61t-47 -179t47.5 -172.5t134.5 -54.5zM271 -206v124h130v-124h-130z" />
    <glyph glyph-name="uni1EE3" unicode="&#x1ee3;" horiz-adv-x="651" 
d="M15 0zM634 543q10 -11 15.5 -32.5t5.5 -45.5q0 -20 -4 -39t-13.5 -34t-25 -24.5t-37.5 -9.5q-49 0 -83 14q26 -55 26 -126q0 -59 -17.5 -106.5t-50 -81.5t-79 -52.5t-103.5 -18.5q-60 0 -107 19t-79.5 53t-49.5 82t-17 105q0 58 17.5 106t50.5 82t79.5 52.5t105.5 18.5
q91 0 154 -46q30 -22 54.5 -28.5t48.5 -6.5q29 0 38.5 19.5t9.5 43.5q0 17 -2.5 32t-6.5 24h70zM268 96q119 0 119 150q0 149 -119 149t-119 -149q0 -150 119 -150zM210 -206v124h130v-124h-130z" />
    <glyph glyph-name="uni1EE4" unicode="&#x1ee4;" horiz-adv-x="586" 
d="M23 0zM416 664h142v-443q0 -121 -71 -182.5t-202 -61.5q-121 0 -191.5 58t-70.5 178v451h141v-438q0 -62 31 -98t88 -36q133 0 133 129v443zM233 -206v124h130v-124h-130z" />
    <glyph glyph-name="uni1EE5" unicode="&#x1ee5;" horiz-adv-x="500" 
d="M26 0zM346 0v69q-50 -82 -153 -82q-37 0 -67.5 13t-52.5 37t-34.5 57t-12.5 74v324h130v-304q0 -92 83 -92q50 0 75.5 31.5t25.5 80.5v284h129v-492h-123zM198 -206v124h130v-124h-130z" />
    <glyph glyph-name="uni1EE6" unicode="&#x1ee6;" horiz-adv-x="586" 
d="M23 0zM416 664h142v-443q0 -121 -71 -182.5t-202 -61.5q-121 0 -191.5 58t-70.5 178v451h141v-438q0 -62 31 -98t88 -36q133 0 133 129v443zM264 753q0 17 5 30.5t20 22.5q11 6 17 12t6 18q0 17 -24 17q-8 0 -18 -3t-23 -12l-18 55q15 13 35.5 19t34.5 6q35 0 54.5 -16.5
t19.5 -44.5q0 -21 -9 -33.5t-20.5 -22t-20.5 -20t-9 -28.5h-50z" />
    <glyph glyph-name="uni1EE7" unicode="&#x1ee7;" horiz-adv-x="500" 
d="M26 0zM346 0v69q-50 -82 -153 -82q-37 0 -67.5 13t-52.5 37t-34.5 57t-12.5 74v324h130v-304q0 -92 83 -92q50 0 75.5 31.5t25.5 80.5v284h129v-492h-123zM223 581q0 17 5 30.5t20 22.5q11 6 17 12t6 18q0 17 -24 17q-8 0 -18 -3t-23 -12l-18 55q15 13 35.5 19t34.5 6
q35 0 54.5 -16.5t19.5 -44.5q0 -21 -9 -33.5t-20.5 -22t-20.5 -20t-9 -28.5h-50z" />
    <glyph glyph-name="uni1EE8" unicode="&#x1ee8;" horiz-adv-x="748" 
d="M23 0zM416 664h142v-73q14 -5 27.5 -6.5t22.5 -1.5q27 0 40 14t13 49q0 17 -2.5 32t-6.5 24h70q10 -11 15.5 -32.5t5.5 -46.5q0 -56 -26.5 -81.5t-67.5 -25.5q-44 0 -91 26v-321q0 -121 -71 -182.5t-200 -61.5q-123 0 -193.5 58t-70.5 178v451h141v-438q0 -62 30.5 -98
t95.5 -36q59 0 92.5 31.5t33.5 97.5v443zM232 726l-31 55l207 121l47 -82z" />
    <glyph glyph-name="uni1EE9" unicode="&#x1ee9;" horiz-adv-x="638" 
d="M26 0zM187 554l-31 55l207 121l47 -82zM346 0v69q-26 -43 -65 -62.5t-85 -19.5q-39 0 -70 13t-53.5 37t-34.5 57t-12 74v324h130v-304q0 -92 82 -92q51 0 76.5 31t25.5 81v284h129v-64q11 -2 21.5 -3t16.5 -1q32 0 42 18t10 44q0 17 -2.5 32.5t-6.5 24.5h70
q10 -11 15.5 -32.5t5.5 -46.5q0 -56 -26 -81t-67 -25q-37 0 -79 18v-376h-123z" />
    <glyph glyph-name="uni1EEA" unicode="&#x1eea;" horiz-adv-x="748" 
d="M23 0zM416 664h142v-73q14 -5 27.5 -6.5t22.5 -1.5q27 0 40 14t13 49q0 17 -2.5 32t-6.5 24h70q10 -11 15.5 -32.5t5.5 -46.5q0 -56 -26.5 -81.5t-67.5 -25.5q-44 0 -91 26v-321q0 -121 -71 -182.5t-200 -61.5q-123 0 -193.5 58t-70.5 178v451h141v-438q0 -62 30.5 -98
t95.5 -36q59 0 92.5 31.5t33.5 97.5v443zM142 820l47 82l207 -121l-31 -55z" />
    <glyph glyph-name="uni1EEB" unicode="&#x1eeb;" horiz-adv-x="638" 
d="M26 0zM95 648l47 82l207 -121l-31 -55zM346 0v69q-26 -43 -65 -62.5t-85 -19.5q-39 0 -70 13t-53.5 37t-34.5 57t-12 74v324h130v-304q0 -92 82 -92q51 0 76.5 31t25.5 81v284h129v-64q11 -2 21.5 -3t16.5 -1q32 0 42 18t10 44q0 17 -2.5 32.5t-6.5 24.5h70
q10 -11 15.5 -32.5t5.5 -46.5q0 -56 -26 -81t-67 -25q-37 0 -79 18v-376h-123z" />
    <glyph glyph-name="uni1EEC" unicode="&#x1eec;" horiz-adv-x="748" 
d="M23 0zM416 664h142v-73q14 -5 27.5 -6.5t22.5 -1.5q27 0 40 14t13 49q0 17 -2.5 32t-6.5 24h70q10 -11 15.5 -32.5t5.5 -46.5q0 -56 -26.5 -81.5t-67.5 -25.5q-44 0 -91 26v-321q0 -121 -71 -182.5t-200 -61.5q-123 0 -193.5 58t-70.5 178v451h141v-438q0 -62 30.5 -98
t95.5 -36q59 0 92.5 31.5t33.5 97.5v443zM276 753q0 17 5 30.5t20 22.5q11 6 17 12t6 18q0 17 -24 17q-8 0 -18 -3t-23 -12l-18 55q15 13 35.5 19t34.5 6q35 0 54.5 -16.5t19.5 -44.5q0 -21 -9 -33.5t-20.5 -22t-20.5 -20t-9 -28.5h-50z" />
    </font>
</defs>
</svg>
